<svg width="383" height="276" viewBox="0 0 383 276" fill="none" xmlns="http://www.w3.org/2000/svg">
<g clip-path="url(#clip0_1376_4509)">
<path d="M83.7852 11.1886C83.7852 5.00933 88.7945 0 94.9738 0H289.023C295.202 0 300.211 5.00932 300.211 11.1886V275H83.7852V11.1886Z" fill="white"/>
<g clip-path="url(#clip1_1376_4509)">
<rect width="215.477" height="25.9677" transform="translate(84.2812)" fill="#FCFDFC"/>
<path d="M149.607 -1.10504H234.922V7.18252C234.922 12.3699 230.717 16.5751 225.53 16.5751H159C153.812 16.5751 149.607 12.3699 149.607 7.18252V-1.10504Z" fill="black"/>
<path d="M149.735 -1.10504H146.973C146.973 -1.10504 146.973 -1.10504 146.973 -1.10504C148.437 -1.10504 149.624 0.0821498 149.624 1.54661C149.624 1.58375 149.624 1.62071 149.622 1.65748H149.735V-1.10504Z" fill="black"/>
<path d="M234.821 -1.10504H237.583C237.583 -1.10504 237.583 -1.10504 237.583 -1.10504C236.119 -1.10504 234.932 0.0821498 234.932 1.54661C234.932 1.58375 234.932 1.62071 234.934 1.65748H234.821V-1.10504Z" fill="black"/>
<path d="M108.398 17.6651C107.941 17.6651 107.556 17.5774 107.243 17.4021C106.93 17.2205 106.685 16.9857 106.51 16.6976C106.335 16.4096 106.231 16.0997 106.2 15.7678H107.318C107.368 16.0558 107.487 16.2781 107.675 16.4347C107.869 16.5912 108.113 16.6695 108.407 16.6695C108.827 16.6695 109.165 16.4785 109.422 16.0965C109.678 15.7083 109.816 15.1197 109.835 14.3307C109.685 14.5874 109.456 14.8003 109.149 14.9694C108.849 15.1385 108.517 15.223 108.154 15.223C107.791 15.223 107.449 15.1353 107.13 14.96C106.811 14.7847 106.551 14.5374 106.35 14.218C106.15 13.8987 106.05 13.523 106.05 13.0909C106.05 12.6964 106.147 12.3301 106.341 11.992C106.535 11.6538 106.804 11.3815 107.149 11.1748C107.493 10.9682 107.897 10.8649 108.36 10.8649C108.855 10.8649 109.271 10.9557 109.61 11.1372C109.948 11.3188 110.217 11.563 110.417 11.8699C110.624 12.1767 110.771 12.518 110.859 12.8937C110.953 13.2694 111 13.6545 111 14.0489C111 14.7816 110.896 15.4203 110.69 15.965C110.489 16.5035 110.192 16.9231 109.797 17.2236C109.409 17.5179 108.943 17.6651 108.398 17.6651ZM108.436 14.2086C108.667 14.2086 108.877 14.1585 109.065 14.0583C109.253 13.9519 109.4 13.8141 109.506 13.6451C109.613 13.4697 109.666 13.2756 109.666 13.0627C109.666 12.7246 109.547 12.4459 109.309 12.2268C109.077 12.0076 108.783 11.898 108.426 11.898C108.075 11.898 107.784 12.0076 107.553 12.2268C107.321 12.4397 107.205 12.7121 107.205 13.0439C107.205 13.3946 107.321 13.6764 107.553 13.8893C107.784 14.1022 108.079 14.2086 108.436 14.2086ZM112.369 17.6181C112.15 17.6181 111.968 17.5492 111.824 17.4115C111.686 17.2737 111.618 17.1078 111.618 16.9137C111.618 16.7133 111.686 16.5442 111.824 16.4065C111.968 16.2687 112.15 16.1998 112.369 16.1998C112.588 16.1998 112.767 16.2687 112.904 16.4065C113.048 16.5442 113.12 16.7133 113.12 16.9137C113.12 17.1078 113.048 17.2737 112.904 17.4115C112.767 17.5492 112.588 17.6181 112.369 17.6181ZM112.369 14.1992C112.15 14.1992 111.968 14.1303 111.824 13.9926C111.686 13.8548 111.618 13.6889 111.618 13.4948C111.618 13.2944 111.686 13.1253 111.824 12.9876C111.968 12.8498 112.15 12.7809 112.369 12.7809C112.588 12.7809 112.767 12.8498 112.904 12.9876C113.048 13.1253 113.12 13.2944 113.12 13.4948C113.12 13.6889 113.048 13.8548 112.904 13.9926C112.767 14.1303 112.588 14.1992 112.369 14.1992ZM116.936 17.5524V16.3313H113.695V15.3733L116.776 10.9776H118.138V15.2888H119.002V16.3313H118.138V17.5524H116.936ZM114.982 15.2888H117.011V12.3019L114.982 15.2888ZM120.435 17.5524V12.3489L119.355 12.6025V11.682L120.943 10.9776H121.685V17.5524H120.435Z" fill="#010101"/>
<path opacity="0.35" d="M272.565 10.7891H281.958C283.018 10.7891 283.877 11.6481 283.877 12.7076V15.4702C283.877 16.5297 283.018 17.3887 281.958 17.3887H272.565C271.506 17.3887 270.647 16.5297 270.647 15.4702V12.7076C270.647 11.6481 271.506 10.7891 272.565 10.7891Z" stroke="black" stroke-width="0.582939"/>
<path opacity="0.4" d="M284.719 13.2601V15.5919C285.188 15.3944 285.493 14.935 285.493 14.426C285.493 13.917 285.188 13.4576 284.719 13.2601" fill="black"/>
<path d="M271.461 12.7076C271.461 12.0973 271.956 11.6026 272.566 11.6026H281.959C282.569 11.6026 283.064 12.0973 283.064 12.7076V15.4701C283.064 16.0804 282.569 16.5751 281.959 16.5751H272.566C271.956 16.5751 271.461 16.0804 271.461 15.4701V12.7076Z" fill="black"/>
<path fill-rule="evenodd" clip-rule="evenodd" d="M261.79 12.4797C263.153 12.4798 264.464 13.0143 265.451 13.9728C265.526 14.0468 265.645 14.0458 265.718 13.9707L266.429 13.2383C266.466 13.2002 266.487 13.1485 266.486 13.0948C266.486 13.0411 266.465 12.9897 266.427 12.952C263.835 10.4161 259.745 10.4161 257.153 12.952C257.115 12.9897 257.094 13.041 257.094 13.0948C257.093 13.1485 257.114 13.2001 257.151 13.2383L257.862 13.9707C257.935 14.0459 258.054 14.0469 258.129 13.9728C259.117 13.0142 260.427 12.4797 261.79 12.4797ZM261.81 14.7366C262.559 14.7366 263.281 15.0207 263.836 15.5337C263.911 15.6065 264.029 15.6049 264.102 15.5301L264.812 14.7977C264.85 14.7593 264.87 14.7072 264.87 14.653C264.869 14.5989 264.848 14.5472 264.809 14.5096C263.119 12.9048 260.502 12.9048 258.812 14.5096C258.774 14.5472 258.752 14.5989 258.751 14.6531C258.751 14.7073 258.772 14.7594 258.809 14.7977L259.519 15.5301C259.592 15.6049 259.71 15.6065 259.785 15.5337C260.34 15.021 261.062 14.7369 261.81 14.7366ZM263.254 16.212C263.255 16.2663 263.234 16.3187 263.196 16.3567L261.968 17.6221C261.932 17.6593 261.883 17.6802 261.831 17.6802C261.78 17.6802 261.731 17.6593 261.695 17.6221L260.467 16.3567C260.429 16.3186 260.408 16.2663 260.409 16.212C260.41 16.1577 260.433 16.1062 260.472 16.0698C261.257 15.3925 262.406 15.3925 263.19 16.0698C263.23 16.1063 263.253 16.1577 263.254 16.212Z" fill="black"/>
<path d="M248.256 12.7076C248.256 12.4025 248.503 12.1551 248.808 12.1551H249.361C249.666 12.1551 249.913 12.4025 249.913 12.7076V17.1277C249.913 17.4328 249.666 17.6802 249.361 17.6802H248.808C248.503 17.6802 248.256 17.4328 248.256 17.1277V12.7076Z" fill="black"/>
<path d="M251.018 11.6026C251.018 11.2975 251.265 11.0501 251.571 11.0501H252.123C252.428 11.0501 252.676 11.2975 252.676 11.6026V17.1277C252.676 17.4328 252.428 17.6802 252.123 17.6802H251.571C251.265 17.6802 251.018 17.4328 251.018 17.1277V11.6026Z" fill="black"/>
<path d="M245.493 14.6414C245.493 14.3362 245.74 14.0889 246.045 14.0889H246.598C246.903 14.0889 247.151 14.3362 247.151 14.6414V17.1277C247.151 17.4328 246.903 17.6802 246.598 17.6802H246.045C245.74 17.6802 245.493 17.4328 245.493 17.1277V14.6414Z" fill="black"/>
<path d="M242.73 16.0226C242.73 15.7175 242.978 15.4701 243.283 15.4701H243.835C244.141 15.4701 244.388 15.7175 244.388 16.0226V17.1277C244.388 17.4328 244.141 17.6802 243.835 17.6802H243.283C242.978 17.6802 242.73 17.4328 242.73 17.1277V16.0226Z" fill="black"/>
</g>
<g clip-path="url(#clip2_1376_4509)">
<path d="M93.1211 79.0079C93.1211 74.1257 97.0789 70.1678 101.961 70.1678H282.077C286.96 70.1678 290.917 74.1257 290.917 79.0079V232.604H93.1211V79.0079Z" fill="#FCF7FF"/>
<rect x="93.1211" y="83.9802" width="197.796" height="120.446" rx="2.21002" fill="#FCF7FF"/>
<path d="M104.566 103.08C104.138 103.08 103.764 103.003 103.444 102.848C103.124 102.694 102.879 102.485 102.709 102.222C102.539 101.959 102.454 101.67 102.454 101.355H103.266C103.266 101.634 103.38 101.868 103.606 102.059C103.839 102.25 104.158 102.345 104.566 102.345C104.978 102.345 105.285 102.268 105.486 102.113C105.687 101.954 105.788 101.747 105.788 101.495C105.788 101.072 105.494 100.809 104.906 100.706L103.924 100.52C103.021 100.355 102.57 99.8805 102.57 99.0967C102.57 98.7925 102.647 98.5218 102.802 98.2845C102.957 98.0422 103.178 97.854 103.467 97.7199C103.756 97.5807 104.096 97.511 104.488 97.511C104.911 97.511 105.277 97.5858 105.587 97.7354C105.901 97.8849 106.141 98.0912 106.306 98.3542C106.476 98.6172 106.561 98.9111 106.561 99.236H105.749C105.749 99.0555 105.698 98.8905 105.594 98.7409C105.496 98.5914 105.352 98.4728 105.161 98.3851C104.97 98.2923 104.746 98.2459 104.488 98.2459C104.138 98.2459 103.864 98.3258 103.668 98.4857C103.478 98.6455 103.382 98.8492 103.382 99.0967C103.382 99.4886 103.655 99.7362 104.202 99.8393L105.053 99.994C105.594 100.092 105.986 100.262 106.229 100.505C106.476 100.742 106.6 101.072 106.6 101.495C106.6 101.799 106.52 102.072 106.36 102.315C106.205 102.552 105.973 102.74 105.664 102.879C105.36 103.013 104.994 103.08 104.566 103.08ZM109.184 103.08C108.823 103.08 108.495 102.995 108.201 102.825C107.908 102.65 107.675 102.41 107.505 102.106C107.34 101.796 107.258 101.446 107.258 101.054C107.258 100.667 107.34 100.321 107.505 100.017C107.675 99.7078 107.908 99.468 108.201 99.2978C108.495 99.1225 108.823 99.0348 109.184 99.0348C109.529 99.0348 109.841 99.1174 110.12 99.2824C110.403 99.4474 110.625 99.6743 110.785 99.9631C110.95 100.252 111.032 100.577 111.032 100.938C111.032 101.118 111.02 101.255 110.994 101.348H108.024C108.06 101.662 108.186 101.92 108.403 102.121C108.619 102.317 108.88 102.415 109.184 102.415C109.4 102.415 109.591 102.366 109.756 102.268C109.921 102.17 110.045 102.044 110.127 101.889H110.924C110.806 102.235 110.597 102.521 110.298 102.748C109.999 102.969 109.627 103.08 109.184 103.08ZM110.274 100.76C110.249 100.45 110.135 100.195 109.934 99.994C109.733 99.7929 109.483 99.6923 109.184 99.6923C108.874 99.6923 108.614 99.7929 108.403 99.994C108.191 100.195 108.065 100.45 108.024 100.76H110.274ZM111.856 103.003V99.1122H112.513L112.591 99.5144H112.629C112.727 99.3907 112.877 99.2798 113.078 99.1818C113.279 99.0838 113.511 99.0348 113.774 99.0348C114.073 99.0348 114.339 99.1045 114.571 99.2437C114.808 99.3778 114.991 99.5686 115.12 99.8161C115.254 100.064 115.321 100.347 115.321 100.667V103.003H114.555V100.729C114.555 100.45 114.465 100.218 114.285 100.033C114.104 99.847 113.88 99.7542 113.612 99.7542C113.431 99.7542 113.263 99.798 113.109 99.8857C112.959 99.9734 112.841 100.092 112.753 100.242C112.665 100.391 112.621 100.553 112.621 100.729V103.003H111.856ZM117.921 103.08C117.585 103.08 117.281 102.995 117.008 102.825C116.735 102.655 116.518 102.415 116.358 102.106C116.198 101.796 116.118 101.446 116.118 101.054C116.118 100.662 116.198 100.314 116.358 100.009C116.518 99.7001 116.735 99.4603 117.008 99.2901C117.281 99.1199 117.585 99.0348 117.921 99.0348C118.41 99.0348 118.802 99.2205 119.096 99.5918H119.135V97.5884H119.901V103.003H119.243L119.166 102.508H119.127C118.828 102.889 118.426 103.08 117.921 103.08ZM118.013 102.369C118.215 102.369 118.4 102.315 118.57 102.206C118.746 102.098 118.882 101.943 118.98 101.742C119.083 101.541 119.135 101.312 119.135 101.054C119.135 100.796 119.083 100.569 118.98 100.373C118.882 100.172 118.746 100.017 118.57 99.9089C118.4 99.8006 118.215 99.7465 118.013 99.7465C117.807 99.7465 117.619 99.8006 117.449 99.9089C117.279 100.017 117.142 100.172 117.039 100.373C116.941 100.569 116.892 100.796 116.892 101.054C116.892 101.317 116.941 101.549 117.039 101.75C117.142 101.946 117.279 102.098 117.449 102.206C117.619 102.315 117.807 102.369 118.013 102.369ZM127.344 103.003H126.47L126.006 101.703H123.515L123.051 103.003H122.169L124.165 97.5884H125.356L127.344 103.003ZM124.683 98.4547L123.778 100.969H125.743L124.838 98.4547H124.683ZM127.855 103.003V99.1122H128.512L128.589 99.5144H128.628C128.726 99.3907 128.863 99.2798 129.038 99.1818C129.213 99.0838 129.404 99.0348 129.61 99.0348C129.879 99.0348 130.111 99.0993 130.307 99.2282C130.508 99.3571 130.647 99.4989 130.724 99.6537H130.763C130.866 99.4938 131.029 99.352 131.25 99.2282C131.477 99.0993 131.73 99.0348 132.008 99.0348C132.276 99.0348 132.516 99.1019 132.728 99.236C132.944 99.3649 133.114 99.5454 133.238 99.7774C133.362 100.009 133.424 100.275 133.424 100.574V103.003H132.658V100.621C132.658 100.352 132.586 100.141 132.441 99.9863C132.302 99.8316 132.114 99.7542 131.877 99.7542C131.645 99.7542 131.444 99.8393 131.273 100.009C131.103 100.174 131.018 100.378 131.018 100.621V103.003H130.26V100.621C130.26 100.358 130.188 100.149 130.044 99.994C129.899 99.8341 129.708 99.7542 129.471 99.7542C129.239 99.7542 129.038 99.8393 128.868 100.009C128.703 100.174 128.62 100.378 128.62 100.621V103.003H127.855ZM136.143 103.08C135.782 103.08 135.455 102.995 135.161 102.825C134.867 102.65 134.635 102.41 134.465 102.106C134.3 101.796 134.217 101.446 134.217 101.054C134.217 100.667 134.3 100.321 134.465 100.017C134.635 99.7078 134.867 99.468 135.161 99.2978C135.455 99.1225 135.782 99.0348 136.143 99.0348C136.504 99.0348 136.829 99.1225 137.118 99.2978C137.412 99.468 137.641 99.7078 137.806 100.017C137.976 100.321 138.061 100.667 138.061 101.054C138.061 101.446 137.976 101.796 137.806 102.106C137.641 102.41 137.412 102.65 137.118 102.825C136.829 102.995 136.504 103.08 136.143 103.08ZM136.143 102.369C136.355 102.369 136.548 102.315 136.723 102.206C136.904 102.098 137.046 101.943 137.149 101.742C137.252 101.541 137.303 101.312 137.303 101.054C137.303 100.796 137.252 100.569 137.149 100.373C137.046 100.172 136.904 100.017 136.723 99.9089C136.548 99.8006 136.355 99.7465 136.143 99.7465C135.932 99.7465 135.736 99.8006 135.555 99.9089C135.38 100.017 135.241 100.172 135.138 100.373C135.034 100.569 134.983 100.796 134.983 101.054C134.983 101.312 135.034 101.541 135.138 101.742C135.241 101.943 135.38 102.098 135.555 102.206C135.736 102.315 135.932 102.369 136.143 102.369ZM140.43 103.08C140.131 103.08 139.863 103.013 139.626 102.879C139.394 102.74 139.211 102.547 139.076 102.299C138.948 102.052 138.883 101.768 138.883 101.448V99.1122H139.649V101.386C139.649 101.665 139.739 101.897 139.92 102.082C140.1 102.268 140.324 102.361 140.593 102.361C140.773 102.361 140.938 102.317 141.088 102.229C141.242 102.142 141.363 102.023 141.451 101.874C141.539 101.724 141.583 101.562 141.583 101.386V99.1122H142.348V103.003H141.691L141.614 102.601H141.575C141.467 102.73 141.312 102.843 141.111 102.941C140.91 103.034 140.683 103.08 140.43 103.08ZM143.385 103.003V99.1122H144.043L144.12 99.5144H144.159C144.257 99.3907 144.406 99.2798 144.607 99.1818C144.808 99.0838 145.04 99.0348 145.303 99.0348C145.603 99.0348 145.868 99.1045 146.1 99.2437C146.337 99.3778 146.52 99.5686 146.649 99.8161C146.783 100.064 146.85 100.347 146.85 100.667V103.003H146.085V100.729C146.085 100.45 145.994 100.218 145.814 100.033C145.633 99.847 145.409 99.7542 145.141 99.7542C144.961 99.7542 144.793 99.798 144.638 99.8857C144.489 99.9734 144.37 100.092 144.282 100.242C144.195 100.391 144.151 100.553 144.151 100.729V103.003H143.385ZM148.926 103.003C148.663 103.003 148.457 102.933 148.307 102.794C148.163 102.65 148.09 102.456 148.09 102.214V99.8316H147.472V99.1122H148.09V97.9829H148.856V99.1122H149.746V99.8316H148.856V102.059C148.856 102.219 148.936 102.299 149.096 102.299H149.746V103.003H148.926Z" fill="#28005E"/>
<mask id="mask0_1376_4509" style="mask-type:alpha" maskUnits="userSpaceOnUse" x="226" y="92" width="15" height="16">
<circle cx="233.573" cy="100.003" r="7.18262" fill="#D9D9D9"/>
</mask>
<g mask="url(#mask0_1376_4509)">
<rect x="222.973" y="92.1365" width="21.5479" height="15.0493" rx="1.49264" fill="#207801"/>
<rect x="230.836" y="91.794" width="5.8145" height="16.7594" fill="#F8F8F8"/>
</g>
<circle cx="233.573" cy="100.003" r="7.06389" stroke="#F5F6FA" stroke-width="0.237465"/>
<path d="M250.38 104.273H249.568V98.8589H250.759L252.964 103.09H253.119V98.8589H253.931V104.273H252.74L250.535 100.042H250.38V104.273ZM257.665 101.466H259.955V104.273H259.313L259.235 103.57H259.197C259.032 103.776 258.797 103.959 258.493 104.119C258.194 104.273 257.861 104.351 257.495 104.351C257.015 104.351 256.577 104.232 256.18 103.995C255.783 103.758 255.468 103.428 255.236 103.005C255.004 102.582 254.888 102.102 254.888 101.566C254.888 101.025 255.004 100.543 255.236 100.12C255.468 99.6969 255.783 99.3694 256.18 99.1374C256.577 98.9002 257.015 98.7815 257.495 98.7815C257.882 98.7815 258.24 98.8615 258.57 99.0213C258.9 99.176 259.179 99.3875 259.405 99.6556C259.638 99.9238 259.805 100.223 259.908 100.553H259.065C258.931 100.254 258.72 100.014 258.431 99.8335C258.147 99.6479 257.835 99.5551 257.495 99.5551C257.165 99.5551 256.863 99.6401 256.59 99.8103C256.317 99.9753 256.1 100.213 255.94 100.522C255.78 100.826 255.7 101.174 255.7 101.566C255.7 101.958 255.78 102.309 255.94 102.618C256.1 102.922 256.317 103.16 256.59 103.33C256.863 103.495 257.165 103.577 257.495 103.577C257.789 103.577 258.06 103.51 258.307 103.376C258.555 103.237 258.751 103.059 258.895 102.842C259.045 102.621 259.124 102.394 259.135 102.162L259.143 102.1H257.665V101.466ZM261.862 104.273H261.05V98.8589H262.241L264.446 103.09H264.6V98.8589H265.413V104.273H264.221L262.017 100.042H261.862V104.273Z" fill="black"/>
<g clip-path="url(#clip3_1376_4509)">
<circle cx="276.09" cy="100.003" r="5.80129" fill="#F7EEFC"/>
<path d="M273.602 98.8976L276.364 101.66L279.127 98.8976" stroke="#8908D9" stroke-width="0.552504" stroke-linecap="round"/>
</g>
<mask id="path-21-inside-1_1376_4509" fill="white">
<path d="M98.3711 124.866C98.3711 122.425 100.35 120.446 102.791 120.446H281.25C283.691 120.446 285.67 122.425 285.67 124.866V144.756C285.67 147.197 283.691 149.176 281.25 149.176H102.791C100.35 149.176 98.3711 147.197 98.3711 144.756V124.866Z"/>
</mask>
<path d="M98.3711 124.866C98.3711 122.425 100.35 120.446 102.791 120.446H281.25C283.691 120.446 285.67 122.425 285.67 124.866V144.756C285.67 147.197 283.691 149.176 281.25 149.176H102.791C100.35 149.176 98.3711 147.197 98.3711 144.756V124.866Z" fill="white"/>
<path d="M111.896 137.811H107.918V131.623H111.896V132.286H108.625V134.363H111.719V135.026H108.625V137.148H111.896V137.811ZM113.001 137.811V133.391H113.575L113.664 133.877H113.708C113.826 133.73 114.003 133.597 114.238 133.479C114.474 133.361 114.739 133.302 115.034 133.302C115.37 133.302 115.671 133.382 115.936 133.541C116.207 133.694 116.419 133.912 116.572 134.195C116.725 134.478 116.802 134.799 116.802 135.159V137.811H116.139V135.159C116.139 134.929 116.086 134.72 115.98 134.531C115.874 134.342 115.729 134.195 115.547 134.089C115.364 133.977 115.164 133.921 114.946 133.921C114.716 133.921 114.501 133.98 114.3 134.098C114.106 134.21 113.95 134.36 113.832 134.549C113.72 134.737 113.664 134.941 113.664 135.159V137.811H113.001ZM119.061 137.811C118.819 137.811 118.625 137.743 118.478 137.607C118.336 137.466 118.266 137.283 118.266 137.059V134.01H117.558V133.391H118.266V132.153H118.929V133.391H119.945V134.01H118.929V136.927C118.929 137.104 119.017 137.192 119.194 137.192H119.945V137.811H119.061ZM122.644 137.899C122.249 137.899 121.89 137.802 121.566 137.607C121.241 137.413 120.985 137.142 120.797 136.794C120.614 136.446 120.522 136.049 120.522 135.601C120.522 135.153 120.614 134.755 120.797 134.407C120.985 134.06 121.241 133.789 121.566 133.594C121.89 133.4 122.249 133.302 122.644 133.302C123.021 133.302 123.366 133.394 123.678 133.576C123.991 133.759 124.235 134.012 124.412 134.337C124.589 134.655 124.677 135.017 124.677 135.424C124.677 135.66 124.663 135.822 124.633 135.91H121.185C121.227 136.323 121.386 136.656 121.663 136.909C121.94 137.157 122.267 137.28 122.644 137.28C122.909 137.28 123.145 137.218 123.351 137.095C123.563 136.971 123.726 136.797 123.838 136.573H124.545C124.391 136.997 124.15 137.325 123.82 137.554C123.496 137.784 123.104 137.899 122.644 137.899ZM124.014 135.291C123.991 134.891 123.849 134.563 123.59 134.31C123.337 134.051 123.021 133.921 122.644 133.921C122.249 133.921 121.919 134.051 121.654 134.31C121.389 134.563 121.233 134.891 121.185 135.291H124.014ZM125.648 137.811V133.391H126.223L126.311 133.833H126.355C126.455 133.679 126.564 133.567 126.682 133.497C126.8 133.426 126.971 133.391 127.195 133.391H127.946V134.01H127.283C126.977 134.01 126.738 134.095 126.567 134.266C126.396 134.431 126.311 134.67 126.311 134.982V137.811H125.648ZM135.472 137.811H134.72L134.128 136.22H131.069L130.477 137.811H129.725L132.068 131.623H133.129L135.472 137.811ZM132.51 132.374L131.317 135.557H133.88L132.687 132.374H132.51ZM136.094 137.811V133.391H136.668L136.757 133.877H136.801C136.919 133.73 137.081 133.597 137.287 133.479C137.493 133.361 137.714 133.302 137.95 133.302C138.263 133.302 138.531 133.379 138.755 133.532C138.984 133.685 139.144 133.859 139.232 134.054H139.276C139.4 133.859 139.591 133.685 139.851 133.532C140.116 133.379 140.411 133.302 140.735 133.302C141.041 133.302 141.315 133.376 141.557 133.523C141.799 133.671 141.987 133.874 142.123 134.133C142.258 134.393 142.326 134.69 142.326 135.026V137.811H141.663V135.026C141.663 134.696 141.569 134.431 141.38 134.231C141.197 134.024 140.953 133.921 140.646 133.921C140.458 133.921 140.278 133.971 140.107 134.071C139.936 134.166 139.798 134.298 139.692 134.469C139.591 134.64 139.541 134.826 139.541 135.026V137.811H138.878V135.026C138.878 134.696 138.784 134.431 138.596 134.231C138.413 134.024 138.168 133.921 137.862 133.921C137.673 133.921 137.493 133.971 137.323 134.071C137.152 134.166 137.013 134.298 136.907 134.469C136.807 134.64 136.757 134.826 136.757 135.026V137.811H136.094ZM145.418 137.899C145.023 137.899 144.663 137.802 144.339 137.607C144.015 137.413 143.759 137.142 143.57 136.794C143.387 136.446 143.296 136.049 143.296 135.601C143.296 135.153 143.387 134.755 143.57 134.407C143.759 134.06 144.015 133.789 144.339 133.594C144.663 133.4 145.023 133.302 145.418 133.302C145.812 133.302 146.172 133.4 146.496 133.594C146.82 133.789 147.074 134.06 147.256 134.407C147.445 134.755 147.539 135.153 147.539 135.601C147.539 136.049 147.445 136.446 147.256 136.794C147.074 137.142 146.82 137.413 146.496 137.607C146.172 137.802 145.812 137.899 145.418 137.899ZM145.418 137.28C145.683 137.28 145.927 137.213 146.151 137.077C146.375 136.936 146.552 136.738 146.682 136.485C146.811 136.225 146.876 135.931 146.876 135.601C146.876 135.271 146.811 134.979 146.682 134.726C146.552 134.466 146.375 134.269 146.151 134.133C145.927 133.992 145.683 133.921 145.418 133.921C145.152 133.921 144.908 133.992 144.684 134.133C144.46 134.269 144.283 134.466 144.153 134.726C144.024 134.979 143.959 135.271 143.959 135.601C143.959 135.931 144.024 136.225 144.153 136.485C144.283 136.738 144.46 136.936 144.684 137.077C144.908 137.213 145.152 137.28 145.418 137.28ZM150.276 137.899C149.94 137.899 149.636 137.823 149.365 137.669C149.1 137.51 148.891 137.289 148.738 137.006C148.584 136.723 148.508 136.402 148.508 136.043V133.391H149.171V136.043C149.171 136.273 149.224 136.482 149.33 136.67C149.436 136.859 149.58 137.009 149.763 137.121C149.946 137.227 150.146 137.28 150.364 137.28C150.594 137.28 150.806 137.224 151.001 137.112C151.201 136.994 151.357 136.841 151.469 136.653C151.587 136.464 151.646 136.261 151.646 136.043V133.391H152.309V137.811H151.734L151.646 137.325H151.602C151.478 137.478 151.298 137.613 151.063 137.731C150.833 137.843 150.571 137.899 150.276 137.899ZM153.549 137.811V133.391H154.124L154.212 133.877H154.257C154.375 133.73 154.551 133.597 154.787 133.479C155.023 133.361 155.288 133.302 155.583 133.302C155.919 133.302 156.219 133.382 156.484 133.541C156.755 133.694 156.968 133.912 157.121 134.195C157.274 134.478 157.351 134.799 157.351 135.159V137.811H156.688V135.159C156.688 134.929 156.635 134.72 156.529 134.531C156.422 134.342 156.278 134.195 156.095 134.089C155.913 133.977 155.712 133.921 155.494 133.921C155.264 133.921 155.049 133.98 154.849 134.098C154.654 134.21 154.498 134.36 154.38 134.549C154.268 134.737 154.212 134.941 154.212 135.159V137.811H153.549ZM159.61 137.811C159.368 137.811 159.174 137.743 159.026 137.607C158.885 137.466 158.814 137.283 158.814 137.059V134.01H158.107V133.391H158.814V132.153H159.477V133.391H160.494V134.01H159.477V136.927C159.477 137.104 159.566 137.192 159.742 137.192H160.494V137.811H159.61Z" fill="#D5CFDF"/>
<path d="M259.107 137.811V131.623H259.974L262.201 135.937L264.411 131.623H265.286V137.811H264.544V132.949L262.475 136.927H261.918L259.85 132.958V137.811H259.107ZM268.062 137.917C267.696 137.917 267.393 137.855 267.151 137.731C266.909 137.607 266.73 137.442 266.612 137.236C266.494 137.03 266.435 136.806 266.435 136.564C266.435 136.116 266.606 135.772 266.948 135.53C267.29 135.288 267.755 135.168 268.345 135.168H269.529V135.115C269.529 134.731 269.429 134.443 269.229 134.248C269.028 134.048 268.76 133.948 268.424 133.948C268.135 133.948 267.885 134.021 267.673 134.169C267.466 134.31 267.337 134.519 267.284 134.796H266.523C266.553 134.478 266.659 134.21 266.842 133.992C267.03 133.774 267.263 133.609 267.54 133.497C267.817 133.379 268.112 133.32 268.424 133.32C269.037 133.32 269.497 133.485 269.803 133.815C270.115 134.139 270.272 134.572 270.272 135.115V137.811H269.609L269.564 137.024C269.441 137.271 269.258 137.484 269.016 137.66C268.781 137.831 268.462 137.917 268.062 137.917ZM268.177 137.289C268.459 137.289 268.701 137.215 268.901 137.068C269.108 136.921 269.264 136.729 269.37 136.494C269.476 136.258 269.529 136.01 269.529 135.751V135.742H268.406C267.97 135.742 267.661 135.819 267.478 135.972C267.301 136.119 267.213 136.305 267.213 136.529C267.213 136.759 267.296 136.944 267.461 137.086C267.631 137.221 267.87 137.289 268.177 137.289ZM270.999 137.811L272.519 135.618L270.999 133.426H271.803L273.032 135.238L274.27 133.426H275.065L273.545 135.618L275.065 137.811H274.27L273.032 135.999L271.803 137.811H270.999Z" fill="#818181"/>
<path d="M97.8186 124.866C97.8186 122.119 100.045 119.893 102.791 119.893H281.25C283.996 119.893 286.222 122.119 286.222 124.866L285.117 124.866C285.117 122.73 283.386 120.998 281.25 120.998H102.791C100.655 120.998 98.9236 122.73 98.9236 124.866L97.8186 124.866ZM286.222 144.756C286.222 147.502 283.996 149.728 281.25 149.728H102.791C100.045 149.728 97.8186 147.502 97.8186 144.756L98.9236 144.756C98.9236 146.892 100.655 148.623 102.791 148.623H281.25C283.386 148.623 285.117 146.892 285.117 144.756L286.222 144.756ZM102.791 149.728C100.045 149.728 97.8186 147.502 97.8186 144.756V124.866C97.8186 122.119 100.045 119.893 102.791 119.893L102.791 120.998C100.655 120.998 98.9236 122.73 98.9236 124.866V144.756C98.9236 146.892 100.655 148.623 102.791 148.623L102.791 149.728ZM281.25 119.893C283.996 119.893 286.222 122.119 286.222 124.866V144.756C286.222 147.502 283.996 149.728 281.25 149.728L281.25 148.623C283.386 148.623 285.117 146.892 285.117 144.756V124.866C285.117 122.73 283.386 120.998 281.25 120.998L281.25 119.893Z" fill="#818181" mask="url(#path-21-inside-1_1376_4509)"/>
<mask id="path-25-inside-2_1376_4509" fill="white">
<path d="M98.3711 171.276C98.3711 168.835 100.35 166.856 102.791 166.856H281.25C283.691 166.856 285.67 168.835 285.67 171.276V191.166C285.67 193.607 283.691 195.586 281.25 195.586H102.791C100.35 195.586 98.3711 193.607 98.3711 191.166V171.276Z"/>
</mask>
<path d="M98.3711 171.276C98.3711 168.835 100.35 166.856 102.791 166.856H281.25C283.691 166.856 285.67 168.835 285.67 171.276V191.166C285.67 193.607 283.691 195.586 281.25 195.586H102.791C100.35 195.586 98.3711 193.607 98.3711 191.166V171.276Z" fill="#ECCDFF"/>
<path d="M120.303 184.809C119.867 184.809 119.466 184.686 119.1 184.438C118.741 184.191 118.452 183.828 118.234 183.351C118.022 182.868 117.916 182.293 117.916 181.627C117.916 180.961 118.022 180.389 118.234 179.912C118.452 179.429 118.741 179.063 119.1 178.816C119.466 178.568 119.867 178.445 120.303 178.445C120.739 178.445 121.137 178.568 121.496 178.816C121.862 179.063 122.15 179.429 122.362 179.912C122.58 180.389 122.69 180.961 122.69 181.627C122.69 182.293 122.58 182.868 122.362 183.351C122.15 183.828 121.862 184.191 121.496 184.438C121.137 184.686 120.739 184.809 120.303 184.809ZM120.303 184.146C120.603 184.146 120.88 184.052 121.134 183.864C121.393 183.669 121.599 183.383 121.752 183.006C121.906 182.623 121.982 182.163 121.982 181.627C121.982 181.091 121.906 180.634 121.752 180.257C121.599 179.874 121.393 179.588 121.134 179.399C120.88 179.205 120.603 179.108 120.303 179.108C120.002 179.108 119.722 179.205 119.463 179.399C119.209 179.588 119.006 179.874 118.853 180.257C118.7 180.634 118.623 181.091 118.623 181.627C118.623 182.163 118.7 182.623 118.853 183.006C119.006 183.383 119.209 183.669 119.463 183.864C119.722 184.052 120.002 184.146 120.303 184.146ZM123.953 184.721H123.157V183.925H123.953V184.721ZM126.803 184.809C126.367 184.809 125.966 184.686 125.601 184.438C125.242 184.191 124.953 183.828 124.735 183.351C124.523 182.868 124.416 182.293 124.416 181.627C124.416 180.961 124.523 180.389 124.735 179.912C124.953 179.429 125.242 179.063 125.601 178.816C125.966 178.568 126.367 178.445 126.803 178.445C127.239 178.445 127.637 178.568 127.997 178.816C128.362 179.063 128.651 179.429 128.863 179.912C129.081 180.389 129.19 180.961 129.19 181.627C129.19 182.293 129.081 182.868 128.863 183.351C128.651 183.828 128.362 184.191 127.997 184.438C127.637 184.686 127.239 184.809 126.803 184.809ZM126.803 184.146C127.104 184.146 127.381 184.052 127.634 183.864C127.894 183.669 128.1 183.383 128.253 183.006C128.406 182.623 128.483 182.163 128.483 181.627C128.483 181.091 128.406 180.634 128.253 180.257C128.1 179.874 127.894 179.588 127.634 179.399C127.381 179.205 127.104 179.108 126.803 179.108C126.503 179.108 126.223 179.205 125.963 179.399C125.71 179.588 125.507 179.874 125.353 180.257C125.2 180.634 125.124 181.091 125.124 181.627C125.124 182.163 125.2 182.623 125.353 183.006C125.507 183.383 125.71 183.669 125.963 183.864C126.223 184.052 126.503 184.146 126.803 184.146Z" fill="#2C1450"/>
<path d="M108.899 184.721H108.192V178.533H109.385L112.17 183.881H112.346V178.533H113.054V184.721H111.86L109.076 179.373H108.899V184.721Z" fill="#2C1450"/>
<line x1="107.211" y1="180.97" x2="113.841" y2="180.97" stroke="#2C1450" stroke-width="0.552504"/>
<line x1="107.211" y1="182.627" x2="113.841" y2="182.627" stroke="#2C1450" stroke-width="0.552504"/>
<mask id="mask1_1376_4509" style="mask-type:alpha" maskUnits="userSpaceOnUse" x="224" y="174" width="14" height="14">
<circle cx="230.986" cy="181.221" r="6.63005" fill="#D9D9D9"/>
</mask>
<g mask="url(#mask1_1376_4509)">
<rect x="221.199" y="173.96" width="19.8901" height="13.8915" rx="1.83708" fill="#207801"/>
<rect x="228.457" y="173.644" width="5.36718" height="15.4701" fill="#F8F8F8"/>
</g>
<circle cx="230.986" cy="181.221" r="6.48392" stroke="#F7EEFC" stroke-width="0.292262"/>
<path d="M243.455 184.248H242.642V178.834H243.834L246.038 183.065H246.193V178.834H247.005V184.248H245.814L243.609 180.017H243.455V184.248ZM250.739 181.44H253.029V184.248H252.387L252.31 183.544H252.271C252.106 183.751 251.871 183.934 251.567 184.094C251.268 184.248 250.935 184.326 250.569 184.326C250.09 184.326 249.651 184.207 249.254 183.97C248.857 183.733 248.543 183.403 248.311 182.98C248.078 182.557 247.962 182.077 247.962 181.541C247.962 181 248.078 180.517 248.311 180.095C248.543 179.672 248.857 179.344 249.254 179.112C249.651 178.875 250.09 178.756 250.569 178.756C250.956 178.756 251.314 178.836 251.644 178.996C251.974 179.151 252.253 179.362 252.48 179.63C252.712 179.899 252.879 180.198 252.982 180.528H252.139C252.005 180.229 251.794 179.989 251.505 179.808C251.221 179.623 250.909 179.53 250.569 179.53C250.239 179.53 249.937 179.615 249.664 179.785C249.391 179.95 249.174 180.187 249.014 180.497C248.855 180.801 248.775 181.149 248.775 181.541C248.775 181.933 248.855 182.284 249.014 182.593C249.174 182.897 249.391 183.134 249.664 183.305C249.937 183.47 250.239 183.552 250.569 183.552C250.863 183.552 251.134 183.485 251.381 183.351C251.629 183.212 251.825 183.034 251.969 182.817C252.119 182.596 252.199 182.369 252.209 182.137L252.217 182.075H250.739V181.44ZM254.936 184.248H254.124V178.834H255.315L257.52 183.065H257.675V178.834H258.487V184.248H257.296L255.091 180.017H254.936V184.248Z" fill="black"/>
<g clip-path="url(#clip4_1376_4509)">
<circle cx="272.481" cy="181.221" r="5.80129" fill="#F2DCFF"/>
<path d="M270 180.116L272.763 182.878L275.525 180.116" stroke="#8908D9" stroke-width="0.552504" stroke-linecap="round"/>
</g>
<path d="M97.8186 171.276C97.8186 168.53 100.045 166.303 102.791 166.303H281.25C283.996 166.303 286.222 168.53 286.222 171.276L285.117 171.276C285.117 169.14 283.386 167.408 281.25 167.408H102.791C100.655 167.408 98.9236 169.14 98.9236 171.276L97.8186 171.276ZM286.222 191.166C286.222 193.912 283.996 196.139 281.25 196.139H102.791C100.045 196.139 97.8186 193.912 97.8186 191.166L98.9236 191.166C98.9236 193.302 100.655 195.034 102.791 195.034H281.25C283.386 195.034 285.117 193.302 285.117 191.166L286.222 191.166ZM102.791 196.139C100.045 196.139 97.8186 193.912 97.8186 191.166V171.276C97.8186 168.53 100.045 166.303 102.791 166.303L102.791 167.408C100.655 167.408 98.9236 169.14 98.9236 171.276V191.166C98.9236 193.302 100.655 195.034 102.791 195.034L102.791 196.139ZM281.25 166.303C283.996 166.303 286.222 168.53 286.222 171.276V191.166C286.222 193.912 283.996 196.139 281.25 196.139L281.25 195.034C283.386 195.034 285.117 193.302 285.117 191.166V171.276C285.117 169.14 283.386 167.408 281.25 167.408L281.25 166.303Z" fill="#4A00B9" mask="url(#path-25-inside-2_1376_4509)"/>
</g>
<path d="M290.917 232.88H291.194V232.604V79.0079C291.194 73.9731 287.112 69.8916 282.077 69.8916H101.961C96.9264 69.8916 92.8448 73.9731 92.8448 79.0079V232.604V232.88H93.1211H290.917Z" stroke="#D8BEFE" stroke-width="0.552504"/>
<rect x="92.5703" y="229.841" width="198.901" height="29.2827" fill="#4A00B9"/>
<line x1="99.1992" y1="258.848" x2="283.736" y2="258.848" stroke="#7E28FF" stroke-width="0.552504"/>
<path d="M101.962 50.2778H94.2266" stroke="black" stroke-width="0.552504" stroke-linecap="round" stroke-linejoin="round"/>
<path d="M98.0941 54.1455L94.2266 50.278L98.0941 46.4105" stroke="black" stroke-width="0.552504" stroke-linecap="round" stroke-linejoin="round"/>
<path d="M175.272 53.278H174.52V47.4076H172.36V46.7032H177.432V47.4076H175.272V53.278ZM177.763 53.278V48.5817H178.374L178.468 49.0513H178.515C178.621 48.8885 178.737 48.7695 178.862 48.6944C178.987 48.6192 179.169 48.5817 179.407 48.5817H180.205V49.2392H179.501C179.175 49.2392 178.922 49.3299 178.74 49.5115C178.558 49.6869 178.468 49.9405 178.468 50.2723V53.278H177.763ZM182.319 53.3719C181.831 53.3719 181.433 53.2373 181.126 52.968C180.826 52.6925 180.676 52.3418 180.676 51.916C180.676 51.4464 180.829 51.0801 181.136 50.8171C181.449 50.5478 181.922 50.4132 182.554 50.4132H183.822V50.2723C183.822 49.9217 183.722 49.6462 183.521 49.4458C183.321 49.2454 183.046 49.1452 182.695 49.1452C182.357 49.1452 182.081 49.2235 181.868 49.38C181.662 49.5303 181.546 49.7182 181.521 49.9436H180.816C180.835 49.6869 180.92 49.4489 181.07 49.2298C181.22 49.0043 181.433 48.8259 181.709 48.6944C181.99 48.5566 182.319 48.4877 182.695 48.4877C183.265 48.4877 183.712 48.6474 184.038 48.9668C184.364 49.2799 184.526 49.715 184.526 50.2723V53.278H183.916L183.822 52.7144H183.775C183.669 52.8835 183.484 53.0369 183.221 53.1746C182.964 53.3061 182.664 53.3719 182.319 53.3719ZM182.319 52.7144C182.789 52.7144 183.155 52.586 183.418 52.3293C183.687 52.0663 183.822 51.7094 183.822 51.2586V51.0707H182.554C182.153 51.0707 181.856 51.149 181.662 51.3055C181.474 51.4621 181.38 51.6656 181.38 51.916C181.38 52.154 181.461 52.3481 181.624 52.4984C181.787 52.6424 182.019 52.7144 182.319 52.7144ZM185.844 53.278V48.5817H186.455L186.548 49.0983H186.595C186.721 48.9417 186.909 48.8008 187.159 48.6756C187.409 48.5504 187.691 48.4877 188.004 48.4877C188.361 48.4877 188.681 48.5723 188.962 48.7413C189.25 48.9041 189.476 49.1358 189.639 49.4364C189.801 49.737 189.883 50.0782 189.883 50.4602V53.278H189.178V50.4602C189.178 50.216 189.122 49.9937 189.009 49.7933C188.897 49.5929 188.743 49.4364 188.549 49.3237C188.355 49.2047 188.142 49.1452 187.91 49.1452C187.666 49.1452 187.438 49.2078 187.225 49.3331C187.018 49.452 186.852 49.6117 186.727 49.8121C186.608 50.0125 186.548 50.2285 186.548 50.4602V53.278H185.844ZM192.704 53.3719C192.328 53.3719 191.996 53.3061 191.708 53.1746C191.426 53.0369 191.207 52.8584 191.05 52.6393C190.9 52.4138 190.825 52.1728 190.825 51.916H191.529C191.529 52.1352 191.633 52.323 191.839 52.4796C192.052 52.6361 192.34 52.7144 192.704 52.7144C193.06 52.7144 193.336 52.6487 193.53 52.5172C193.73 52.3794 193.831 52.2103 193.831 52.01C193.831 51.8221 193.765 51.6718 193.633 51.5591C193.508 51.4401 193.308 51.3556 193.032 51.3055L192.234 51.1646C191.357 51.0143 190.919 50.576 190.919 49.8497C190.919 49.4552 191.066 49.1296 191.36 48.8728C191.661 48.6161 192.093 48.4877 192.657 48.4877C193.02 48.4877 193.339 48.5566 193.615 48.6944C193.896 48.8259 194.112 49.0043 194.263 49.2298C194.413 49.4552 194.488 49.6931 194.488 49.9436H193.784C193.784 49.7244 193.68 49.5366 193.474 49.38C193.267 49.2235 192.995 49.1452 192.657 49.1452C192.325 49.1452 192.068 49.2141 191.886 49.3519C191.711 49.4834 191.623 49.6493 191.623 49.8497C191.623 50.025 191.68 50.1659 191.792 50.2723C191.911 50.3788 192.106 50.4571 192.375 50.5071L193.173 50.648C193.643 50.7294 193.987 50.8828 194.206 51.1083C194.425 51.3337 194.535 51.6343 194.535 52.01C194.535 52.4044 194.375 52.7301 194.056 52.9868C193.743 53.2435 193.292 53.3719 192.704 53.3719ZM195.758 53.278V49.2392H195.007V48.5817H195.758V47.6894C195.758 47.4514 195.833 47.2604 195.983 47.1164C196.14 46.9661 196.347 46.891 196.603 46.891H197.449V47.5485H196.744C196.556 47.5485 196.462 47.6424 196.462 47.8303V48.5817H197.449V49.2392H196.462V53.278H195.758ZM200.126 53.3719C199.706 53.3719 199.324 53.2686 198.98 53.0619C198.636 52.8553 198.363 52.5672 198.163 52.1978C197.969 51.8284 197.872 51.4057 197.872 50.9298C197.872 50.4539 197.969 50.0313 198.163 49.6618C198.363 49.2924 198.636 49.0043 198.98 48.7977C199.324 48.5911 199.706 48.4877 200.126 48.4877C200.527 48.4877 200.893 48.5848 201.225 48.7789C201.557 48.973 201.817 49.2423 202.004 49.5867C202.192 49.9248 202.286 50.3099 202.286 50.742C202.286 50.9924 202.27 51.1646 202.239 51.2586H198.576C198.62 51.6969 198.789 52.0507 199.083 52.3199C199.378 52.5829 199.725 52.7144 200.126 52.7144C200.408 52.7144 200.658 52.6487 200.877 52.5172C201.103 52.3857 201.275 52.2009 201.394 51.963H202.145C201.982 52.4138 201.726 52.7614 201.375 53.0056C201.031 53.2498 200.614 53.3719 200.126 53.3719ZM201.582 50.6011C201.557 50.1753 201.406 49.8278 201.131 49.5585C200.862 49.283 200.527 49.1452 200.126 49.1452C199.706 49.1452 199.356 49.283 199.074 49.5585C198.792 49.8278 198.626 50.1753 198.576 50.6011H201.582ZM203.317 53.278V48.5817H203.928L204.022 49.0513H204.069C204.175 48.8885 204.291 48.7695 204.416 48.6944C204.542 48.6192 204.723 48.5817 204.961 48.5817H205.76V49.2392H205.055C204.73 49.2392 204.476 49.3299 204.294 49.5115C204.113 49.6869 204.022 49.9405 204.022 50.2723V53.278H203.317Z" fill="black"/>
<path d="M101.887 246.682H101.075V242.041H99.3732V241.267H103.581V242.041H101.887V246.682ZM103.871 246.682V242.791H104.528L104.605 243.154H104.644C104.721 243.036 104.814 242.946 104.922 242.884C105.036 242.822 105.185 242.791 105.371 242.791H106.052V243.51H105.441C105.183 243.51 104.984 243.58 104.845 243.719C104.706 243.858 104.636 244.057 104.636 244.315V246.682H103.871ZM107.86 246.759C107.586 246.759 107.344 246.707 107.132 246.604C106.921 246.496 106.759 246.352 106.645 246.171C106.532 245.985 106.475 245.779 106.475 245.552C106.475 245.171 106.606 244.866 106.869 244.64C107.132 244.413 107.524 244.299 108.045 244.299H109.035V244.199C109.035 243.946 108.96 243.745 108.811 243.595C108.667 243.446 108.468 243.371 108.215 243.371C107.973 243.371 107.777 243.428 107.627 243.541C107.478 243.649 107.39 243.781 107.364 243.936H106.614C106.63 243.724 106.702 243.526 106.831 243.34C106.96 243.149 107.143 242.997 107.38 242.884C107.617 242.77 107.896 242.714 108.215 242.714C108.7 242.714 109.084 242.848 109.368 243.116C109.657 243.384 109.801 243.745 109.801 244.199V246.682H109.136L109.058 246.256H109.02C108.932 246.385 108.785 246.501 108.579 246.604C108.373 246.707 108.133 246.759 107.86 246.759ZM107.937 246.102C108.277 246.102 108.545 246.009 108.741 245.823C108.937 245.632 109.035 245.374 109.035 245.05V244.91H108.099C107.811 244.91 107.594 244.967 107.45 245.08C107.31 245.194 107.241 245.341 107.241 245.521C107.241 245.697 107.3 245.839 107.419 245.947C107.542 246.05 107.715 246.102 107.937 246.102ZM110.878 246.682V242.791H111.535L111.612 243.193H111.651C111.749 243.069 111.899 242.959 112.1 242.861C112.301 242.763 112.533 242.714 112.796 242.714C113.095 242.714 113.361 242.783 113.593 242.922C113.83 243.056 114.013 243.247 114.142 243.495C114.276 243.742 114.343 244.026 114.343 244.346V246.682H113.577V244.408C113.577 244.129 113.487 243.897 113.306 243.711C113.126 243.526 112.902 243.433 112.633 243.433C112.453 243.433 112.285 243.477 112.131 243.564C111.981 243.652 111.863 243.771 111.775 243.92C111.687 244.07 111.643 244.232 111.643 244.408V246.682H110.878ZM116.742 246.759C116.397 246.759 116.1 246.697 115.853 246.573C115.611 246.45 115.428 246.295 115.304 246.109C115.18 245.918 115.118 245.725 115.118 245.529H115.876C115.876 245.689 115.951 245.826 116.1 245.939C116.255 246.053 116.469 246.109 116.742 246.109C117.016 246.109 117.222 246.063 117.361 245.97C117.506 245.872 117.578 245.751 117.578 245.606C117.578 245.467 117.531 245.356 117.439 245.274C117.346 245.191 117.194 245.132 116.982 245.096L116.348 244.988C115.569 244.854 115.18 244.482 115.18 243.874C115.18 243.539 115.311 243.263 115.574 243.046C115.837 242.824 116.214 242.714 116.704 242.714C117.029 242.714 117.31 242.773 117.547 242.891C117.789 243.01 117.972 243.162 118.096 243.348C118.225 243.533 118.289 243.729 118.289 243.936H117.539C117.539 243.776 117.462 243.642 117.307 243.533C117.158 243.42 116.956 243.363 116.704 243.363C116.456 243.363 116.265 243.412 116.131 243.51C116.002 243.608 115.938 243.729 115.938 243.874C115.938 243.992 115.982 244.09 116.07 244.168C116.162 244.245 116.309 244.302 116.51 244.338L117.152 244.446C117.555 244.513 117.851 244.642 118.042 244.833C118.238 245.024 118.336 245.279 118.336 245.599C118.336 245.934 118.197 246.212 117.918 246.434C117.645 246.651 117.253 246.759 116.742 246.759ZM120.383 246.759C120.11 246.759 119.868 246.707 119.656 246.604C119.445 246.496 119.282 246.352 119.169 246.171C119.055 245.985 118.999 245.779 118.999 245.552C118.999 245.171 119.13 244.866 119.393 244.64C119.656 244.413 120.048 244.299 120.569 244.299H121.559V244.199C121.559 243.946 121.484 243.745 121.335 243.595C121.19 243.446 120.992 243.371 120.739 243.371C120.497 243.371 120.301 243.428 120.151 243.541C120.002 243.649 119.914 243.781 119.888 243.936H119.138C119.153 243.724 119.226 243.526 119.354 243.34C119.483 243.149 119.666 242.997 119.904 242.884C120.141 242.77 120.419 242.714 120.739 242.714C121.224 242.714 121.608 242.848 121.892 243.116C122.18 243.384 122.325 243.745 122.325 244.199V246.682H121.66L121.582 246.256H121.543C121.456 246.385 121.309 246.501 121.103 246.604C120.896 246.707 120.657 246.759 120.383 246.759ZM120.461 246.102C120.801 246.102 121.069 246.009 121.265 245.823C121.461 245.632 121.559 245.374 121.559 245.05V244.91H120.623C120.334 244.91 120.118 244.967 119.973 245.08C119.834 245.194 119.764 245.341 119.764 245.521C119.764 245.697 119.824 245.839 119.942 245.947C120.066 246.05 120.239 246.102 120.461 246.102ZM125.103 246.759C124.742 246.759 124.415 246.674 124.121 246.504C123.827 246.328 123.595 246.089 123.425 245.784C123.259 245.475 123.177 245.124 123.177 244.732C123.177 244.346 123.259 244 123.425 243.696C123.595 243.387 123.827 243.147 124.121 242.977C124.415 242.801 124.742 242.714 125.103 242.714C125.572 242.714 125.964 242.845 126.279 243.108C126.593 243.371 126.797 243.709 126.89 244.121H126.116C126.049 243.905 125.928 243.735 125.753 243.611C125.577 243.487 125.361 243.425 125.103 243.425C124.892 243.425 124.698 243.479 124.523 243.588C124.348 243.696 124.208 243.851 124.105 244.052C124.002 244.248 123.95 244.475 123.95 244.732C123.95 244.99 124.002 245.22 124.105 245.421C124.208 245.622 124.348 245.777 124.523 245.885C124.698 245.993 124.892 246.047 125.103 246.047C125.361 246.047 125.577 245.983 125.753 245.854C125.928 245.725 126.049 245.547 126.116 245.32H126.89C126.797 245.743 126.593 246.089 126.279 246.357C125.964 246.625 125.572 246.759 125.103 246.759ZM128.771 246.682C128.508 246.682 128.301 246.612 128.152 246.473C128.007 246.328 127.935 246.135 127.935 245.893V243.51H127.316V242.791H127.935V241.662H128.701V242.791H129.591V243.51H128.701V245.738C128.701 245.898 128.781 245.978 128.941 245.978H129.591V246.682H128.771ZM131.28 246.682H130.514V242.791H131.28V246.682ZM131.319 242.056H130.483V241.283H131.319V242.056ZM134.076 246.759C133.715 246.759 133.388 246.674 133.094 246.504C132.8 246.328 132.568 246.089 132.398 245.784C132.233 245.475 132.15 245.124 132.15 244.732C132.15 244.346 132.233 244 132.398 243.696C132.568 243.387 132.8 243.147 133.094 242.977C133.388 242.801 133.715 242.714 134.076 242.714C134.437 242.714 134.762 242.801 135.051 242.977C135.345 243.147 135.574 243.387 135.739 243.696C135.91 244 135.995 244.346 135.995 244.732C135.995 245.124 135.91 245.475 135.739 245.784C135.574 246.089 135.345 246.328 135.051 246.504C134.762 246.674 134.437 246.759 134.076 246.759ZM134.076 246.047C134.288 246.047 134.481 245.993 134.657 245.885C134.837 245.777 134.979 245.622 135.082 245.421C135.185 245.22 135.237 244.99 135.237 244.732C135.237 244.475 135.185 244.248 135.082 244.052C134.979 243.851 134.837 243.696 134.657 243.588C134.481 243.479 134.288 243.425 134.076 243.425C133.865 243.425 133.669 243.479 133.489 243.588C133.313 243.696 133.174 243.851 133.071 244.052C132.968 244.248 132.916 244.475 132.916 244.732C132.916 244.99 132.968 245.22 133.071 245.421C133.174 245.622 133.313 245.777 133.489 245.885C133.669 245.993 133.865 246.047 134.076 246.047ZM136.872 246.682V242.791H137.529L137.606 243.193H137.645C137.743 243.069 137.893 242.959 138.094 242.861C138.295 242.763 138.527 242.714 138.79 242.714C139.089 242.714 139.355 242.783 139.587 242.922C139.824 243.056 140.007 243.247 140.136 243.495C140.27 243.742 140.337 244.026 140.337 244.346V246.682H139.571V244.408C139.571 244.129 139.481 243.897 139.3 243.711C139.12 243.526 138.896 243.433 138.627 243.433C138.447 243.433 138.279 243.477 138.125 243.564C137.975 243.652 137.857 243.771 137.769 243.92C137.681 244.07 137.637 244.232 137.637 244.408V246.682H136.872ZM143.501 246.682V243.51H142.874V242.791H143.501V242.11C143.501 241.868 143.575 241.674 143.725 241.53C143.874 241.386 144.075 241.314 144.328 241.314H145.094V242.002H144.506C144.346 242.002 144.266 242.082 144.266 242.242V242.791H145.094V243.51H144.266V246.682H143.501ZM147.411 246.759C147.05 246.759 146.722 246.674 146.428 246.504C146.135 246.328 145.902 246.089 145.732 245.784C145.567 245.475 145.485 245.124 145.485 244.732C145.485 244.346 145.567 244 145.732 243.696C145.902 243.387 146.135 243.147 146.428 242.977C146.722 242.801 147.05 242.714 147.411 242.714C147.756 242.714 148.068 242.796 148.347 242.961C148.63 243.126 148.852 243.353 149.012 243.642C149.177 243.931 149.259 244.255 149.259 244.616C149.259 244.797 149.247 244.934 149.221 245.026H146.251C146.287 245.341 146.413 245.599 146.63 245.8C146.846 245.996 147.107 246.094 147.411 246.094C147.627 246.094 147.818 246.045 147.983 245.947C148.148 245.849 148.272 245.722 148.354 245.568H149.151C149.033 245.913 148.824 246.199 148.525 246.426C148.226 246.648 147.854 246.759 147.411 246.759ZM148.501 244.438C148.476 244.129 148.362 243.874 148.161 243.673C147.96 243.472 147.71 243.371 147.411 243.371C147.101 243.371 146.841 243.472 146.63 243.673C146.418 243.874 146.292 244.129 146.251 244.438H148.501ZM151.84 246.759C151.479 246.759 151.151 246.674 150.857 246.504C150.563 246.328 150.331 246.089 150.161 245.784C149.996 245.475 149.914 245.124 149.914 244.732C149.914 244.346 149.996 244 150.161 243.696C150.331 243.387 150.563 243.147 150.857 242.977C151.151 242.801 151.479 242.714 151.84 242.714C152.185 242.714 152.497 242.796 152.776 242.961C153.059 243.126 153.281 243.353 153.441 243.642C153.606 243.931 153.688 244.255 153.688 244.616C153.688 244.797 153.675 244.934 153.65 245.026H150.679C150.716 245.341 150.842 245.599 151.058 245.8C151.275 245.996 151.535 246.094 151.84 246.094C152.056 246.094 152.247 246.045 152.412 245.947C152.577 245.849 152.701 245.722 152.783 245.568H153.58C153.461 245.913 153.253 246.199 152.954 246.426C152.654 246.648 152.283 246.759 151.84 246.759ZM152.93 244.438C152.905 244.129 152.791 243.874 152.59 243.673C152.389 243.472 152.139 243.371 151.84 243.371C151.53 243.371 151.27 243.472 151.058 243.673C150.847 243.874 150.721 244.129 150.679 244.438H152.93Z" fill="white"/>
<path d="M282.705 246.759C282.308 246.759 281.944 246.651 281.614 246.434C281.289 246.218 281.029 245.9 280.833 245.483C280.642 245.06 280.547 244.557 280.547 243.974C280.547 243.392 280.642 242.891 280.833 242.474C281.029 242.051 281.289 241.731 281.614 241.515C281.944 241.298 282.308 241.19 282.705 241.19C283.102 241.19 283.463 241.298 283.788 241.515C284.118 241.731 284.378 242.051 284.569 242.474C284.765 242.891 284.863 243.392 284.863 243.974C284.863 244.557 284.765 245.06 284.569 245.483C284.378 245.9 284.118 246.218 283.788 246.434C283.463 246.651 283.102 246.759 282.705 246.759ZM282.705 245.985C282.947 245.985 283.169 245.911 283.37 245.761C283.576 245.606 283.741 245.38 283.865 245.08C283.989 244.776 284.051 244.408 284.051 243.974C284.051 243.541 283.989 243.175 283.865 242.876C283.741 242.572 283.576 242.345 283.37 242.195C283.169 242.041 282.947 241.963 282.705 241.963C282.463 241.963 282.238 242.041 282.032 242.195C281.831 242.345 281.668 242.572 281.545 242.876C281.421 243.175 281.359 243.541 281.359 243.974C281.359 244.408 281.421 244.776 281.545 245.08C281.668 245.38 281.831 245.606 282.032 245.761C282.238 245.911 282.463 245.985 282.705 245.985Z" fill="white"/>
<path d="M272.835 247.234H272.216V241.82H273.261L275.697 246.499H275.852V241.82H276.471V247.234H275.427L272.99 242.554H272.835V247.234Z" fill="white"/>
<line x1="271.324" y1="243.93" x2="277.954" y2="243.93" stroke="white" stroke-width="0.552504"/>
<line x1="271.324" y1="245.588" x2="277.954" y2="245.588" stroke="white" stroke-width="0.552504"/>
</g>
<path d="M94.9738 0.347473H289.023C295.01 0.347473 299.864 5.20122 299.864 11.1886V274.653H84.1326V11.1886C84.1326 5.20123 88.9864 0.347473 94.9738 0.347473Z" stroke="#4D05BC" stroke-width="0.694946"/>
<path d="M84 68H83C81.8954 68 81 68.8954 81 70V83C81 84.1046 81.8954 85 83 85H84V68Z" fill="#4A00B9"/>
<path d="M84 96H83C81.8954 96 81 96.8954 81 98V111C81 112.105 81.8954 113 83 113H84V96Z" fill="#4A00B9"/>
<path d="M300 68H301C302.105 68 303 68.8954 303 70V111C303 112.105 302.105 113 301 113H300V68Z" fill="#4A00B9"/>
<line x1="-2.18557e-08" y1="275.75" x2="383" y2="275.75" stroke="#4A00B9" stroke-width="0.5"/>
<defs>
<clipPath id="clip0_1376_4509">
<path d="M83.7852 11.1886C83.7852 5.00933 88.7945 0 94.9738 0H289.023C295.202 0 300.211 5.00932 300.211 11.1886V275H83.7852V11.1886Z" fill="white"/>
</clipPath>
<clipPath id="clip1_1376_4509">
<rect width="215.477" height="25.9677" fill="white" transform="translate(84.2812)"/>
</clipPath>
<clipPath id="clip2_1376_4509">
<path d="M93.1211 79.0079C93.1211 74.1257 97.0789 70.1678 101.961 70.1678H282.077C286.96 70.1678 290.917 74.1257 290.917 79.0079V232.604H93.1211V79.0079Z" fill="white"/>
</clipPath>
<clipPath id="clip3_1376_4509">
<rect width="11.6026" height="11.6026" fill="white" transform="translate(270.289 94.2016)"/>
</clipPath>
<clipPath id="clip4_1376_4509">
<rect width="11.6026" height="11.6026" fill="white" transform="translate(266.68 175.42)"/>
</clipPath>
</defs>
</svg>
