<svg width="383" height="279" viewBox="0 0 383 279" fill="none" xmlns="http://www.w3.org/2000/svg">
<g clip-path="url(#clip0_1376_4708)">
<path d="M92 11.2727C92 5.04698 97.047 0 103.273 0H287.864C294.089 0 299.136 5.04697 299.136 11.2727V279H92V11.2727Z" fill="white"/>
<g clip-path="url(#clip1_1376_4708)">
<rect width="207.223" height="600.947" transform="translate(92 -52)" fill="white"/>
<path d="M102.047 153.941H101.155V147.99H102.651L104.283 152.708H104.453L106.077 147.99H107.582V153.941H106.689V149.325H106.519L104.912 153.941H103.816L102.217 149.325H102.047V153.941ZM111.655 149.665H112.548L110.652 154.953C110.567 155.196 110.454 155.372 110.312 155.48C110.171 155.588 109.964 155.641 109.692 155.641H108.765V154.859H109.598C109.74 154.859 109.836 154.783 109.887 154.63L110.032 154.23L108.272 149.665H109.165L110.38 152.921H110.55L111.655 149.665ZM119.994 153.941H119.033L118.523 152.513H115.785L115.275 153.941H114.306L116.5 147.99H117.809L119.994 153.941ZM117.069 148.942L116.074 151.705H118.234L117.239 148.942H117.069ZM122.425 154.026C122.028 154.026 121.669 153.933 121.346 153.746C121.022 153.553 120.767 153.289 120.58 152.955C120.399 152.615 120.308 152.229 120.308 151.799C120.308 151.374 120.399 150.994 120.58 150.66C120.767 150.319 121.022 150.056 121.346 149.869C121.669 149.676 122.028 149.58 122.425 149.58C122.941 149.58 123.372 149.724 123.717 150.013C124.063 150.302 124.287 150.674 124.389 151.127H123.539C123.465 150.889 123.332 150.702 123.139 150.566C122.947 150.43 122.709 150.362 122.425 150.362C122.193 150.362 121.98 150.421 121.788 150.541C121.595 150.66 121.442 150.83 121.328 151.051C121.215 151.266 121.158 151.515 121.158 151.799C121.158 152.082 121.215 152.334 121.328 152.555C121.442 152.776 121.595 152.946 121.788 153.065C121.98 153.184 122.193 153.244 122.425 153.244C122.709 153.244 122.947 153.173 123.139 153.031C123.332 152.89 123.465 152.694 123.539 152.445H124.389C124.287 152.91 124.063 153.289 123.717 153.584C123.372 153.879 122.941 154.026 122.425 154.026ZM127.108 154.026C126.711 154.026 126.351 153.933 126.028 153.746C125.705 153.553 125.45 153.289 125.263 152.955C125.081 152.615 124.991 152.229 124.991 151.799C124.991 151.374 125.081 150.994 125.263 150.66C125.45 150.319 125.705 150.056 126.028 149.869C126.351 149.676 126.711 149.58 127.108 149.58C127.623 149.58 128.054 149.724 128.4 150.013C128.746 150.302 128.969 150.674 129.071 151.127H128.221C128.148 150.889 128.014 150.702 127.822 150.566C127.629 150.43 127.391 150.362 127.108 150.362C126.875 150.362 126.663 150.421 126.47 150.541C126.277 150.66 126.124 150.83 126.011 151.051C125.898 151.266 125.841 151.515 125.841 151.799C125.841 152.082 125.898 152.334 126.011 152.555C126.124 152.776 126.277 152.946 126.47 153.065C126.663 153.184 126.875 153.244 127.108 153.244C127.391 153.244 127.629 153.173 127.822 153.031C128.014 152.89 128.148 152.694 128.221 152.445H129.071C128.969 152.91 128.746 153.289 128.4 153.584C128.054 153.879 127.623 154.026 127.108 154.026ZM131.79 154.026C131.393 154.026 131.033 153.933 130.71 153.746C130.387 153.553 130.132 153.289 129.945 152.955C129.764 152.615 129.673 152.229 129.673 151.799C129.673 151.374 129.764 150.994 129.945 150.66C130.132 150.319 130.387 150.056 130.71 149.869C131.033 149.676 131.393 149.58 131.79 149.58C132.187 149.58 132.544 149.676 132.861 149.869C133.184 150.056 133.437 150.319 133.618 150.66C133.805 150.994 133.898 151.374 133.898 151.799C133.898 152.229 133.805 152.615 133.618 152.955C133.437 153.289 133.184 153.553 132.861 153.746C132.544 153.933 132.187 154.026 131.79 154.026ZM131.79 153.244C132.022 153.244 132.235 153.184 132.428 153.065C132.626 152.946 132.782 152.776 132.895 152.555C133.009 152.334 133.065 152.082 133.065 151.799C133.065 151.515 133.009 151.266 132.895 151.051C132.782 150.83 132.626 150.66 132.428 150.541C132.235 150.421 132.022 150.362 131.79 150.362C131.558 150.362 131.342 150.421 131.144 150.541C130.951 150.66 130.798 150.83 130.685 151.051C130.572 151.266 130.515 151.515 130.515 151.799C130.515 152.082 130.572 152.334 130.685 152.555C130.798 152.776 130.951 152.946 131.144 153.065C131.342 153.184 131.558 153.244 131.79 153.244ZM136.502 154.026C136.173 154.026 135.878 153.952 135.618 153.805C135.363 153.652 135.161 153.44 135.014 153.167C134.872 152.895 134.801 152.584 134.801 152.232V149.665H135.643V152.164C135.643 152.47 135.742 152.725 135.941 152.929C136.139 153.133 136.386 153.235 136.68 153.235C136.879 153.235 137.06 153.187 137.224 153.091C137.394 152.995 137.528 152.864 137.624 152.7C137.72 152.536 137.768 152.357 137.768 152.164V149.665H138.61V153.941H137.887L137.802 153.499H137.76C137.641 153.641 137.471 153.765 137.25 153.873C137.029 153.975 136.779 154.026 136.502 154.026ZM139.75 153.941V149.665H140.472L140.557 150.107H140.6C140.707 149.971 140.872 149.849 141.093 149.741C141.314 149.634 141.569 149.58 141.858 149.58C142.187 149.58 142.479 149.656 142.734 149.809C142.994 149.957 143.195 150.166 143.337 150.439C143.485 150.711 143.558 151.022 143.558 151.374V153.941H142.717V151.442C142.717 151.136 142.617 150.881 142.419 150.677C142.221 150.473 141.974 150.37 141.679 150.37C141.481 150.37 141.297 150.419 141.127 150.515C140.962 150.611 140.832 150.742 140.736 150.906C140.639 151.07 140.591 151.249 140.591 151.442V153.941H139.75ZM145.839 153.941C145.55 153.941 145.323 153.865 145.159 153.712C145 153.553 144.921 153.34 144.921 153.074V150.456H144.241V149.665H144.921V148.424H145.763V149.665H146.74V150.456H145.763V152.904C145.763 153.08 145.851 153.167 146.026 153.167H146.74V153.941H145.839ZM149.065 154.026C148.686 154.026 148.36 153.958 148.088 153.822C147.821 153.686 147.62 153.516 147.484 153.312C147.348 153.102 147.28 152.89 147.28 152.674H148.113C148.113 152.85 148.196 153 148.36 153.125C148.53 153.25 148.765 153.312 149.065 153.312C149.366 153.312 149.593 153.261 149.746 153.159C149.904 153.051 149.984 152.918 149.984 152.759C149.984 152.606 149.933 152.485 149.831 152.394C149.729 152.303 149.561 152.238 149.329 152.198L148.632 152.079C147.776 151.932 147.348 151.524 147.348 150.855C147.348 150.487 147.493 150.183 147.782 149.945C148.071 149.702 148.485 149.58 149.023 149.58C149.38 149.58 149.689 149.645 149.95 149.775C150.216 149.906 150.417 150.073 150.553 150.277C150.695 150.481 150.766 150.696 150.766 150.923H149.941C149.941 150.747 149.856 150.6 149.686 150.481C149.522 150.356 149.301 150.294 149.023 150.294C148.751 150.294 148.541 150.348 148.394 150.456C148.252 150.563 148.181 150.696 148.181 150.855C148.181 150.985 148.23 151.093 148.326 151.178C148.428 151.263 148.589 151.325 148.81 151.365L149.516 151.484C149.958 151.558 150.284 151.7 150.494 151.909C150.709 152.119 150.817 152.4 150.817 152.751C150.817 153.119 150.664 153.425 150.358 153.669C150.057 153.907 149.627 154.026 149.065 154.026Z" fill="#C6BDCC"/>
<circle cx="282.486" cy="150.442" r="8.23578" fill="#F4ECFF"/>
<line x1="282.472" y1="147.805" x2="282.472" y2="153.077" stroke="#8908D9" stroke-width="0.686315" stroke-linecap="round"/>
<line x1="284.946" y1="150.609" x2="279.674" y2="150.609" stroke="#8908D9" stroke-width="0.686315" stroke-linecap="round"/>
<rect x="100.766" y="164.522" width="82.3578" height="84.8236" rx="1.85969" fill="#FBF5FE"/>
<g clip-path="url(#clip2_1376_4708)">
<path d="M114.181 197.033V178.237C110.329 179.599 107.539 183.285 107.539 187.635C107.539 191.986 110.329 195.672 114.181 197.033Z" fill="#83BF4F"/>
<path d="M114.184 187.635H127.467C127.467 182.123 123.017 177.673 117.504 177.673C116.342 177.673 115.213 177.872 114.184 178.237V187.635Z" fill="#FFCE31"/>
<path d="M114.184 187.635V197.033C115.213 197.399 116.342 197.598 117.504 197.598C123.017 197.598 127.467 193.148 127.467 187.635H114.184Z" fill="#ED4C5C"/>
</g>
<path d="M107.385 221.265V216.801H109.298C109.519 216.801 109.721 216.857 109.904 216.967C110.091 217.078 110.237 217.229 110.344 217.42C110.454 217.607 110.509 217.815 110.509 218.045C110.509 218.27 110.458 218.468 110.356 218.638C110.259 218.808 110.15 218.929 110.031 219.001V219.033C110.171 219.097 110.297 219.216 110.407 219.39C110.518 219.564 110.573 219.775 110.573 220.021C110.573 220.251 110.518 220.461 110.407 220.653C110.301 220.84 110.154 220.988 109.967 221.099C109.785 221.209 109.583 221.265 109.362 221.265H107.385ZM109.298 218.81C109.493 218.81 109.659 218.738 109.795 218.593C109.931 218.449 109.999 218.266 109.999 218.045C109.999 217.824 109.931 217.641 109.795 217.496C109.659 217.352 109.493 217.28 109.298 217.28H107.895V218.81H109.298ZM109.362 220.787C109.557 220.787 109.723 220.714 109.859 220.57C109.995 220.425 110.063 220.242 110.063 220.021C110.063 219.8 109.995 219.618 109.859 219.473C109.723 219.329 109.557 219.256 109.362 219.256H107.895V220.787H109.362ZM112.611 221.328C112.326 221.328 112.067 221.258 111.833 221.118C111.6 220.978 111.415 220.782 111.279 220.531C111.147 220.281 111.081 219.994 111.081 219.671C111.081 219.348 111.147 219.061 111.279 218.81C111.415 218.559 111.6 218.364 111.833 218.223C112.067 218.083 112.326 218.013 112.611 218.013C112.883 218.013 113.132 218.079 113.357 218.211C113.583 218.342 113.759 218.525 113.886 218.759C114.014 218.988 114.078 219.25 114.078 219.543C114.078 219.713 114.067 219.83 114.046 219.894H111.559C111.589 220.191 111.704 220.432 111.903 220.614C112.103 220.793 112.339 220.882 112.611 220.882C112.803 220.882 112.973 220.838 113.121 220.748C113.274 220.659 113.391 220.534 113.472 220.372H113.982C113.872 220.678 113.697 220.914 113.459 221.08C113.225 221.246 112.943 221.328 112.611 221.328ZM113.6 219.448C113.583 219.158 113.481 218.923 113.293 218.74C113.111 218.553 112.883 218.459 112.611 218.459C112.326 218.459 112.088 218.553 111.897 218.74C111.706 218.923 111.593 219.158 111.559 219.448H113.6ZM114.65 221.265V218.077H115.065L115.129 218.427H115.16C115.245 218.321 115.373 218.225 115.543 218.14C115.713 218.055 115.904 218.013 116.117 218.013C116.359 218.013 116.576 218.07 116.767 218.185C116.963 218.296 117.116 218.453 117.226 218.657C117.337 218.861 117.392 219.093 117.392 219.352V221.265H116.914V219.352C116.914 219.186 116.876 219.035 116.799 218.899C116.723 218.763 116.618 218.657 116.487 218.58C116.355 218.5 116.21 218.459 116.053 218.459C115.887 218.459 115.732 218.502 115.588 218.587C115.447 218.668 115.335 218.776 115.25 218.912C115.169 219.048 115.129 219.195 115.129 219.352V221.265H114.65ZM118.637 221.265H118.159V218.077H118.637V221.265ZM118.676 217.407H118.134V216.865H118.676V217.407ZM119.402 221.265V218.077H119.816L119.88 218.427H119.912C119.997 218.321 120.124 218.225 120.294 218.14C120.464 218.055 120.655 218.013 120.868 218.013C121.11 218.013 121.327 218.07 121.518 218.185C121.714 218.296 121.867 218.453 121.977 218.657C122.088 218.861 122.143 219.093 122.143 219.352V221.265H121.665V219.352C121.665 219.186 121.627 219.035 121.55 218.899C121.474 218.763 121.37 218.657 121.238 218.58C121.106 218.5 120.962 218.459 120.804 218.459C120.638 218.459 120.483 218.502 120.339 218.587C120.199 218.668 120.086 218.776 120.001 218.912C119.92 219.048 119.88 219.195 119.88 219.352V221.265H119.402Z" fill="#7E8CA0"/>
<path d="M110.529 234.954C109.936 234.954 109.39 234.808 108.893 234.514C108.402 234.221 108.013 233.813 107.726 233.29C107.439 232.767 107.296 232.174 107.296 231.511C107.296 230.848 107.439 230.255 107.726 229.732C108.013 229.209 108.402 228.801 108.893 228.508C109.39 228.215 109.936 228.068 110.529 228.068C111.07 228.068 111.552 228.186 111.973 228.422C112.4 228.652 112.744 228.954 113.006 229.331C113.273 229.7 113.455 230.099 113.551 230.526H112.288C112.18 230.175 111.969 229.879 111.657 229.637C111.351 229.388 110.975 229.264 110.529 229.264C110.165 229.264 109.83 229.359 109.524 229.551C109.218 229.736 108.976 230 108.797 230.344C108.625 230.682 108.539 231.071 108.539 231.511C108.539 231.951 108.625 232.343 108.797 232.688C108.976 233.026 109.218 233.29 109.524 233.481C109.83 233.666 110.165 233.759 110.529 233.759C110.988 233.759 111.37 233.634 111.676 233.386C111.982 233.131 112.186 232.818 112.288 232.449H113.551C113.462 232.882 113.286 233.29 113.025 233.673C112.763 234.055 112.419 234.365 111.992 234.6C111.571 234.836 111.083 234.954 110.529 234.954ZM115.547 234.859H114.303V228.164H118.722V229.302H115.547V230.976H118.502V232.085H115.547V234.859ZM125.018 234.859H123.67L123.163 233.376H120.303L119.796 234.859H118.448L120.829 228.164H122.637L125.018 234.859ZM121.642 229.484L120.686 232.267H122.78L121.833 229.484H121.642ZM128.155 234.859V230.048H126.787V228.891H127.868C128.059 228.891 128.155 228.789 128.155 228.585V228.164H129.398V234.859H128.155ZM131.169 235.71H130.213L130.452 233.548H131.762L131.169 235.71ZM132.472 234.859V233.778L135.207 231.148C135.36 230.995 135.472 230.855 135.542 230.727C135.612 230.593 135.647 230.424 135.647 230.22C135.647 229.946 135.555 229.72 135.37 229.541C135.185 229.356 134.949 229.264 134.662 229.264C134.369 229.264 134.123 229.369 133.926 229.579C133.734 229.79 133.639 230.058 133.639 230.383H132.395C132.395 229.93 132.491 229.528 132.682 229.178C132.874 228.827 133.141 228.556 133.486 228.365C133.83 228.167 134.222 228.068 134.662 228.068C135.102 228.068 135.491 228.161 135.829 228.346C136.173 228.524 136.438 228.776 136.623 229.101C136.814 229.426 136.91 229.793 136.91 230.201C136.91 230.577 136.827 230.899 136.661 231.167C136.502 231.428 136.253 231.722 135.915 232.047L134.289 233.634V233.682H136.986V234.859H132.472ZM140.292 234.954C139.782 234.954 139.317 234.82 138.896 234.553C138.482 234.278 138.153 233.883 137.911 233.367C137.669 232.844 137.547 232.225 137.547 231.511C137.547 230.797 137.669 230.182 137.911 229.665C138.153 229.143 138.482 228.747 138.896 228.479C139.317 228.205 139.782 228.068 140.292 228.068C140.802 228.068 141.265 228.205 141.679 228.479C142.1 228.747 142.432 229.143 142.674 229.665C142.916 230.182 143.037 230.797 143.037 231.511C143.037 232.225 142.916 232.844 142.674 233.367C142.432 233.883 142.1 234.278 141.679 234.553C141.265 234.82 140.802 234.954 140.292 234.954ZM140.292 233.759C140.567 233.759 140.815 233.676 141.038 233.51C141.268 233.338 141.45 233.083 141.583 232.745C141.724 232.407 141.794 231.996 141.794 231.511C141.794 231.027 141.724 230.615 141.583 230.277C141.45 229.94 141.268 229.688 141.038 229.522C140.815 229.35 140.567 229.264 140.292 229.264C140.025 229.264 139.776 229.35 139.546 229.522C139.317 229.688 139.132 229.94 138.992 230.277C138.858 230.615 138.791 231.027 138.791 231.511C138.791 231.996 138.858 232.407 138.992 232.745C139.132 233.083 139.317 233.338 139.546 233.51C139.776 233.676 140.025 233.759 140.292 233.759ZM146.397 234.954C145.886 234.954 145.421 234.82 145 234.553C144.586 234.278 144.257 233.883 144.015 233.367C143.773 232.844 143.652 232.225 143.652 231.511C143.652 230.797 143.773 230.182 144.015 229.665C144.257 229.143 144.586 228.747 145 228.479C145.421 228.205 145.886 228.068 146.397 228.068C146.907 228.068 147.369 228.205 147.783 228.479C148.204 228.747 148.536 229.143 148.778 229.665C149.02 230.182 149.141 230.797 149.141 231.511C149.141 232.225 149.02 232.844 148.778 233.367C148.536 233.883 148.204 234.278 147.783 234.553C147.369 234.82 146.907 234.954 146.397 234.954ZM146.397 233.759C146.671 233.759 146.919 233.676 147.143 233.51C147.372 233.338 147.554 233.083 147.688 232.745C147.828 232.407 147.898 231.996 147.898 231.511C147.898 231.027 147.828 230.615 147.688 230.277C147.554 229.94 147.372 229.688 147.143 229.522C146.919 229.35 146.671 229.264 146.397 229.264C146.129 229.264 145.88 229.35 145.651 229.522C145.421 229.688 145.236 229.94 145.096 230.277C144.962 230.615 144.895 231.027 144.895 231.511C144.895 231.996 144.962 232.407 145.096 232.745C145.236 233.083 145.421 233.338 145.651 233.51C145.88 233.676 146.129 233.759 146.397 233.759ZM151.19 234.859H149.871V233.548H151.19V234.859ZM154.654 234.954C154.144 234.954 153.679 234.82 153.258 234.553C152.843 234.278 152.515 233.883 152.273 233.367C152.03 232.844 151.909 232.225 151.909 231.511C151.909 230.797 152.03 230.182 152.273 229.665C152.515 229.143 152.843 228.747 153.258 228.479C153.679 228.205 154.144 228.068 154.654 228.068C155.164 228.068 155.626 228.205 156.041 228.479C156.462 228.747 156.793 229.143 157.036 229.665C157.278 230.182 157.399 230.797 157.399 231.511C157.399 232.225 157.278 232.844 157.036 233.367C156.793 233.883 156.462 234.278 156.041 234.553C155.626 234.82 155.164 234.954 154.654 234.954ZM154.654 233.759C154.928 233.759 155.177 233.676 155.4 233.51C155.63 233.338 155.811 233.083 155.945 232.745C156.086 232.407 156.156 231.996 156.156 231.511C156.156 231.027 156.086 230.615 155.945 230.277C155.811 229.94 155.63 229.688 155.4 229.522C155.177 229.35 154.928 229.264 154.654 229.264C154.386 229.264 154.138 229.35 153.908 229.522C153.679 229.688 153.494 229.94 153.353 230.277C153.219 230.615 153.153 231.027 153.153 231.511C153.153 231.996 153.219 232.407 153.353 232.745C153.494 233.083 153.679 233.338 153.908 233.51C154.138 233.676 154.386 233.759 154.654 233.759ZM160.758 234.954C160.248 234.954 159.783 234.82 159.362 234.553C158.947 234.278 158.619 233.883 158.377 233.367C158.135 232.844 158.013 232.225 158.013 231.511C158.013 230.797 158.135 230.182 158.377 229.665C158.619 229.143 158.947 228.747 159.362 228.479C159.783 228.205 160.248 228.068 160.758 228.068C161.268 228.068 161.731 228.205 162.145 228.479C162.566 228.747 162.897 229.143 163.14 229.665C163.382 230.182 163.503 230.797 163.503 231.511C163.503 232.225 163.382 232.844 163.14 233.367C162.897 233.883 162.566 234.278 162.145 234.553C161.731 234.82 161.268 234.954 160.758 234.954ZM160.758 233.759C161.032 233.759 161.281 233.676 161.504 233.51C161.734 233.338 161.916 233.083 162.049 232.745C162.19 232.407 162.26 231.996 162.26 231.511C162.26 231.027 162.19 230.615 162.049 230.277C161.916 229.94 161.734 229.688 161.504 229.522C161.281 229.35 161.032 229.264 160.758 229.264C160.49 229.264 160.242 229.35 160.012 229.522C159.783 229.688 159.598 229.94 159.458 230.277C159.324 230.615 159.257 231.027 159.257 231.511C159.257 231.996 159.324 232.407 159.458 232.745C159.598 233.083 159.783 233.338 160.012 233.51C160.242 233.676 160.49 233.759 160.758 233.759Z" fill="#242C3D"/>
<rect x="100.766" y="164.522" width="82.3578" height="84.8236" rx="1.85969" stroke="#D4B8FE" stroke-width="0.531341"/>
<rect x="190.031" y="164.522" width="82.3578" height="84.8236" rx="1.85969" fill="#FBF5FE"/>
<g clip-path="url(#clip3_1376_4708)">
<path d="M216.364 190.292C216.597 189.462 216.73 188.565 216.73 187.635C216.73 186.705 216.597 185.809 216.364 184.979H206.668L201.055 179.466C199.727 180.396 198.631 181.658 197.867 183.119L202.45 187.635L197.9 192.152C198.631 193.613 199.727 194.875 201.088 195.805L206.668 190.292H216.364Z" fill="#699635"/>
<path d="M197.299 184.48C196.967 185.476 196.801 186.539 196.801 187.635C196.801 188.731 196.967 189.794 197.299 190.79L200.487 187.635L197.299 184.48Z" fill="#3E4347"/>
<path d="M202.215 196.502C203.576 197.199 205.137 197.598 206.764 197.598C210.849 197.598 214.369 195.14 215.897 191.587H207.229L202.215 196.502Z" fill="#428BC1"/>
<path d="M215.897 183.683C214.369 180.13 210.849 177.673 206.764 177.673C205.137 177.673 203.576 178.071 202.215 178.768L207.229 183.683H215.897Z" fill="#ED4C5C"/>
<path d="M216.227 184.547C216.128 184.248 216.028 183.949 215.895 183.683H207.228L202.213 178.769C201.981 178.868 201.781 179.001 201.549 179.134C201.383 179.233 201.217 179.366 201.051 179.466L206.663 184.979H216.36C216.327 184.846 216.294 184.68 216.227 184.547Z" fill="white"/>
<path d="M197.897 183.119C197.863 183.185 197.83 183.252 197.797 183.351C197.631 183.717 197.465 184.082 197.332 184.48L200.52 187.635L197.332 190.79C197.465 191.189 197.598 191.554 197.797 191.919C197.83 191.986 197.863 192.052 197.897 192.152L202.446 187.635L197.897 183.119Z" fill="#FFCE31"/>
<path d="M206.663 190.292L201.051 195.805C201.15 195.871 201.283 195.971 201.383 196.037C201.649 196.203 201.914 196.369 202.213 196.502L207.228 191.587H215.895C216.028 191.255 216.161 190.923 216.294 190.558C216.327 190.458 216.327 190.392 216.36 190.292H206.663" fill="white"/>
</g>
<path d="M198.117 221.328C197.777 221.328 197.48 221.267 197.225 221.144C196.97 221.016 196.772 220.848 196.632 220.64C196.496 220.432 196.428 220.204 196.428 219.958H196.938C196.938 220.119 196.982 220.268 197.072 220.404C197.165 220.54 197.301 220.648 197.48 220.729C197.658 220.81 197.871 220.85 198.117 220.85C198.496 220.85 198.776 220.778 198.959 220.633C199.142 220.485 199.233 220.291 199.233 220.053C199.233 219.862 199.169 219.705 199.042 219.581C198.914 219.454 198.723 219.367 198.468 219.32L197.607 219.161C196.885 219.025 196.523 218.642 196.523 218.013C196.523 217.766 196.585 217.547 196.708 217.356C196.831 217.165 197.008 217.014 197.237 216.903C197.471 216.793 197.743 216.738 198.053 216.738C198.385 216.738 198.676 216.799 198.927 216.923C199.178 217.042 199.371 217.205 199.507 217.414C199.643 217.622 199.711 217.854 199.711 218.109H199.201C199.201 217.947 199.154 217.798 199.061 217.662C198.972 217.526 198.84 217.418 198.666 217.337C198.496 217.256 198.291 217.216 198.053 217.216C197.73 217.216 197.48 217.29 197.301 217.439C197.123 217.588 197.033 217.779 197.033 218.013C197.033 218.191 197.093 218.342 197.212 218.466C197.335 218.589 197.52 218.672 197.767 218.714L198.468 218.842C198.91 218.923 199.233 219.061 199.437 219.256C199.641 219.452 199.743 219.717 199.743 220.053C199.743 220.3 199.679 220.521 199.552 220.716C199.429 220.908 199.244 221.059 198.997 221.169C198.751 221.275 198.457 221.328 198.117 221.328ZM201.721 221.328C201.436 221.328 201.177 221.258 200.943 221.118C200.71 220.978 200.525 220.782 200.389 220.531C200.257 220.281 200.191 219.994 200.191 219.671C200.191 219.348 200.257 219.061 200.389 218.81C200.525 218.559 200.71 218.364 200.943 218.223C201.177 218.083 201.436 218.013 201.721 218.013C202.006 218.013 202.265 218.083 202.499 218.223C202.733 218.364 202.916 218.559 203.047 218.81C203.183 219.061 203.251 219.348 203.251 219.671C203.251 219.994 203.183 220.281 203.047 220.531C202.916 220.782 202.733 220.978 202.499 221.118C202.265 221.258 202.006 221.328 201.721 221.328ZM201.721 220.882C201.912 220.882 202.089 220.833 202.25 220.735C202.412 220.633 202.539 220.491 202.633 220.308C202.726 220.121 202.773 219.909 202.773 219.671C202.773 219.433 202.726 219.222 202.633 219.039C202.539 218.852 202.412 218.71 202.25 218.612C202.089 218.51 201.912 218.459 201.721 218.459C201.53 218.459 201.354 218.51 201.192 218.612C201.03 218.71 200.903 218.852 200.809 219.039C200.716 219.222 200.669 219.433 200.669 219.671C200.669 219.909 200.716 220.121 200.809 220.308C200.903 220.491 201.03 220.633 201.192 220.735C201.354 220.833 201.53 220.882 201.721 220.882ZM205.098 221.328C204.855 221.328 204.637 221.273 204.441 221.163C204.25 221.048 204.099 220.889 203.988 220.684C203.878 220.48 203.823 220.249 203.823 219.989V218.077H204.301V219.989C204.301 220.155 204.339 220.306 204.416 220.442C204.492 220.578 204.596 220.687 204.728 220.767C204.86 220.844 205.004 220.882 205.162 220.882C205.327 220.882 205.48 220.842 205.621 220.761C205.765 220.676 205.878 220.565 205.959 220.429C206.044 220.293 206.086 220.147 206.086 219.989V218.077H206.564V221.265H206.15L206.086 220.914H206.054C205.965 221.025 205.835 221.122 205.665 221.207C205.499 221.288 205.31 221.328 205.098 221.328ZM208.128 221.265C207.954 221.265 207.814 221.216 207.708 221.118C207.606 221.016 207.555 220.884 207.555 220.723V218.523H207.044V218.077H207.555V217.184H208.033V218.077H208.766V218.523H208.033V220.627C208.033 220.755 208.097 220.818 208.224 220.818H208.766V221.265H208.128ZM209.403 221.265V216.801H209.881V218.427H209.913C209.998 218.321 210.125 218.225 210.295 218.14C210.465 218.055 210.657 218.013 210.869 218.013C211.111 218.013 211.328 218.07 211.52 218.185C211.715 218.296 211.868 218.453 211.979 218.657C212.089 218.861 212.144 219.093 212.144 219.352V221.265H211.666V219.352C211.666 219.186 211.628 219.035 211.551 218.899C211.475 218.763 211.371 218.657 211.239 218.58C211.107 218.5 210.963 218.459 210.805 218.459C210.64 218.459 210.484 218.502 210.34 218.587C210.2 218.668 210.087 218.776 210.002 218.912C209.921 219.048 209.881 219.195 209.881 219.352V221.265H209.403ZM217.826 221.265H217.284L216.857 220.117H214.651L214.224 221.265H213.682L215.372 216.801H216.137L217.826 221.265ZM215.69 217.343L214.83 219.639H216.679L215.818 217.343H215.69ZM218.246 221.265V218.523H217.736V218.077H218.246V217.471C218.246 217.309 218.297 217.18 218.399 217.082C218.506 216.98 218.646 216.929 218.82 216.929H219.394V217.375H218.916C218.788 217.375 218.724 217.439 218.724 217.567V218.077H219.394V218.523H218.724V221.265H218.246ZM219.869 221.265V218.077H220.284L220.348 218.395H220.379C220.452 218.285 220.53 218.204 220.615 218.153C220.7 218.102 220.824 218.077 220.985 218.077H221.527V218.523H221.049C220.828 218.523 220.656 218.585 220.533 218.708C220.409 218.827 220.348 218.999 220.348 219.224V221.265H219.869ZM222.387 221.265H221.909V218.077H222.387V221.265ZM222.425 217.407H221.883V216.865H222.425V217.407ZM224.49 221.328C224.205 221.328 223.946 221.258 223.712 221.118C223.478 220.978 223.293 220.782 223.157 220.531C223.026 220.281 222.96 219.994 222.96 219.671C222.96 219.348 223.026 219.061 223.157 218.81C223.293 218.559 223.478 218.364 223.712 218.223C223.946 218.083 224.205 218.013 224.49 218.013C224.843 218.013 225.145 218.111 225.395 218.306C225.646 218.497 225.812 218.761 225.893 219.097H225.415C225.351 218.893 225.236 218.736 225.07 218.625C224.909 218.514 224.715 218.459 224.49 218.459C224.299 218.459 224.122 218.51 223.961 218.612C223.799 218.71 223.672 218.852 223.578 219.039C223.485 219.222 223.438 219.433 223.438 219.671C223.438 219.909 223.485 220.121 223.578 220.308C223.672 220.491 223.799 220.633 223.961 220.735C224.122 220.833 224.299 220.882 224.49 220.882C224.72 220.882 224.915 220.825 225.077 220.71C225.238 220.595 225.351 220.429 225.415 220.213H225.893C225.812 220.561 225.646 220.835 225.395 221.035C225.145 221.231 224.843 221.328 224.49 221.328ZM227.424 221.328C227.093 221.328 226.823 221.237 226.614 221.054C226.41 220.867 226.308 220.629 226.308 220.34C226.308 220.021 226.412 219.773 226.621 219.594C226.833 219.411 227.154 219.32 227.583 219.32H228.444V219.224C228.444 218.986 228.376 218.799 228.24 218.663C228.104 218.527 227.917 218.459 227.679 218.459C227.45 218.459 227.263 218.512 227.118 218.619C226.978 218.721 226.899 218.848 226.882 219.001H226.404C226.417 218.827 226.474 218.665 226.576 218.517C226.678 218.364 226.823 218.242 227.01 218.153C227.201 218.06 227.424 218.013 227.679 218.013C228.066 218.013 228.37 218.121 228.591 218.338C228.812 218.551 228.922 218.846 228.922 219.224V221.265H228.508L228.444 220.882H228.412C228.34 220.997 228.215 221.101 228.036 221.195C227.862 221.284 227.658 221.328 227.424 221.328ZM227.424 220.882C227.743 220.882 227.992 220.795 228.17 220.621C228.353 220.442 228.444 220.2 228.444 219.894V219.766H227.583C227.311 219.766 227.11 219.819 226.978 219.926C226.85 220.032 226.786 220.17 226.786 220.34C226.786 220.502 226.842 220.633 226.952 220.735C227.063 220.833 227.22 220.882 227.424 220.882Z" fill="#7E8CA0"/>
<path d="M199.938 232.525L202.176 234.859H200.626L198.455 232.544H198.092V234.859H196.848V228.164H199.918C200.32 228.164 200.677 228.259 200.99 228.451C201.308 228.636 201.557 228.897 201.736 229.235C201.914 229.567 202.003 229.949 202.003 230.383C202.003 230.784 201.917 231.151 201.745 231.483C201.573 231.808 201.34 232.063 201.047 232.248C200.76 232.433 200.444 232.525 200.1 232.525H199.938ZM198.092 231.406H199.861C200.116 231.406 200.33 231.31 200.502 231.119C200.674 230.928 200.76 230.679 200.76 230.373C200.76 230.067 200.674 229.818 200.502 229.627C200.33 229.429 200.116 229.331 199.861 229.331H198.092V231.406ZM205.181 230.402C205.583 230.402 205.953 230.501 206.291 230.698C206.635 230.89 206.906 231.157 207.104 231.502C207.308 231.84 207.41 232.216 207.41 232.63C207.41 233.057 207.304 233.45 207.094 233.807C206.884 234.157 206.594 234.438 206.224 234.648C205.86 234.852 205.452 234.954 205 234.954C204.547 234.954 204.136 234.852 203.766 234.648C203.402 234.438 203.115 234.157 202.905 233.807C202.695 233.45 202.589 233.057 202.589 232.63C202.589 232.127 202.73 231.648 203.01 231.196L204.98 228.164H206.377L204.933 230.421C205.035 230.408 205.117 230.402 205.181 230.402ZM205 233.797C205.337 233.797 205.615 233.686 205.832 233.462C206.055 233.239 206.166 232.962 206.166 232.63C206.166 232.305 206.055 232.031 205.832 231.808C205.615 231.585 205.337 231.473 205 231.473C204.668 231.473 204.391 231.585 204.167 231.808C203.944 232.031 203.833 232.305 203.833 232.63C203.833 232.962 203.944 233.239 204.167 233.462C204.391 233.686 204.668 233.797 205 233.797ZM210.445 230.402C210.847 230.402 211.216 230.501 211.554 230.698C211.899 230.89 212.17 231.157 212.367 231.502C212.571 231.84 212.673 232.216 212.673 232.63C212.673 233.057 212.568 233.45 212.358 233.807C212.147 234.157 211.857 234.438 211.487 234.648C211.124 234.852 210.716 234.954 210.263 234.954C209.81 234.954 209.399 234.852 209.029 234.648C208.666 234.438 208.379 234.157 208.169 233.807C207.958 233.45 207.853 233.057 207.853 232.63C207.853 232.127 207.993 231.648 208.274 231.196L210.244 228.164H211.64L210.196 230.421C210.298 230.408 210.381 230.402 210.445 230.402ZM210.263 233.797C210.601 233.797 210.878 233.686 211.095 233.462C211.318 233.239 211.43 232.962 211.43 232.63C211.43 232.305 211.318 232.031 211.095 231.808C210.878 231.585 210.601 231.473 210.263 231.473C209.932 231.473 209.654 231.585 209.431 231.808C209.208 232.031 209.096 232.305 209.096 232.63C209.096 232.962 209.208 233.239 209.431 233.462C209.654 233.686 209.932 233.797 210.263 233.797ZM215.948 234.954C215.437 234.954 214.972 234.82 214.551 234.553C214.137 234.278 213.808 233.883 213.566 233.367C213.324 232.844 213.203 232.225 213.203 231.511C213.203 230.797 213.324 230.182 213.566 229.665C213.808 229.143 214.137 228.747 214.551 228.479C214.972 228.205 215.437 228.068 215.948 228.068C216.458 228.068 216.92 228.205 217.334 228.479C217.755 228.747 218.087 229.143 218.329 229.665C218.571 230.182 218.692 230.797 218.692 231.511C218.692 232.225 218.571 232.844 218.329 233.367C218.087 233.883 217.755 234.278 217.334 234.553C216.92 234.82 216.458 234.954 215.948 234.954ZM215.948 233.759C216.222 233.759 216.47 233.676 216.694 233.51C216.923 233.338 217.105 233.083 217.239 232.745C217.379 232.407 217.449 231.996 217.449 231.511C217.449 231.027 217.379 230.615 217.239 230.277C217.105 229.94 216.923 229.688 216.694 229.522C216.47 229.35 216.222 229.264 215.948 229.264C215.68 229.264 215.431 229.35 215.202 229.522C214.972 229.688 214.787 229.94 214.647 230.277C214.513 230.615 214.446 231.027 214.446 231.511C214.446 231.996 214.513 232.407 214.647 232.745C214.787 233.083 214.972 233.338 215.202 233.51C215.431 233.676 215.68 233.759 215.948 233.759ZM220.741 234.859H219.422V233.548H220.741V234.859ZM224.205 234.954C223.695 234.954 223.23 234.82 222.809 234.553C222.394 234.278 222.066 233.883 221.824 233.367C221.581 232.844 221.46 232.225 221.46 231.511C221.46 230.797 221.581 230.182 221.824 229.665C222.066 229.143 222.394 228.747 222.809 228.479C223.23 228.205 223.695 228.068 224.205 228.068C224.715 228.068 225.177 228.205 225.592 228.479C226.013 228.747 226.344 229.143 226.587 229.665C226.829 230.182 226.95 230.797 226.95 231.511C226.95 232.225 226.829 232.844 226.587 233.367C226.344 233.883 226.013 234.278 225.592 234.553C225.177 234.82 224.715 234.954 224.205 234.954ZM224.205 233.759C224.479 233.759 224.728 233.676 224.951 233.51C225.181 233.338 225.362 233.083 225.496 232.745C225.637 232.407 225.707 231.996 225.707 231.511C225.707 231.027 225.637 230.615 225.496 230.277C225.362 229.94 225.181 229.688 224.951 229.522C224.728 229.35 224.479 229.264 224.205 229.264C223.937 229.264 223.689 229.35 223.459 229.522C223.23 229.688 223.045 229.94 222.904 230.277C222.77 230.615 222.704 231.027 222.704 231.511C222.704 231.996 222.77 232.407 222.904 232.745C223.045 233.083 223.23 233.338 223.459 233.51C223.689 233.676 223.937 233.759 224.205 233.759ZM230.309 234.954C229.799 234.954 229.334 234.82 228.913 234.553C228.498 234.278 228.17 233.883 227.928 233.367C227.686 232.844 227.564 232.225 227.564 231.511C227.564 230.797 227.686 230.182 227.928 229.665C228.17 229.143 228.498 228.747 228.913 228.479C229.334 228.205 229.799 228.068 230.309 228.068C230.819 228.068 231.282 228.205 231.696 228.479C232.117 228.747 232.448 229.143 232.691 229.665C232.933 230.182 233.054 230.797 233.054 231.511C233.054 232.225 232.933 232.844 232.691 233.367C232.448 233.883 232.117 234.278 231.696 234.553C231.282 234.82 230.819 234.954 230.309 234.954ZM230.309 233.759C230.583 233.759 230.832 233.676 231.055 233.51C231.285 233.338 231.467 233.083 231.6 232.745C231.741 232.407 231.811 231.996 231.811 231.511C231.811 231.027 231.741 230.615 231.6 230.277C231.467 229.94 231.285 229.688 231.055 229.522C230.832 229.35 230.583 229.264 230.309 229.264C230.042 229.264 229.793 229.35 229.563 229.522C229.334 229.688 229.149 229.94 229.009 230.277C228.875 230.615 228.808 231.027 228.808 231.511C228.808 231.996 228.875 232.407 229.009 232.745C229.149 233.083 229.334 233.338 229.563 233.51C229.793 233.676 230.042 233.759 230.309 233.759Z" fill="#242C3D"/>
<rect x="190.031" y="164.522" width="82.3578" height="84.8236" rx="1.85969" stroke="#D4B8FE" stroke-width="0.531341"/>
<mask id="path-24-inside-1_1376_4708" fill="white">
<path d="M279.031 166.381C279.031 165.208 279.983 164.256 281.157 164.256H299.031V249.611H281.157C279.983 249.611 279.031 248.659 279.031 247.486V166.381Z"/>
</mask>
<path d="M279.031 166.381C279.031 165.208 279.983 164.256 281.157 164.256H299.031V249.611H281.157C279.983 249.611 279.031 248.659 279.031 247.486V166.381Z" fill="#FBF5FE"/>
<g clip-path="url(#clip4_1376_4708)">
<path d="M284.22 177.573C283.315 177.573 282.447 177.933 281.808 178.573C281.168 179.212 280.809 180.08 280.809 180.985V196.334C280.809 197.239 281.168 198.107 281.808 198.746C282.447 199.386 283.315 199.745 284.22 199.745H296.158V177.573H284.22Z" fill="#006233"/>
<path d="M297.338 192.202C295.381 192.202 293.796 190.616 293.796 188.659C293.796 186.703 295.381 185.117 297.338 185.117C298.112 185.117 298.826 185.368 299.409 185.789C299.002 185.327 298.502 184.956 297.942 184.703C297.381 184.449 296.773 184.318 296.157 184.318C295.006 184.318 293.902 184.776 293.088 185.59C292.274 186.404 291.816 187.508 291.816 188.659C291.816 189.229 291.929 189.794 292.147 190.321C292.365 190.847 292.685 191.326 293.088 191.729C293.491 192.132 293.969 192.452 294.496 192.67C295.023 192.889 295.587 193.001 296.157 193.001C297.453 193.001 298.613 192.43 299.409 191.53C298.807 191.967 298.082 192.202 297.338 192.202V192.202Z" fill="#D20F34"/>
<path d="M299.026 189.127L298.896 190.598L298.136 189.332L296.695 189.663L297.666 188.548L296.906 187.281L298.266 187.859L299.236 186.744L299.106 188.216L299.026 189.127Z" fill="#D20F34"/>
</g>
<path d="M289.551 221.265H289.009L288.582 220.117H286.375L285.948 221.265H285.406L287.096 216.801H287.861L289.551 221.265ZM287.415 217.343L286.554 219.639H288.403L287.542 217.343H287.415ZM290.382 221.265H289.904V216.801H290.382V221.265ZM292.547 222.604C292.263 222.604 292.014 222.553 291.801 222.451C291.589 222.349 291.423 222.215 291.304 222.049C291.189 221.883 291.126 221.707 291.113 221.52H291.591C291.608 221.694 291.699 221.843 291.865 221.966C292.035 222.094 292.263 222.157 292.547 222.157C292.837 222.157 293.068 222.077 293.242 221.915C293.417 221.754 293.504 221.537 293.504 221.265V220.691H293.472C293.344 220.835 293.194 220.946 293.019 221.022C292.845 221.099 292.656 221.137 292.452 221.137C292.176 221.137 291.925 221.071 291.699 220.94C291.478 220.808 291.304 220.623 291.177 220.385C291.049 220.147 290.985 219.877 290.985 219.575C290.985 219.273 291.049 219.003 291.177 218.765C291.304 218.527 291.478 218.342 291.699 218.211C291.925 218.079 292.176 218.013 292.452 218.013C292.656 218.013 292.847 218.058 293.026 218.147C293.208 218.232 293.357 218.347 293.472 218.491H293.504L293.568 218.077H293.982V221.265C293.982 221.528 293.925 221.76 293.81 221.96C293.695 222.164 293.529 222.321 293.313 222.432C293.096 222.546 292.841 222.604 292.547 222.604ZM292.484 220.691C292.675 220.691 292.847 220.644 293 220.551C293.157 220.457 293.281 220.325 293.37 220.155C293.459 219.985 293.504 219.792 293.504 219.575C293.504 219.358 293.459 219.165 293.37 218.995C293.281 218.825 293.157 218.693 293 218.6C292.847 218.506 292.675 218.459 292.484 218.459C292.292 218.459 292.118 218.506 291.961 218.6C291.808 218.693 291.687 218.825 291.597 218.995C291.508 219.165 291.464 219.358 291.464 219.575C291.464 219.792 291.508 219.985 291.597 220.155C291.687 220.325 291.808 220.457 291.961 220.551C292.118 220.644 292.292 220.691 292.484 220.691ZM296.087 221.328C295.802 221.328 295.543 221.258 295.309 221.118C295.075 220.978 294.89 220.782 294.754 220.531C294.622 220.281 294.556 219.994 294.556 219.671C294.556 219.348 294.622 219.061 294.754 218.81C294.89 218.559 295.075 218.364 295.309 218.223C295.543 218.083 295.802 218.013 296.087 218.013C296.359 218.013 296.607 218.079 296.833 218.211C297.058 218.342 297.234 218.525 297.362 218.759C297.489 218.988 297.553 219.25 297.553 219.543C297.553 219.713 297.543 219.83 297.521 219.894H295.035C295.064 220.191 295.179 220.432 295.379 220.614C295.579 220.793 295.815 220.882 296.087 220.882C296.278 220.882 296.448 220.838 296.597 220.748C296.75 220.659 296.867 220.534 296.947 220.372H297.458C297.347 220.678 297.173 220.914 296.935 221.08C296.701 221.246 296.418 221.328 296.087 221.328ZM297.075 219.448C297.058 219.158 296.956 218.923 296.769 218.74C296.586 218.553 296.359 218.459 296.087 218.459C295.802 218.459 295.564 218.553 295.373 218.74C295.181 218.923 295.069 219.158 295.035 219.448H297.075Z" fill="#7E8CA0"/>
<path d="M289.222 236.026C289.025 236.026 288.856 235.959 288.715 235.825C288.582 235.691 288.515 235.525 288.515 235.327C288.515 235.13 288.582 234.961 288.715 234.82C288.856 234.68 289.025 234.61 289.222 234.61C289.414 234.61 289.576 234.68 289.71 234.82C289.85 234.961 289.921 235.13 289.921 235.327C289.921 235.525 289.85 235.691 289.71 235.825C289.576 235.959 289.414 236.026 289.222 236.026ZM289.012 238.627C288.527 238.627 288.075 238.566 287.654 238.445C287.233 238.324 286.866 238.142 286.554 237.9C286.242 237.658 285.996 237.358 285.818 237.001C285.645 236.644 285.559 236.233 285.559 235.767C285.559 235.334 285.626 234.932 285.76 234.562C285.9 234.192 286.092 233.858 286.334 233.558C286.583 233.258 286.876 232.991 287.214 232.755C287.552 232.519 287.922 232.318 288.323 232.152C288.731 231.986 289.159 231.856 289.605 231.76L289.624 231.932C289.471 231.887 289.302 231.836 289.117 231.779C288.932 231.722 288.731 231.667 288.515 231.616C288.304 231.565 288.078 231.524 287.836 231.492C287.6 231.454 287.351 231.435 287.09 231.435C286.86 231.435 286.643 231.451 286.439 231.483C286.242 231.508 286.066 231.54 285.913 231.578L285.712 230.277C285.897 230.22 286.095 230.172 286.305 230.134C286.522 230.096 286.745 230.077 286.975 230.077C287.319 230.077 287.638 230.109 287.931 230.172C288.224 230.23 288.499 230.303 288.754 230.392C289.015 230.482 289.264 230.574 289.5 230.67C289.742 230.759 289.978 230.835 290.207 230.899C290.437 230.957 290.673 230.985 290.915 230.985H291.298L291.422 232.42C291.18 232.42 290.899 232.452 290.58 232.515C290.268 232.579 289.943 232.672 289.605 232.793C289.267 232.914 288.935 233.064 288.61 233.242C288.291 233.421 288.001 233.628 287.74 233.864C287.485 234.1 287.281 234.361 287.128 234.648C286.975 234.935 286.898 235.248 286.898 235.586C286.898 235.892 286.956 236.153 287.07 236.37C287.185 236.587 287.345 236.762 287.549 236.896C287.753 237.03 287.989 237.129 288.256 237.192C288.531 237.256 288.824 237.288 289.136 237.288C289.487 237.288 289.841 237.25 290.198 237.173C290.561 237.097 290.925 236.988 291.288 236.848L291.68 238.015C291.215 238.232 290.753 238.388 290.294 238.484C289.834 238.579 289.407 238.627 289.012 238.627ZM292.041 234.476L292.51 233.261C292.746 233.364 292.972 233.44 293.189 233.491C293.406 233.542 293.623 233.568 293.839 233.568C294.063 233.568 294.247 233.548 294.394 233.51C294.547 233.466 294.662 233.402 294.738 233.319C294.815 233.236 294.853 233.137 294.853 233.022C294.853 232.914 294.818 232.764 294.748 232.573C294.684 232.382 294.566 232.133 294.394 231.827C294.222 231.514 293.97 231.129 293.639 230.67L294.777 229.914C295.083 230.348 295.347 230.772 295.57 231.186C295.794 231.594 295.966 231.977 296.087 232.334C296.214 232.684 296.278 232.994 296.278 233.261C296.278 233.593 296.189 233.883 296.01 234.132C295.838 234.374 295.58 234.565 295.236 234.706C294.898 234.846 294.48 234.916 293.983 234.916C293.798 234.916 293.591 234.9 293.361 234.868C293.132 234.836 292.899 234.789 292.663 234.725C292.433 234.661 292.226 234.578 292.041 234.476Z" fill="#242C3D"/>
<path d="M278.5 166.381C278.5 164.914 279.689 163.725 281.157 163.725H299.031V164.787H281.157C280.276 164.787 279.563 165.501 279.563 166.381L278.5 166.381ZM299.031 250.142H281.157C279.689 250.142 278.5 248.953 278.5 247.486L279.563 247.486C279.563 248.366 280.276 249.08 281.157 249.08H299.031V250.142ZM281.157 250.142C279.689 250.142 278.5 248.953 278.5 247.486V166.381C278.5 164.914 279.689 163.725 281.157 163.725L281.157 164.787C280.276 164.787 279.563 165.501 279.563 166.381V247.486C279.563 248.366 280.276 249.08 281.157 249.08L281.157 250.142ZM299.031 164.256V249.611V164.256Z" fill="#D4B8FE" mask="url(#path-24-inside-1_1376_4708)"/>
<rect x="100.5" y="260.428" width="190.22" height="54.0984" rx="2.12536" fill="#FBF5FE"/>
<g clip-path="url(#clip5_1376_4708)">
<path d="M121.75 275.044C114.889 275.044 109.316 280.617 109.316 287.477C109.316 294.338 114.889 299.911 121.75 299.911C128.61 299.911 134.183 294.338 134.183 287.477C134.183 280.617 128.61 275.044 121.75 275.044ZM122.706 293.65C122.706 294.172 122.273 294.606 121.75 294.606C121.227 294.606 120.793 294.172 120.793 293.65V292.578C120.793 292.055 121.227 291.622 121.75 291.622C122.273 291.622 122.706 292.055 122.706 292.578V293.65ZM123.828 286.483C123.408 286.789 122.706 287.439 122.706 288.421V288.753C122.706 289.276 122.273 289.709 121.75 289.709C121.227 289.709 120.793 289.276 120.793 288.753V288.421C120.793 287.095 121.482 285.82 122.693 284.94C123.102 284.634 123.344 284.162 123.344 283.652C123.344 282.772 122.63 282.058 121.75 282.058C120.87 282.058 120.156 282.772 120.156 283.652C120.156 284.175 119.722 284.608 119.199 284.608C118.677 284.608 118.243 284.175 118.243 283.652C118.243 281.713 119.811 280.145 121.75 280.145C123.688 280.145 125.257 281.713 125.257 283.652C125.257 284.761 124.721 285.82 123.828 286.483V286.483Z" fill="#242C3D"/>
</g>
<path d="M144.963 282.181H143.603V276.23H147.641V277.462H144.963V278.652H147.429V279.843H144.963V282.181ZM149.509 282.181H148.225V277.845H149.509V282.181ZM149.543 277.216H148.2V276.102H149.543V277.216ZM150.268 282.181V277.845H151.373L151.458 278.227H151.5C151.602 278.108 151.755 278.001 151.959 277.904C152.169 277.808 152.421 277.76 152.716 277.76C153.045 277.76 153.337 277.836 153.592 277.989C153.852 278.137 154.054 278.349 154.195 278.627C154.343 278.899 154.416 279.216 154.416 279.579V282.181H153.133V279.792C153.133 279.554 153.059 279.361 152.912 279.214C152.77 279.061 152.58 278.984 152.342 278.984C152.104 278.984 151.911 279.061 151.764 279.214C151.622 279.361 151.551 279.554 151.551 279.792V282.181H150.268ZM156.408 282.181H155.124V277.845H156.408V282.181ZM156.442 277.216H155.099V276.102H156.442V277.216ZM158.842 282.266C158.371 282.266 157.989 282.186 157.694 282.028C157.399 281.863 157.187 281.67 157.056 281.449C156.932 281.228 156.869 281.022 156.869 280.829H158.119C158.119 280.948 158.178 281.056 158.297 281.152C158.422 281.243 158.603 281.288 158.842 281.288C159.074 281.288 159.244 281.254 159.352 281.186C159.465 281.112 159.522 281.024 159.522 280.922C159.522 280.815 159.485 280.73 159.411 280.667C159.337 280.605 159.207 280.56 159.02 280.531L158.374 280.429C157.382 280.276 156.886 279.845 156.886 279.137C156.886 278.888 156.96 278.658 157.107 278.448C157.255 278.239 157.473 278.072 157.762 277.947C158.051 277.822 158.397 277.76 158.799 277.76C159.207 277.76 159.556 277.833 159.845 277.981C160.134 278.123 160.352 278.304 160.499 278.525C160.647 278.74 160.72 278.953 160.72 279.163H159.479C159.479 279.049 159.417 278.95 159.292 278.865C159.173 278.78 159.009 278.737 158.799 278.737C158.595 278.737 158.436 278.777 158.323 278.856C158.215 278.93 158.161 279.018 158.161 279.12C158.161 279.284 158.326 279.392 158.654 279.443L159.335 279.545C160.304 279.687 160.788 280.14 160.788 280.905C160.788 281.155 160.715 281.384 160.567 281.594C160.426 281.798 160.207 281.962 159.913 282.087C159.624 282.206 159.267 282.266 158.842 282.266ZM161.327 282.181V276.23H162.611V278.227H162.653C162.738 278.108 162.883 278.001 163.087 277.904C163.291 277.808 163.52 277.76 163.776 277.76C164.104 277.76 164.396 277.836 164.651 277.989C164.912 278.137 165.113 278.349 165.255 278.627C165.402 278.899 165.476 279.216 165.476 279.579V282.181H164.192V279.792C164.192 279.554 164.118 279.361 163.971 279.214C163.829 279.061 163.64 278.984 163.401 278.984C163.163 278.984 162.971 279.061 162.823 279.214C162.682 279.361 162.611 279.554 162.611 279.792V282.181H161.327ZM169.662 282.181H168.302V276.23H169.662V278.78L171.405 276.23H173.063L171.022 279.163L173.233 282.181H171.575L169.662 279.503V282.181ZM176.197 282.181H174.836V280.268L172.669 276.23H174.199L175.432 278.61H175.602L176.834 276.23H178.365L176.197 280.268V282.181ZM181.033 282.266C180.5 282.266 180.013 282.135 179.571 281.874C179.129 281.608 178.78 281.243 178.525 280.778C178.27 280.313 178.142 279.789 178.142 279.205C178.142 278.621 178.27 278.097 178.525 277.632C178.78 277.168 179.129 276.805 179.571 276.544C180.013 276.278 180.5 276.145 181.033 276.145C181.554 276.145 182.008 276.261 182.393 276.493C182.784 276.725 183.09 277.017 183.311 277.369C183.538 277.72 183.685 278.077 183.753 278.44H182.393C182.325 278.191 182.172 277.967 181.934 277.768C181.702 277.564 181.401 277.462 181.033 277.462C180.75 277.462 180.492 277.536 180.259 277.683C180.027 277.825 179.843 278.029 179.707 278.295C179.571 278.556 179.503 278.859 179.503 279.205C179.503 279.551 179.571 279.857 179.707 280.123C179.843 280.384 180.027 280.588 180.259 280.735C180.492 280.877 180.75 280.948 181.033 280.948C181.418 280.948 181.727 280.843 181.96 280.633C182.192 280.424 182.336 280.188 182.393 279.928H183.753C183.697 280.296 183.558 280.659 183.337 281.016C183.116 281.373 182.81 281.67 182.419 281.908C182.028 282.147 181.566 282.266 181.033 282.266Z" fill="#242C3D"/>
<rect x="100.5" y="31.6862" width="190.22" height="101.486" rx="2.12536" fill="#FCF7FF"/>
<mask id="mask0_1376_4708" style="mask-type:alpha" maskUnits="userSpaceOnUse" x="109" y="39" width="22" height="23">
<circle cx="119.627" cy="50.613" r="10.6268" fill="#D9D9D9"/>
</mask>
<g mask="url(#mask0_1376_4708)">
<rect x="103.938" y="38.9744" width="31.8805" height="22.2657" rx="1.85969" fill="#207801"/>
<rect x="115.578" y="38.4678" width="8.60266" height="24.7959" fill="#F8F8F8"/>
</g>
<circle cx="119.627" cy="50.6129" r="10.4789" stroke="#F5F6FA" stroke-width="0.29586"/>
<path d="M134.989 54.1129H134.096V48.1619H135.405L137.828 52.8122H137.998V48.1619H138.891V54.1129H137.582L135.159 49.4626H134.989V54.1129ZM142.995 51.0269H145.512V54.1129H144.806L144.721 53.3393H144.678C144.497 53.566 144.239 53.7672 143.905 53.9429C143.576 54.1129 143.21 54.1979 142.808 54.1979C142.281 54.1979 141.799 54.0676 141.363 53.8069C140.926 53.5462 140.581 53.1834 140.326 52.7187C140.071 52.2539 139.943 51.7268 139.943 51.1374C139.943 50.5423 140.071 50.0124 140.326 49.5476C140.581 49.0829 140.926 48.723 141.363 48.4679C141.799 48.2072 142.281 48.0769 142.808 48.0769C143.233 48.0769 143.627 48.1647 143.99 48.3404C144.353 48.5105 144.659 48.7428 144.908 49.0375C145.163 49.3323 145.347 49.661 145.461 50.0237H144.534C144.387 49.695 144.154 49.4314 143.837 49.2331C143.525 49.029 143.182 48.927 142.808 48.927C142.445 48.927 142.114 49.0205 141.813 49.2076C141.513 49.3889 141.275 49.6497 141.099 49.9897C140.924 50.3241 140.836 50.7067 140.836 51.1374C140.836 51.5681 140.924 51.9535 141.099 52.2936C141.275 52.628 141.513 52.8887 141.813 53.0757C142.114 53.2571 142.445 53.3478 142.808 53.3478C143.131 53.3478 143.429 53.2741 143.701 53.1267C143.973 52.9737 144.188 52.7782 144.347 52.5401C144.511 52.2964 144.599 52.0471 144.61 51.792L144.619 51.724H142.995V51.0269ZM147.608 54.1129H146.715V48.1619H148.025L150.448 52.8122H150.618V48.1619H151.51V54.1129H150.201L147.778 49.4626H147.608V54.1129Z" fill="black"/>
<g clip-path="url(#clip6_1376_4708)">
<circle cx="161.212" cy="50.613" r="5.57908" fill="#F7EEFC"/>
<path d="M158.82 49.5505L161.477 52.2072L164.134 49.5505" stroke="#8908D9" stroke-width="0.531341" stroke-linecap="round"/>
</g>
<path d="M244.33 52.6129H243.45L242.334 48.1497H242.876L243.832 52.0709H243.96L244.98 48.1497H245.745L246.765 52.0709H246.893L247.849 48.1497H248.391L247.275 52.6129H246.395L245.426 48.8829H245.299L244.33 52.6129ZM250.087 52.6767C249.845 52.6767 249.626 52.6214 249.43 52.5109C249.239 52.3961 249.088 52.2367 248.977 52.0327C248.867 51.8287 248.812 51.597 248.812 51.3377V49.4249H249.29V51.3377C249.29 51.5035 249.328 51.6544 249.405 51.7904C249.481 51.9264 249.585 52.0348 249.717 52.1156C249.849 52.1921 249.993 52.2303 250.151 52.2303C250.316 52.2303 250.469 52.19 250.61 52.1092C250.754 52.0242 250.867 51.9137 250.948 51.7776C251.033 51.6416 251.075 51.495 251.075 51.3377V49.4249H251.553V52.6129H251.139L251.075 52.2622H251.043C250.954 52.3727 250.824 52.4705 250.654 52.5555C250.489 52.6363 250.299 52.6767 250.087 52.6767ZM252.448 52.6129V49.4249H252.862L252.926 49.7437H252.958C253.03 49.6332 253.109 49.5524 253.194 49.5014C253.279 49.4504 253.402 49.4249 253.564 49.4249H254.106V49.8712H253.628C253.407 49.8712 253.234 49.9328 253.111 50.0561C252.988 50.1751 252.926 50.3473 252.926 50.5726V52.6129H252.448ZM255.093 52.6129H254.615V49.4249H255.093V52.6129ZM255.131 48.7554H254.589V48.2134H255.131V48.7554ZM257.518 52.6129V48.1497H259.431C259.652 48.1497 259.854 48.2049 260.037 48.3154C260.224 48.4259 260.37 48.5768 260.476 48.7681C260.587 48.9552 260.642 49.1634 260.642 49.393C260.642 49.6183 260.591 49.8159 260.489 49.986C260.391 50.156 260.283 50.2771 260.164 50.3494V50.3813C260.304 50.445 260.43 50.5641 260.54 50.7383C260.651 50.9126 260.706 51.123 260.706 51.3696C260.706 51.5991 260.651 51.8095 260.54 52.0008C260.434 52.1878 260.287 52.3366 260.1 52.4471C259.918 52.5577 259.716 52.6129 259.495 52.6129H257.518ZM259.431 50.1581C259.626 50.1581 259.792 50.0859 259.928 49.9413C260.064 49.7968 260.132 49.614 260.132 49.393C260.132 49.172 260.064 48.9892 259.928 48.8446C259.792 48.7001 259.626 48.6279 259.431 48.6279H258.028V50.1581H259.431ZM259.495 52.1347C259.69 52.1347 259.856 52.0624 259.992 51.9179C260.128 51.7734 260.196 51.5906 260.196 51.3696C260.196 51.1485 260.128 50.9658 259.992 50.8212C259.856 50.6767 259.69 50.6044 259.495 50.6044H258.028V52.1347H259.495ZM262.521 52.6767C262.189 52.6767 261.919 52.5853 261.711 52.4025C261.507 52.2155 261.405 51.9774 261.405 51.6884C261.405 51.3696 261.509 51.1209 261.718 50.9424C261.93 50.7596 262.251 50.6682 262.68 50.6682H263.541V50.5726C263.541 50.3345 263.473 50.1475 263.337 50.0115C263.201 49.8754 263.014 49.8074 262.776 49.8074C262.546 49.8074 262.359 49.8606 262.215 49.9668C262.075 50.0689 261.996 50.1964 261.979 50.3494H261.501C261.514 50.1751 261.571 50.0136 261.673 49.8648C261.775 49.7118 261.919 49.5906 262.107 49.5014C262.298 49.4079 262.521 49.3611 262.776 49.3611C263.163 49.3611 263.467 49.4695 263.688 49.6863C263.909 49.8988 264.019 50.1943 264.019 50.5726V52.6129H263.605L263.541 52.2303H263.509C263.437 52.3451 263.312 52.4493 263.133 52.5428C262.959 52.632 262.755 52.6767 262.521 52.6767ZM262.521 52.2303C262.84 52.2303 263.088 52.1432 263.267 51.9689C263.45 51.7904 263.541 51.5481 263.541 51.2421V51.1145H262.68C262.408 51.1145 262.206 51.1677 262.075 51.2739C261.947 51.3802 261.883 51.5184 261.883 51.6884C261.883 51.8499 261.939 51.9817 262.049 52.0837C262.16 52.1815 262.317 52.2303 262.521 52.2303ZM265.424 52.6129H264.946V48.1497H265.424V52.6129ZM267.334 52.6767C267.003 52.6767 266.733 52.5853 266.524 52.4025C266.32 52.2155 266.218 51.9774 266.218 51.6884C266.218 51.3696 266.323 51.1209 266.531 50.9424C266.743 50.7596 267.064 50.6682 267.494 50.6682H268.354V50.5726C268.354 50.3345 268.286 50.1475 268.15 50.0115C268.014 49.8754 267.827 49.8074 267.589 49.8074C267.36 49.8074 267.173 49.8606 267.028 49.9668C266.888 50.0689 266.809 50.1964 266.792 50.3494H266.314C266.327 50.1751 266.384 50.0136 266.486 49.8648C266.588 49.7118 266.733 49.5906 266.92 49.5014C267.111 49.4079 267.334 49.3611 267.589 49.3611C267.976 49.3611 268.28 49.4695 268.501 49.6863C268.722 49.8988 268.833 50.1943 268.833 50.5726V52.6129H268.418L268.354 52.2303H268.322C268.25 52.3451 268.125 52.4493 267.946 52.5428C267.772 52.632 267.568 52.6767 267.334 52.6767ZM267.334 52.2303C267.653 52.2303 267.902 52.1432 268.08 51.9689C268.263 51.7904 268.354 51.5481 268.354 51.2421V51.1145H267.494C267.222 51.1145 267.02 51.1677 266.888 51.2739C266.76 51.3802 266.697 51.5184 266.697 51.6884C266.697 51.8499 266.752 51.9817 266.862 52.0837C266.973 52.1815 267.13 52.2303 267.334 52.2303ZM269.727 52.6129V49.4249H270.141L270.205 49.7756H270.237C270.322 49.6693 270.45 49.5736 270.62 49.4886C270.79 49.4036 270.981 49.3611 271.193 49.3611C271.436 49.3611 271.653 49.4185 271.844 49.5333C272.039 49.6438 272.192 49.8011 272.303 50.0051C272.413 50.2091 272.469 50.4408 272.469 50.7001V52.6129H271.99V50.7001C271.99 50.5343 271.952 50.3834 271.876 50.2474C271.799 50.1114 271.695 50.0051 271.563 49.9286C271.431 49.8478 271.287 49.8074 271.13 49.8074C270.964 49.8074 270.809 49.8499 270.664 49.935C270.524 50.0157 270.411 50.1241 270.326 50.2601C270.246 50.3962 270.205 50.5428 270.205 50.7001V52.6129H269.727ZM274.702 52.6767C274.418 52.6767 274.158 52.6065 273.924 52.4663C273.691 52.326 273.506 52.1305 273.37 51.8797C273.238 51.6289 273.172 51.3419 273.172 51.0189C273.172 50.6958 273.238 50.4089 273.37 50.1581C273.506 49.9073 273.691 49.7118 273.924 49.5715C274.158 49.4312 274.418 49.3611 274.702 49.3611C275.055 49.3611 275.357 49.4589 275.608 49.6544C275.858 49.8457 276.024 50.1092 276.105 50.445H275.627C275.563 50.241 275.448 50.0837 275.283 49.9732C275.121 49.8627 274.928 49.8074 274.702 49.8074C274.511 49.8074 274.335 49.8584 274.173 49.9605C274.012 50.0582 273.884 50.2006 273.791 50.3877C273.697 50.5704 273.65 50.7809 273.65 51.0189C273.65 51.2569 273.697 51.4695 273.791 51.6565C273.884 51.8393 274.012 51.9817 274.173 52.0837C274.335 52.1815 274.511 52.2303 274.702 52.2303C274.932 52.2303 275.127 52.173 275.289 52.0582C275.45 51.9434 275.563 51.7776 275.627 51.5609H276.105C276.024 51.9094 275.858 52.1836 275.608 52.3834C275.357 52.5789 275.055 52.6767 274.702 52.6767ZM278.115 52.6767C277.83 52.6767 277.57 52.6065 277.337 52.4663C277.103 52.326 276.918 52.1305 276.782 51.8797C276.65 51.6289 276.584 51.3419 276.584 51.0189C276.584 50.6958 276.65 50.4089 276.782 50.1581C276.918 49.9073 277.103 49.7118 277.337 49.5715C277.57 49.4312 277.83 49.3611 278.115 49.3611C278.387 49.3611 278.635 49.427 278.861 49.5588C279.086 49.6905 279.262 49.8733 279.39 50.1071C279.517 50.3367 279.581 50.5981 279.581 50.8914C279.581 51.0614 279.57 51.1783 279.549 51.2421H277.062C277.092 51.5396 277.207 51.7798 277.407 51.9626C277.607 52.1411 277.842 52.2303 278.115 52.2303C278.306 52.2303 278.476 52.1857 278.625 52.0965C278.778 52.0072 278.895 51.8818 278.975 51.7203H279.485C279.375 52.0263 279.201 52.2622 278.963 52.428C278.729 52.5938 278.446 52.6767 278.115 52.6767ZM279.103 50.7957C279.086 50.5067 278.984 50.2708 278.797 50.088C278.614 49.901 278.387 49.8074 278.115 49.8074C277.83 49.8074 277.592 49.901 277.4 50.088C277.209 50.2708 277.096 50.5067 277.062 50.7957H279.103Z" fill="#BB88FF"/>
<rect x="240.379" y="45.8159" width="41.7194" height="9.59402" rx="0.797011" stroke="#BB88FF" stroke-width="0.531341"/>
<path d="M112.035 84.7412H110.101V74.3269H112.66L116.469 81.602H116.766V74.3269H118.7V84.7412H116.126L112.333 77.4661H112.035V84.7412ZM120.037 84.7412V83.06L124.292 78.9687C124.53 78.7307 124.704 78.5125 124.813 78.3141C124.922 78.1058 124.977 77.843 124.977 77.5256C124.977 77.0991 124.833 76.747 124.545 76.4693C124.257 76.1817 123.891 76.0378 123.444 76.0378C122.988 76.0378 122.606 76.2015 122.299 76.5288C122.001 76.8561 121.852 77.2727 121.852 77.7785H119.918C119.918 77.0743 120.067 76.4495 120.365 75.9039C120.662 75.3584 121.079 74.9369 121.614 74.6394C122.15 74.3319 122.76 74.1782 123.444 74.1782C124.129 74.1782 124.734 74.322 125.259 74.6096C125.795 74.8873 126.206 75.2791 126.494 75.7849C126.792 76.2908 126.94 76.8611 126.94 77.4958C126.94 78.081 126.811 78.5819 126.554 78.9985C126.306 79.4051 125.919 79.8614 125.393 80.3672L122.864 82.8369V82.9113H127.059V84.7412H120.037ZM129.198 86.0653H127.71L128.082 82.703H130.12L129.198 86.0653ZM135.287 84.89C134.493 84.89 133.769 84.6817 133.115 84.2651C132.47 83.8386 131.959 83.2237 131.582 82.4203C131.205 81.607 131.017 80.6449 131.017 79.5341C131.017 78.4232 131.205 77.4661 131.582 76.6627C131.959 75.8494 132.47 75.2345 133.115 74.8179C133.769 74.3914 134.493 74.1782 135.287 74.1782C136.08 74.1782 136.799 74.3914 137.444 74.8179C138.099 75.2345 138.614 75.8494 138.991 76.6627C139.368 77.4661 139.557 78.4232 139.557 79.5341C139.557 80.6449 139.368 81.607 138.991 82.4203C138.614 83.2237 138.099 83.8386 137.444 84.2651C136.799 84.6817 136.08 84.89 135.287 84.89ZM135.287 83.0303C135.713 83.0303 136.1 82.9014 136.447 82.6435C136.804 82.3757 137.087 81.9789 137.295 81.4533C137.513 80.9276 137.623 80.2879 137.623 79.5341C137.623 78.7803 137.513 78.1405 137.295 77.6149C137.087 77.0892 136.804 76.6974 136.447 76.4395C136.1 76.1717 135.713 76.0378 135.287 76.0378C134.87 76.0378 134.483 76.1717 134.126 76.4395C133.769 76.6974 133.482 77.0892 133.263 77.6149C133.055 78.1405 132.951 78.7803 132.951 79.5341C132.951 80.2879 133.055 80.9276 133.263 81.4533C133.482 81.9789 133.769 82.3757 134.126 82.6435C134.483 82.9014 134.87 83.0303 135.287 83.0303ZM144.664 84.89C143.871 84.89 143.147 84.6817 142.492 84.2651C141.847 83.8386 141.336 83.2237 140.96 82.4203C140.583 81.607 140.394 80.6449 140.394 79.5341C140.394 78.4232 140.583 77.4661 140.96 76.6627C141.336 75.8494 141.847 75.2345 142.492 74.8179C143.147 74.3914 143.871 74.1782 144.664 74.1782C145.458 74.1782 146.177 74.3914 146.821 74.8179C147.476 75.2345 147.992 75.8494 148.369 76.6627C148.745 77.4661 148.934 78.4232 148.934 79.5341C148.934 80.6449 148.745 81.607 148.369 82.4203C147.992 83.2237 147.476 83.8386 146.821 84.2651C146.177 84.6817 145.458 84.89 144.664 84.89ZM144.664 83.0303C145.091 83.0303 145.477 82.9014 145.825 82.6435C146.182 82.3757 146.464 81.9789 146.673 81.4533C146.891 80.9276 147 80.2879 147 79.5341C147 78.7803 146.891 78.1405 146.673 77.6149C146.464 77.0892 146.182 76.6974 145.825 76.4395C145.477 76.1717 145.091 76.0378 144.664 76.0378C144.247 76.0378 143.861 76.1717 143.504 76.4395C143.147 76.6974 142.859 77.0892 142.641 77.6149C142.432 78.1405 142.328 78.7803 142.328 79.5341C142.328 80.2879 142.432 80.9276 142.641 81.4533C142.859 81.9789 143.147 82.3757 143.504 82.6435C143.861 82.9014 144.247 83.0303 144.664 83.0303ZM154.041 84.89C153.248 84.89 152.524 84.6817 151.869 84.2651C151.225 83.8386 150.714 83.2237 150.337 82.4203C149.96 81.607 149.772 80.6449 149.772 79.5341C149.772 78.4232 149.96 77.4661 150.337 76.6627C150.714 75.8494 151.225 75.2345 151.869 74.8179C152.524 74.3914 153.248 74.1782 154.041 74.1782C154.835 74.1782 155.554 74.3914 156.199 74.8179C156.853 75.2345 157.369 75.8494 157.746 76.6627C158.123 77.4661 158.311 78.4232 158.311 79.5341C158.311 80.6449 158.123 81.607 157.746 82.4203C157.369 83.2237 156.853 83.8386 156.199 84.2651C155.554 84.6817 154.835 84.89 154.041 84.89ZM154.041 83.0303C154.468 83.0303 154.855 82.9014 155.202 82.6435C155.559 82.3757 155.842 81.9789 156.05 81.4533C156.268 80.9276 156.377 80.2879 156.377 79.5341C156.377 78.7803 156.268 78.1405 156.05 77.6149C155.842 77.0892 155.559 76.6974 155.202 76.4395C154.855 76.1717 154.468 76.0378 154.041 76.0378C153.625 76.0378 153.238 76.1717 152.881 76.4395C152.524 76.6974 152.236 77.0892 152.018 77.6149C151.81 78.1405 151.706 78.7803 151.706 79.5341C151.706 80.2879 151.81 80.9276 152.018 81.4533C152.236 81.9789 152.524 82.3757 152.881 82.6435C153.238 82.9014 153.625 83.0303 154.041 83.0303ZM160.532 86.0653H159.045L159.417 82.703H161.455L160.532 86.0653ZM166.621 84.89C165.828 84.89 165.104 84.6817 164.449 84.2651C163.805 83.8386 163.294 83.2237 162.917 82.4203C162.54 81.607 162.351 80.6449 162.351 79.5341C162.351 78.4232 162.54 77.4661 162.917 76.6627C163.294 75.8494 163.805 75.2345 164.449 74.8179C165.104 74.3914 165.828 74.1782 166.621 74.1782C167.415 74.1782 168.134 74.3914 168.779 74.8179C169.433 75.2345 169.949 75.8494 170.326 76.6627C170.703 77.4661 170.891 78.4232 170.891 79.5341C170.891 80.6449 170.703 81.607 170.326 82.4203C169.949 83.2237 169.433 83.8386 168.779 84.2651C168.134 84.6817 167.415 84.89 166.621 84.89ZM166.621 83.0303C167.048 83.0303 167.435 82.9014 167.782 82.6435C168.139 82.3757 168.422 81.9789 168.63 81.4533C168.848 80.9276 168.957 80.2879 168.957 79.5341C168.957 78.7803 168.848 78.1405 168.63 77.6149C168.422 77.0892 168.139 76.6974 167.782 76.4395C167.435 76.1717 167.048 76.0378 166.621 76.0378C166.205 76.0378 165.818 76.1717 165.461 76.4395C165.104 76.6974 164.816 77.0892 164.598 77.6149C164.39 78.1405 164.286 78.7803 164.286 79.5341C164.286 80.2879 164.39 80.9276 164.598 81.4533C164.816 81.9789 165.104 82.3757 165.461 82.6435C165.818 82.9014 166.205 83.0303 166.621 83.0303ZM175.999 84.89C175.205 84.89 174.481 84.6817 173.827 84.2651C173.182 83.8386 172.671 83.2237 172.294 82.4203C171.917 81.607 171.729 80.6449 171.729 79.5341C171.729 78.4232 171.917 77.4661 172.294 76.6627C172.671 75.8494 173.182 75.2345 173.827 74.8179C174.481 74.3914 175.205 74.1782 175.999 74.1782C176.792 74.1782 177.511 74.3914 178.156 74.8179C178.811 75.2345 179.326 75.8494 179.703 76.6627C180.08 77.4661 180.269 78.4232 180.269 79.5341C180.269 80.6449 180.08 81.607 179.703 82.4203C179.326 83.2237 178.811 83.8386 178.156 84.2651C177.511 84.6817 176.792 84.89 175.999 84.89ZM175.999 83.0303C176.425 83.0303 176.812 82.9014 177.159 82.6435C177.516 82.3757 177.799 81.9789 178.007 81.4533C178.225 80.9276 178.334 80.2879 178.334 79.5341C178.334 78.7803 178.225 78.1405 178.007 77.6149C177.799 77.0892 177.516 76.6974 177.159 76.4395C176.812 76.1717 176.425 76.0378 175.999 76.0378C175.582 76.0378 175.195 76.1717 174.838 76.4395C174.481 76.6974 174.194 77.0892 173.975 77.6149C173.767 78.1405 173.663 78.7803 173.663 79.5341C173.663 80.2879 173.767 80.9276 173.975 81.4533C174.194 81.9789 174.481 82.3757 174.838 82.6435C175.195 82.9014 175.582 83.0303 175.999 83.0303ZM185.376 84.89C184.583 84.89 183.858 84.6817 183.204 84.2651C182.559 83.8386 182.048 83.2237 181.671 82.4203C181.295 81.607 181.106 80.6449 181.106 79.5341C181.106 78.4232 181.295 77.4661 181.671 76.6627C182.048 75.8494 182.559 75.2345 183.204 74.8179C183.858 74.3914 184.583 74.1782 185.376 74.1782C186.169 74.1782 186.889 74.3914 187.533 74.8179C188.188 75.2345 188.704 75.8494 189.081 76.6627C189.457 77.4661 189.646 78.4232 189.646 79.5341C189.646 80.6449 189.457 81.607 189.081 82.4203C188.704 83.2237 188.188 83.8386 187.533 84.2651C186.889 84.6817 186.169 84.89 185.376 84.89ZM185.376 83.0303C185.802 83.0303 186.189 82.9014 186.536 82.6435C186.894 82.3757 187.176 81.9789 187.384 81.4533C187.603 80.9276 187.712 80.2879 187.712 79.5341C187.712 78.7803 187.603 78.1405 187.384 77.6149C187.176 77.0892 186.894 76.6974 186.536 76.4395C186.189 76.1717 185.802 76.0378 185.376 76.0378C184.959 76.0378 184.573 76.1717 184.216 76.4395C183.858 76.6974 183.571 77.0892 183.353 77.6149C183.144 78.1405 183.04 78.7803 183.04 79.5341C183.04 80.2879 183.144 80.9276 183.353 81.4533C183.571 81.9789 183.858 82.3757 184.216 82.6435C184.573 82.9014 184.959 83.0303 185.376 83.0303Z" fill="black"/>
<g clip-path="url(#clip7_1376_4708)">
<path d="M260.493 77.9787C260.053 77.51 259.4 76.9096 258.541 76.3678L257.573 77.0983C258.519 77.6297 259.223 78.2673 259.674 78.7475C259.949 79.0408 259.949 79.4827 259.674 79.7759C258.738 80.7724 256.717 82.4437 253.698 82.4437C252.719 82.4437 251.845 82.2677 251.08 81.9965L250.032 82.7869C251.054 83.2445 252.278 83.5673 253.698 83.5673C257.139 83.5673 259.433 81.6731 260.493 80.5448C261.18 79.8131 261.18 78.7103 260.493 77.9787V77.9787ZM247.752 79.8096C247.452 79.492 247.452 79.0315 247.752 78.715C248.687 77.7307 250.701 76.0792 253.698 76.0792C254.645 76.0792 255.495 76.2441 256.243 76.5008L257.297 75.7064C256.288 75.2645 255.087 74.9561 253.698 74.9561C250.281 74.9561 247.996 76.8266 246.938 77.9421C246.224 78.6941 246.224 79.8294 246.938 80.5814V80.5825C247.362 81.0297 247.984 81.5982 248.797 82.1185L249.762 81.3903C248.863 80.8758 248.189 80.2695 247.752 79.8096V79.8096Z" fill="#8908D9"/>
<path d="M253.708 77.2028C252.572 77.2028 251.648 78.1261 251.648 79.2613C251.648 79.482 251.683 79.6951 251.748 79.8949L252.783 79.1144C252.854 78.6679 253.241 78.3258 253.708 78.3258C253.745 78.3258 253.783 78.3282 253.819 78.3328L254.854 77.5523C254.526 77.3317 254.132 77.2028 253.708 77.2028V77.2028ZM255.642 78.5575L254.643 79.3119C254.616 79.8049 254.207 80.1974 253.708 80.1974C253.636 80.1974 253.566 80.1893 253.5 80.1736L252.5 80.9285C252.839 81.1748 253.256 81.3205 253.708 81.3205C254.843 81.3205 255.767 80.3972 255.767 79.2613C255.767 79.0145 255.723 78.7776 255.642 78.5575V78.5575Z" fill="#8908D9"/>
<path d="M259.769 74.5429L247.305 84.131" stroke="#8908D9" stroke-width="0.872719" stroke-miterlimit="10" stroke-linecap="round"/>
</g>
<path d="M267.405 81.7412H266.81V76.5341H267.405V78.8401H270.306V76.5341H270.901V81.7412H270.306V79.398H267.405V81.7412ZM272.604 81.7412H272.047V78.0218H272.604V81.7412ZM272.649 77.2408H272.017V76.6085H272.649V77.2408ZM275.162 81.8156C274.84 81.8156 274.547 81.7338 274.284 81.5701C274.027 81.4065 273.823 81.1783 273.674 80.8858C273.526 80.5932 273.451 80.2584 273.451 79.8815C273.451 79.5046 273.526 79.1699 273.674 78.8773C273.823 78.5847 274.027 78.3566 274.284 78.1929C274.547 78.0293 274.84 77.9474 275.162 77.9474C275.415 77.9474 275.638 77.9995 275.832 78.1037C276.025 78.2028 276.199 78.3491 276.352 78.5425H276.39V76.5341H276.948V81.7412H276.464L276.39 81.2205H276.352C276.199 81.4139 276.025 81.5627 275.832 81.6668C275.638 81.766 275.415 81.8156 275.162 81.8156ZM275.199 81.2949C275.413 81.2949 275.609 81.2354 275.787 81.1164C275.971 80.9973 276.117 80.8312 276.226 80.618C276.335 80.4047 276.39 80.1592 276.39 79.8815C276.39 79.6038 276.335 79.3583 276.226 79.1451C276.117 78.9318 275.971 78.7657 275.787 78.6467C275.609 78.5277 275.413 78.4682 275.199 78.4682C274.986 78.4682 274.788 78.5277 274.604 78.6467C274.426 78.7657 274.282 78.9318 274.173 79.1451C274.064 79.3583 274.009 79.6038 274.009 79.8815C274.009 80.1592 274.064 80.4047 274.173 80.618C274.282 80.8312 274.426 80.9973 274.604 81.1164C274.788 81.2354 274.986 81.2949 275.199 81.2949ZM279.618 81.8156C279.286 81.8156 278.983 81.7338 278.71 81.5701C278.437 81.4065 278.222 81.1783 278.063 80.8858C277.909 80.5932 277.832 80.2584 277.832 79.8815C277.832 79.5046 277.909 79.1699 278.063 78.8773C278.222 78.5847 278.437 78.3566 278.71 78.1929C278.983 78.0293 279.286 77.9474 279.618 77.9474C279.935 77.9474 280.225 78.0243 280.488 78.178C280.751 78.3318 280.957 78.545 281.106 78.8178C281.254 79.0856 281.329 79.3906 281.329 79.7327C281.329 79.9311 281.316 80.0675 281.291 80.1419H278.39C278.425 80.489 278.559 80.7692 278.792 80.9825C279.025 81.1907 279.3 81.2949 279.618 81.2949C279.841 81.2949 280.039 81.2428 280.213 81.1387C280.391 81.0345 280.528 80.8882 280.622 80.6998H281.217C281.088 81.0568 280.885 81.3321 280.607 81.5255C280.334 81.7189 280.005 81.8156 279.618 81.8156ZM280.771 79.6212C280.751 79.2839 280.632 79.0087 280.414 78.7955C280.2 78.5773 279.935 78.4682 279.618 78.4682C279.286 78.4682 279.008 78.5773 278.785 78.7955C278.561 79.0087 278.43 79.2839 278.39 79.6212H280.771Z" fill="#777B76"/>
<g clip-path="url(#clip8_1376_4708)">
<line x1="128.018" y1="109.584" x2="128.018" y2="116.897" stroke="#4A00B9" stroke-width="0.770149" stroke-linecap="round"/>
<line x1="131.525" y1="113.387" x2="124.212" y2="113.387" stroke="#4A00B9" stroke-width="0.770149" stroke-linecap="round"/>
</g>
<path d="M138.984 116.183H138.203V110.976H141.558V111.697H138.984V113.222H141.394V113.929H138.984V116.183ZM143.72 116.257C143.433 116.257 143.175 116.193 142.947 116.064C142.724 115.93 142.548 115.744 142.419 115.506C142.295 115.268 142.233 114.995 142.233 114.688V112.441H142.969V114.628C142.969 114.896 143.056 115.119 143.229 115.298C143.403 115.476 143.619 115.566 143.877 115.566C144.05 115.566 144.209 115.523 144.353 115.439C144.501 115.355 144.618 115.241 144.702 115.097C144.787 114.953 144.829 114.797 144.829 114.628V112.441H145.565V116.183H144.933L144.859 115.796H144.821C144.717 115.92 144.568 116.029 144.375 116.123C144.182 116.213 143.963 116.257 143.72 116.257ZM146.562 116.183V112.441H147.195L147.269 112.828H147.306C147.4 112.709 147.544 112.602 147.738 112.508C147.931 112.414 148.154 112.367 148.407 112.367C148.695 112.367 148.95 112.434 149.173 112.568C149.401 112.697 149.577 112.88 149.701 113.118C149.83 113.356 149.895 113.629 149.895 113.936V116.183H149.158V113.996C149.158 113.728 149.072 113.505 148.898 113.326C148.724 113.148 148.509 113.059 148.251 113.059C148.077 113.059 147.916 113.101 147.767 113.185C147.624 113.269 147.509 113.384 147.425 113.527C147.341 113.671 147.299 113.827 147.299 113.996V116.183H146.562ZM152.395 116.257C152.072 116.257 151.78 116.176 151.517 116.012C151.254 115.848 151.046 115.618 150.892 115.32C150.738 115.023 150.662 114.685 150.662 114.308C150.662 113.932 150.738 113.597 150.892 113.304C151.046 113.007 151.254 112.776 151.517 112.612C151.78 112.449 152.072 112.367 152.395 112.367C152.866 112.367 153.243 112.545 153.526 112.902H153.563V110.976H154.299V116.183H153.667L153.592 115.707H153.555C153.268 116.074 152.881 116.257 152.395 116.257ZM152.484 115.573C152.678 115.573 152.856 115.521 153.02 115.417C153.188 115.313 153.32 115.164 153.414 114.97C153.513 114.777 153.563 114.556 153.563 114.308C153.563 114.06 153.513 113.842 153.414 113.654C153.32 113.46 153.188 113.312 153.02 113.207C152.856 113.103 152.678 113.051 152.484 113.051C152.286 113.051 152.105 113.103 151.941 113.207C151.777 113.312 151.646 113.46 151.547 113.654C151.453 113.842 151.405 114.06 151.405 114.308C151.405 114.561 151.453 114.784 151.547 114.978C151.646 115.166 151.777 115.313 151.941 115.417C152.105 115.521 152.286 115.573 152.484 115.573ZM159.055 116.183H157.872L156.585 110.976H157.425L158.422 115.112H158.571L159.65 110.976H160.654L161.732 115.112H161.881L162.878 110.976H163.719L162.432 116.183H161.249L160.23 112.218H160.081L159.055 116.183ZM165.332 116.257C165.069 116.257 164.836 116.208 164.633 116.109C164.429 116.004 164.273 115.866 164.164 115.692C164.055 115.513 164 115.315 164 115.097C164 114.73 164.127 114.437 164.38 114.219C164.633 114.001 165.01 113.892 165.51 113.892H166.463V113.795C166.463 113.552 166.391 113.359 166.247 113.215C166.108 113.071 165.917 112.999 165.674 112.999C165.441 112.999 165.253 113.054 165.109 113.163C164.965 113.267 164.881 113.393 164.856 113.542H164.134C164.149 113.339 164.219 113.148 164.342 112.969C164.466 112.786 164.643 112.64 164.871 112.531C165.099 112.421 165.367 112.367 165.674 112.367C166.14 112.367 166.51 112.496 166.782 112.754C167.06 113.012 167.199 113.359 167.199 113.795V116.183H166.559L166.485 115.774H166.448C166.363 115.898 166.222 116.009 166.024 116.109C165.825 116.208 165.595 116.257 165.332 116.257ZM165.406 115.625C165.734 115.625 165.991 115.536 166.18 115.357C166.368 115.174 166.463 114.926 166.463 114.613V114.48H165.562C165.285 114.48 165.076 114.534 164.938 114.643C164.804 114.752 164.737 114.894 164.737 115.067C164.737 115.236 164.794 115.372 164.908 115.476C165.027 115.575 165.193 115.625 165.406 115.625ZM168.955 116.183H168.218V110.976H168.955V116.183ZM170.764 116.183H170.027V110.976H170.764V116.183ZM173.435 116.257C173.088 116.257 172.773 116.176 172.491 116.012C172.208 115.843 171.985 115.613 171.821 115.32C171.663 115.023 171.583 114.685 171.583 114.308C171.583 113.936 171.663 113.604 171.821 113.312C171.985 113.014 172.208 112.783 172.491 112.62C172.773 112.451 173.088 112.367 173.435 112.367C173.768 112.367 174.068 112.446 174.336 112.605C174.608 112.764 174.822 112.982 174.975 113.26C175.134 113.537 175.213 113.85 175.213 114.197C175.213 114.37 175.201 114.502 175.176 114.591H172.32C172.354 114.894 172.476 115.142 172.684 115.335C172.892 115.523 173.143 115.618 173.435 115.618C173.644 115.618 173.827 115.571 173.986 115.476C174.145 115.382 174.264 115.261 174.343 115.112H175.109C174.995 115.444 174.794 115.719 174.507 115.938C174.219 116.151 173.862 116.257 173.435 116.257ZM174.484 114.026C174.459 113.728 174.35 113.483 174.157 113.289C173.964 113.096 173.723 112.999 173.435 112.999C173.138 112.999 172.887 113.096 172.684 113.289C172.481 113.483 172.359 113.728 172.32 114.026H174.484ZM177.018 116.183C176.765 116.183 176.567 116.116 176.423 115.982C176.284 115.843 176.215 115.657 176.215 115.424V113.133H175.62V112.441H176.215V111.355H176.951V112.441H177.807V113.133H176.951V115.275C176.951 115.429 177.028 115.506 177.182 115.506H177.807V116.183H177.018Z" fill="#4A00B9"/>
<rect x="109.266" y="101.759" width="83.4205" height="22.8477" rx="1.85969" stroke="#4A00B9" stroke-width="0.531341"/>
<rect width="83.9519" height="23.379" transform="translate(198.266 101.493)" fill="#8908D9"/>
<path fill-rule="evenodd" clip-rule="evenodd" d="M218.326 108.953C218.629 108.851 218.919 109.14 218.816 109.444L216.355 117.171C216.241 117.508 215.77 117.525 215.632 117.197L214.148 113.828C214.109 113.735 214.035 113.66 213.942 113.621L210.573 112.138C210.244 112 210.261 111.529 210.599 111.415L218.326 108.953ZM211.815 111.82L217.833 109.936L215.949 115.955L214.862 113.528C214.857 113.517 214.852 113.507 214.848 113.496L215.759 112.585L215.212 112.038L214.31 112.94C214.288 112.928 214.265 112.918 214.241 112.908L211.815 111.82Z" fill="white"/>
<path d="M227.207 116.183H226.426V111.72H224.789V110.976H228.836V111.72H227.207V116.183ZM229.061 116.183V112.441H229.693L229.768 112.791H229.805C229.879 112.677 229.969 112.59 230.073 112.531C230.182 112.471 230.326 112.441 230.504 112.441H231.159V113.133H230.571C230.323 113.133 230.132 113.2 229.998 113.334C229.864 113.468 229.798 113.659 229.798 113.907V116.183H229.061ZM232.844 116.257C232.581 116.257 232.348 116.208 232.145 116.109C231.942 116.004 231.785 115.866 231.676 115.692C231.567 115.513 231.513 115.315 231.513 115.097C231.513 114.73 231.639 114.437 231.892 114.219C232.145 114.001 232.522 113.892 233.023 113.892H233.975V113.795C233.975 113.552 233.903 113.359 233.759 113.215C233.62 113.071 233.429 112.999 233.186 112.999C232.953 112.999 232.765 113.054 232.621 113.163C232.477 113.267 232.393 113.393 232.368 113.542H231.647C231.661 113.339 231.731 113.148 231.855 112.969C231.979 112.786 232.155 112.64 232.383 112.531C232.611 112.421 232.879 112.367 233.186 112.367C233.653 112.367 234.022 112.496 234.295 112.754C234.572 113.012 234.711 113.359 234.711 113.795V116.183H234.072L233.997 115.774H233.96C233.876 115.898 233.734 116.009 233.536 116.109C233.338 116.208 233.107 116.257 232.844 116.257ZM232.919 115.625C233.246 115.625 233.504 115.536 233.692 115.357C233.881 115.174 233.975 114.926 233.975 114.613V114.48H233.075C232.797 114.48 232.589 114.534 232.45 114.643C232.316 114.752 232.249 114.894 232.249 115.067C232.249 115.236 232.306 115.372 232.42 115.476C232.539 115.575 232.705 115.625 232.919 115.625ZM235.693 116.183V112.441H236.326L236.4 112.828H236.437C236.532 112.709 236.675 112.602 236.869 112.508C237.062 112.414 237.285 112.367 237.538 112.367C237.826 112.367 238.081 112.434 238.305 112.568C238.533 112.697 238.709 112.88 238.833 113.118C238.962 113.356 239.026 113.629 239.026 113.936V116.183H238.29V113.996C238.29 113.728 238.203 113.505 238.029 113.326C237.856 113.148 237.64 113.059 237.382 113.059C237.209 113.059 237.047 113.101 236.899 113.185C236.755 113.269 236.641 113.384 236.556 113.527C236.472 113.671 236.43 113.827 236.43 113.996V116.183H235.693ZM241.281 116.257C240.948 116.257 240.663 116.198 240.425 116.079C240.192 115.96 240.016 115.811 239.897 115.633C239.778 115.449 239.718 115.263 239.718 115.075H240.447C240.447 115.228 240.519 115.36 240.663 115.469C240.812 115.578 241.018 115.633 241.281 115.633C241.543 115.633 241.742 115.588 241.876 115.499C242.015 115.404 242.084 115.288 242.084 115.149C242.084 115.015 242.039 114.908 241.95 114.829C241.861 114.75 241.715 114.693 241.511 114.658L240.901 114.554C240.152 114.425 239.778 114.068 239.778 113.483C239.778 113.16 239.904 112.895 240.157 112.687C240.41 112.474 240.772 112.367 241.243 112.367C241.556 112.367 241.826 112.424 242.054 112.538C242.287 112.652 242.463 112.798 242.582 112.977C242.706 113.155 242.768 113.344 242.768 113.542H242.047C242.047 113.388 241.972 113.26 241.824 113.155C241.68 113.046 241.486 112.992 241.243 112.992C241.005 112.992 240.822 113.039 240.693 113.133C240.569 113.227 240.507 113.344 240.507 113.483C240.507 113.597 240.549 113.691 240.633 113.765C240.723 113.84 240.864 113.894 241.057 113.929L241.675 114.033C242.062 114.098 242.347 114.222 242.53 114.405C242.719 114.589 242.813 114.834 242.813 115.142C242.813 115.464 242.679 115.732 242.411 115.945C242.148 116.153 241.772 116.257 241.281 116.257ZM243.778 116.183V113.133H243.176V112.441H243.778V111.787C243.778 111.554 243.85 111.368 243.994 111.229C244.138 111.09 244.331 111.02 244.574 111.02H245.311V111.683H244.745C244.592 111.683 244.515 111.759 244.515 111.913V112.441H245.311V113.133H244.515V116.183H243.778ZM247.486 116.257C247.139 116.257 246.824 116.176 246.541 116.012C246.258 115.843 246.035 115.613 245.871 115.32C245.713 115.023 245.633 114.685 245.633 114.308C245.633 113.936 245.713 113.604 245.871 113.312C246.035 113.014 246.258 112.783 246.541 112.62C246.824 112.451 247.139 112.367 247.486 112.367C247.818 112.367 248.118 112.446 248.386 112.605C248.659 112.764 248.872 112.982 249.026 113.26C249.184 113.537 249.264 113.85 249.264 114.197C249.264 114.37 249.251 114.502 249.226 114.591H246.37C246.405 114.894 246.526 115.142 246.734 115.335C246.943 115.523 247.193 115.618 247.486 115.618C247.694 115.618 247.877 115.571 248.036 115.476C248.195 115.382 248.314 115.261 248.393 115.112H249.159C249.045 115.444 248.845 115.719 248.557 115.938C248.269 116.151 247.912 116.257 247.486 116.257ZM248.535 114.026C248.51 113.728 248.401 113.483 248.207 113.289C248.014 113.096 247.773 112.999 247.486 112.999C247.188 112.999 246.938 113.096 246.734 113.289C246.531 113.483 246.41 113.728 246.37 114.026H248.535ZM250.055 116.183V112.441H250.688L250.762 112.791H250.799C250.874 112.677 250.963 112.59 251.067 112.531C251.176 112.471 251.32 112.441 251.498 112.441H252.153V113.133H251.565C251.317 113.133 251.126 113.2 250.993 113.334C250.859 113.468 250.792 113.659 250.792 113.907V116.183H250.055ZM256.322 116.183H255.139L253.852 110.976H254.693L255.69 115.112H255.838L256.917 110.976H257.921L259 115.112H259.149L260.145 110.976H260.986L259.699 116.183H258.516L257.497 112.218H257.348L256.322 116.183ZM262.919 116.257C262.631 116.257 262.374 116.193 262.145 116.064C261.922 115.93 261.746 115.744 261.617 115.506C261.493 115.268 261.431 114.995 261.431 114.688V112.441H262.168V114.628C262.168 114.896 262.255 115.119 262.428 115.298C262.602 115.476 262.817 115.566 263.075 115.566C263.249 115.566 263.408 115.523 263.551 115.439C263.7 115.355 263.817 115.241 263.901 115.097C263.985 114.953 264.027 114.797 264.027 114.628V112.441H264.764V116.183H264.132L264.057 115.796H264.02C263.916 115.92 263.767 116.029 263.574 116.123C263.38 116.213 263.162 116.257 262.919 116.257ZM265.761 116.183V112.441H266.393L266.468 112.791H266.505C266.579 112.677 266.668 112.59 266.773 112.531C266.882 112.471 267.026 112.441 267.204 112.441H267.859V113.133H267.271C267.023 113.133 266.832 113.2 266.698 113.334C266.564 113.468 266.497 113.659 266.497 113.907V116.183H265.761ZM269.185 116.183H268.449V112.441H269.185V116.183ZM269.222 111.735H268.419V110.991H269.222V111.735Z" fill="white"/>
<rect x="198.531" y="101.759" width="83.4205" height="22.8477" rx="1.85969" stroke="#4A00B9" stroke-width="0.531341"/>
</g>
<g clip-path="url(#clip9_1376_4708)">
<rect width="215.477" height="25.9677" transform="translate(88)" fill="#FCFDFC"/>
<path d="M153.326 -1.10504H238.641V7.18252C238.641 12.3699 234.436 16.5751 229.248 16.5751H162.718C157.531 16.5751 153.326 12.3699 153.326 7.18252V-1.10504Z" fill="black"/>
<path d="M153.454 -1.10504H150.691C150.691 -1.10504 150.691 -1.10504 150.691 -1.10504C152.156 -1.10504 153.343 0.0821498 153.343 1.54661C153.343 1.58375 153.342 1.62071 153.341 1.65748H153.454V-1.10504Z" fill="black"/>
<path d="M238.54 -1.10504H241.302C241.302 -1.10504 241.302 -1.10504 241.302 -1.10504C239.838 -1.10504 238.65 0.0821498 238.65 1.54661C238.65 1.58375 238.651 1.62071 238.653 1.65748H238.54V-1.10504Z" fill="black"/>
<path d="M112.117 17.6651C111.66 17.6651 111.274 17.5774 110.961 17.4021C110.648 17.2205 110.404 16.9857 110.229 16.6976C110.053 16.4096 109.95 16.0997 109.919 15.7678H111.037C111.087 16.0558 111.206 16.2781 111.393 16.4347C111.588 16.5912 111.832 16.6695 112.126 16.6695C112.546 16.6695 112.884 16.4785 113.14 16.0965C113.397 15.7083 113.535 15.1197 113.554 14.3307C113.403 14.5874 113.175 14.8003 112.868 14.9694C112.568 15.1385 112.236 15.223 111.872 15.223C111.509 15.223 111.168 15.1353 110.849 14.96C110.529 14.7847 110.269 14.5374 110.069 14.218C109.869 13.8987 109.769 13.523 109.769 13.0909C109.769 12.6964 109.866 12.3301 110.06 11.992C110.254 11.6538 110.523 11.3815 110.867 11.1748C111.212 10.9682 111.616 10.8649 112.079 10.8649C112.574 10.8649 112.99 10.9557 113.328 11.1372C113.666 11.3188 113.936 11.563 114.136 11.8699C114.343 12.1767 114.49 12.518 114.578 12.8937C114.671 13.2694 114.718 13.6545 114.718 14.0489C114.718 14.7816 114.615 15.4203 114.408 15.965C114.208 16.5035 113.911 16.9231 113.516 17.2236C113.128 17.5179 112.661 17.6651 112.117 17.6651ZM112.154 14.2086C112.386 14.2086 112.596 14.1585 112.784 14.0583C112.971 13.9519 113.119 13.8141 113.225 13.6451C113.331 13.4697 113.385 13.2756 113.385 13.0627C113.385 12.7246 113.266 12.4459 113.028 12.2268C112.796 12.0076 112.502 11.898 112.145 11.898C111.794 11.898 111.503 12.0076 111.271 12.2268C111.04 12.4397 110.924 12.7121 110.924 13.0439C110.924 13.3946 111.04 13.6764 111.271 13.8893C111.503 14.1022 111.797 14.2086 112.154 14.2086ZM116.088 17.6181C115.869 17.6181 115.687 17.5492 115.543 17.4115C115.405 17.2737 115.336 17.1078 115.336 16.9137C115.336 16.7133 115.405 16.5442 115.543 16.4065C115.687 16.2687 115.869 16.1998 116.088 16.1998C116.307 16.1998 116.485 16.2687 116.623 16.4065C116.767 16.5442 116.839 16.7133 116.839 16.9137C116.839 17.1078 116.767 17.2737 116.623 17.4115C116.485 17.5492 116.307 17.6181 116.088 17.6181ZM116.088 14.1992C115.869 14.1992 115.687 14.1303 115.543 13.9926C115.405 13.8548 115.336 13.6889 115.336 13.4948C115.336 13.2944 115.405 13.1253 115.543 12.9876C115.687 12.8498 115.869 12.7809 116.088 12.7809C116.307 12.7809 116.485 12.8498 116.623 12.9876C116.767 13.1253 116.839 13.2944 116.839 13.4948C116.839 13.6889 116.767 13.8548 116.623 13.9926C116.485 14.1303 116.307 14.1992 116.088 14.1992ZM120.654 17.5524V16.3313H117.414V15.3733L120.495 10.9776H121.857V15.2888H122.721V16.3313H121.857V17.5524H120.654ZM118.701 15.2888H120.729V12.3019L118.701 15.2888ZM124.154 17.5524V12.3489L123.074 12.6025V11.682L124.661 10.9776H125.403V17.5524H124.154Z" fill="#010101"/>
<path opacity="0.35" d="M276.284 10.7891H285.677C286.736 10.7891 287.595 11.6481 287.595 12.7076V15.4702C287.595 16.5297 286.736 17.3887 285.677 17.3887H276.284C275.225 17.3887 274.366 16.5297 274.366 15.4702V12.7076C274.366 11.6481 275.225 10.7891 276.284 10.7891Z" stroke="black" stroke-width="0.582939"/>
<path opacity="0.4" d="M288.438 13.2601V15.5919C288.907 15.3944 289.212 14.935 289.212 14.426C289.212 13.917 288.907 13.4576 288.438 13.2601" fill="black"/>
<path d="M275.18 12.7076C275.18 12.0973 275.674 11.6026 276.285 11.6026H285.677C286.288 11.6026 286.782 12.0973 286.782 12.7076V15.4701C286.782 16.0804 286.288 16.5751 285.677 16.5751H276.285C275.674 16.5751 275.18 16.0804 275.18 15.4701V12.7076Z" fill="black"/>
<path fill-rule="evenodd" clip-rule="evenodd" d="M265.509 12.4797C266.872 12.4798 268.182 13.0143 269.17 13.9728C269.245 14.0468 269.363 14.0458 269.437 13.9707L270.148 13.2383C270.185 13.2002 270.205 13.1485 270.205 13.0948C270.205 13.0411 270.183 12.9897 270.146 12.952C267.554 10.4161 263.464 10.4161 260.872 12.952C260.834 12.9897 260.813 13.041 260.813 13.0948C260.812 13.1485 260.833 13.2001 260.87 13.2383L261.581 13.9707C261.654 14.0459 261.773 14.0469 261.848 13.9728C262.835 13.0142 264.146 12.4797 265.509 12.4797ZM265.529 14.7366C266.277 14.7366 266.999 15.0207 267.554 15.5337C267.63 15.6065 267.748 15.6049 267.821 15.5301L268.531 14.7977C268.568 14.7593 268.589 14.7072 268.589 14.653C268.588 14.5989 268.566 14.5472 268.528 14.5096C266.838 12.9048 264.221 12.9048 262.53 14.5096C262.492 14.5472 262.471 14.5989 262.47 14.6531C262.47 14.7073 262.49 14.7594 262.528 14.7977L263.238 15.5301C263.311 15.6049 263.429 15.6065 263.504 15.5337C264.059 15.021 264.78 14.7369 265.529 14.7366ZM266.973 16.212C266.974 16.2663 266.953 16.3187 266.915 16.3567L265.686 17.6221C265.65 17.6593 265.601 17.6802 265.55 17.6802C265.499 17.6802 265.45 17.6593 265.414 17.6221L264.185 16.3567C264.147 16.3186 264.126 16.2663 264.128 16.212C264.129 16.1577 264.152 16.1062 264.191 16.0698C264.976 15.3925 266.125 15.3925 266.909 16.0698C266.949 16.1063 266.972 16.1577 266.973 16.212Z" fill="black"/>
<path d="M251.974 12.7076C251.974 12.4025 252.222 12.1551 252.527 12.1551H253.079C253.384 12.1551 253.632 12.4025 253.632 12.7076V17.1277C253.632 17.4328 253.384 17.6802 253.079 17.6802H252.527C252.222 17.6802 251.974 17.4328 251.974 17.1277V12.7076Z" fill="black"/>
<path d="M254.737 11.6026C254.737 11.2975 254.984 11.0501 255.289 11.0501H255.842C256.147 11.0501 256.394 11.2975 256.394 11.6026V17.1277C256.394 17.4328 256.147 17.6802 255.842 17.6802H255.289C254.984 17.6802 254.737 17.4328 254.737 17.1277V11.6026Z" fill="black"/>
<path d="M249.212 14.6414C249.212 14.3362 249.459 14.0889 249.764 14.0889H250.317C250.622 14.0889 250.869 14.3362 250.869 14.6414V17.1277C250.869 17.4328 250.622 17.6802 250.317 17.6802H249.764C249.459 17.6802 249.212 17.4328 249.212 17.1277V14.6414Z" fill="black"/>
<path d="M246.449 16.0226C246.449 15.7175 246.697 15.4701 247.002 15.4701H247.554C247.859 15.4701 248.107 15.7175 248.107 16.0226V17.1277C248.107 17.4328 247.859 17.6802 247.554 17.6802H247.002C246.697 17.6802 246.449 17.4328 246.449 17.1277V16.0226Z" fill="black"/>
</g>
</g>
<path d="M103.273 0.352273H287.864C293.895 0.352273 298.784 5.24153 298.784 11.2727V278.648H92.3523V11.2727C92.3523 5.24154 97.2415 0.352273 103.273 0.352273Z" stroke="#4A00B9" stroke-width="0.704545"/>
<line x1="-2.18557e-08" y1="278.75" x2="383" y2="278.75" stroke="#4A00B9" stroke-width="0.5"/>
<path d="M92 72H91C89.8954 72 89 72.8954 89 74V87C89 88.1046 89.8954 89 91 89H92V72Z" fill="#4A00B9"/>
<path d="M92 100H91C89.8954 100 89 100.895 89 102V115C89 116.105 89.8954 117 91 117H92V100Z" fill="#4A00B9"/>
<path d="M299 69H300C301.105 69 302 69.8954 302 71V112C302 113.105 301.105 114 300 114H299V69Z" fill="#4A00B9"/>
<defs>
<clipPath id="clip0_1376_4708">
<path d="M92 11.2727C92 5.04698 97.047 0 103.273 0H287.864C294.089 0 299.136 5.04697 299.136 11.2727V279H92V11.2727Z" fill="white"/>
</clipPath>
<clipPath id="clip1_1376_4708">
<rect width="207.223" height="600.947" fill="white" transform="translate(92 -52)"/>
</clipPath>
<clipPath id="clip2_1376_4708">
<rect width="21.2536" height="21.2536" fill="white" transform="translate(106.875 177.008)"/>
</clipPath>
<clipPath id="clip3_1376_4708">
<rect width="21.2536" height="21.2536" fill="white" transform="translate(196.141 177.008)"/>
</clipPath>
<clipPath id="clip4_1376_4708">
<rect x="285.406" y="177.008" width="21.2536" height="21.2536" rx="10.6268" fill="white"/>
</clipPath>
<clipPath id="clip5_1376_4708">
<rect width="25.5044" height="25.5044" fill="white" transform="translate(109 274.725)"/>
</clipPath>
<clipPath id="clip6_1376_4708">
<rect width="11.1582" height="11.1582" fill="white" transform="translate(155.633 45.0339)"/>
</clipPath>
<clipPath id="clip7_1376_4708">
<rect width="16.5831" height="12.7522" fill="white" transform="translate(245.383 72.8651)"/>
</clipPath>
<clipPath id="clip8_1376_4708">
<rect width="8.50146" height="8.50146" fill="white" transform="translate(123.57 108.932)"/>
</clipPath>
<clipPath id="clip9_1376_4708">
<rect width="215.477" height="25.9677" fill="white" transform="translate(88)"/>
</clipPath>
</defs>
</svg>
