<svg width="171" height="46" viewBox="0 0 171 46" fill="none" xmlns="http://www.w3.org/2000/svg">
<g clip-path="url(#clip0_450_1252)">
<path d="M91.0896 45.3222C87.5017 45.3222 84.3495 44.6123 81.6271 43.1897C78.9077 41.767 76.7818 39.7662 75.2583 37.1813C73.7319 34.5994 72.9688 31.5623 72.9688 28.0701V2.72284C72.9688 1.70952 73.805 0.88513 74.8402 0.876543L79.6036 0.842193C80.6504 0.833606 81.5014 1.66372 81.5014 2.68849V28.01C81.5014 29.4441 81.7499 30.7436 82.2441 31.9144C82.7383 33.0851 83.4225 34.0927 84.2997 34.94C85.177 35.7873 86.1975 36.4371 87.3613 36.8922C88.5251 37.3474 89.7679 37.5735 91.0866 37.5735C92.4054 37.5735 93.7096 37.3416 94.8734 36.8779C96.0372 36.4142 97.0519 35.7587 97.9174 34.9114C98.7829 34.0641 99.4584 33.0565 99.9438 31.8858C100.429 30.715 100.669 29.424 100.669 28.0128V2.67418C100.669 1.65514 101.514 0.827881 102.555 0.827881H107.318C108.359 0.827881 109.205 1.65514 109.205 2.67418V28.0701C109.205 31.5623 108.441 34.5965 106.915 37.1813C105.389 39.7633 103.266 41.767 100.546 43.1897C97.8238 44.6123 94.6716 45.3222 91.0837 45.3222H91.0896Z" fill="white" stroke="white" stroke-width="1.37726" stroke-miterlimit="10"/>
<path d="M118.829 42.5736V0.833008H137.628C138.061 0.833008 138.643 0.84732 139.374 0.878807C140.105 0.910295 140.76 0.976132 141.336 1.07632C143.994 1.47993 146.176 2.33867 147.874 3.64969C149.576 4.9607 150.828 6.61235 151.632 8.59891C152.436 10.5855 152.837 12.801 152.837 15.2427C152.837 18.8952 151.91 22.0182 150.053 24.6116C148.199 27.205 145.292 28.8023 141.333 29.4091L137.622 29.6524H127.233V42.5765C127.233 43.5956 126.388 44.4228 125.347 44.4228H120.706C119.665 44.4228 118.82 43.5956 118.82 42.5765L118.829 42.5736ZM143.421 43.378L135.154 26.6812L143.813 25.0467L152.138 41.7636C152.749 42.9887 151.837 44.4171 150.445 44.4171H145.117C144.395 44.4171 143.737 44.0135 143.421 43.378V43.378Z" fill="white" stroke="white" stroke-width="1.37726" stroke-miterlimit="10"/>
<path d="M161.898 42.5731V2.51842C161.898 1.49938 162.744 0.672119 163.785 0.672119H168.425C169.466 0.672119 170.311 1.49938 170.311 2.51842V42.5731C170.311 43.5921 169.466 44.4193 168.425 44.4193H163.785C162.744 44.4193 161.898 43.5921 161.898 42.5731Z" fill="white" stroke="white" stroke-width="1.37726" stroke-miterlimit="10"/>
<path d="M39.2272 29.5518C38.0838 30.8857 37.0487 32.0651 36.0896 33.1328C34.7094 34.6699 33.4199 36.0439 32.2619 37.2118C32.1976 37.2777 32.1332 37.3435 32.066 37.4065C29.8232 39.6564 27.9751 41.2078 26.4341 42.1525C24.1474 43.5493 20.4046 45.3269 16.1704 45.3269C13.9686 45.3269 11.6322 44.846 9.29872 43.5751C3.38906 40.3663 0 33.3532 0 24.3278V2.35543C0 1.14174 1.0059 0.159912 2.24573 0.159912H8.48874C9.72857 0.159912 10.7315 1.1446 10.7315 2.35829V24.3278C10.7315 30.2445 12.7609 33.4448 14.5007 34.3923C16.4102 35.4285 18.9513 34.3408 20.7496 33.2444C21.121 33.0154 22.2497 32.2282 24.5685 29.8925C24.6767 29.7808 24.7908 29.6692 24.9048 29.5547C25.8522 28.5843 26.9049 27.4565 28.0365 26.197C28.2178 25.9966 28.3991 25.7934 28.5863 25.5844C29.4694 24.594 30.4226 23.4977 31.4782 22.2554L32.066 22.7363L35.5428 25.5787C35.727 25.7877 35.9083 25.9909 36.0896 26.1941C37.2241 27.4565 38.2768 28.5872 39.2272 29.5547V29.5518Z" fill="white"/>
<path d="M64.1256 24.3273C64.1256 33.3526 60.7365 40.3657 54.8298 43.5745C52.4963 44.8426 50.157 45.3264 47.9552 45.3264C43.721 45.3264 39.9782 43.5488 37.6973 42.1548C36.1505 41.2101 34.3054 39.6558 32.0596 37.4059C31.9953 37.3401 31.928 37.2742 31.8637 37.2084C30.7028 36.0434 29.4133 34.6694 28.0302 33.1265C27.0711 32.0617 26.0418 30.8852 24.8984 29.5513C25.8459 28.5809 26.8985 27.4531 28.0302 26.1936C28.2115 25.9932 28.3928 25.79 28.5799 25.581L32.0596 22.7329L32.6474 22.252C33.7059 23.4914 34.6533 24.5877 35.5364 25.5753C35.7206 25.7843 35.9019 25.9875 36.0832 26.1907C37.2178 27.4531 38.2705 28.5838 39.2208 29.5513C39.3349 29.6658 39.443 29.7803 39.5542 29.889C41.873 32.2248 43.0017 33.0149 43.3789 33.2467C45.1685 34.3402 47.7096 35.4308 49.619 34.3946C51.3589 33.45 53.3911 30.2469 53.3911 24.3301V2.35488C53.3911 1.14119 54.3941 0.156494 55.6339 0.156494H61.874C63.1139 0.156494 64.1168 1.14119 64.1168 2.35201V24.3273H64.1256Z" fill="white"/>
<path d="M39.2169 29.552C36.708 32.4889 34.2781 35.1939 32.0645 37.4066C29.848 35.1968 27.421 32.4917 24.9062 29.5548C26.8186 27.5855 29.2076 24.909 32.0616 21.5342C34.9155 24.909 37.3045 27.5826 39.2169 29.552V29.552Z" fill="#003CE6"/>
<path d="M39.2169 29.552C36.708 32.4889 34.2781 35.1939 32.0645 37.4066C29.848 35.1968 27.421 32.4917 24.9062 29.5548C26.8186 27.5855 29.2076 24.909 32.0616 21.5342C34.9155 24.909 37.3045 27.5826 39.2169 29.552V29.552Z" fill="white"/>
<path d="M128.672 12.9176C128.824 12.7086 128.967 12.4911 129.131 12.2907C129.35 12.0217 129.581 11.7612 129.815 11.5064C130.008 11.2974 130.213 11.0942 130.42 10.8967C130.599 10.7278 130.792 10.5675 130.979 10.4044C131.137 10.267 131.292 10.1267 131.458 9.99788C131.625 9.86907 131.8 9.74885 131.976 9.62576C132.137 9.51412 132.3 9.40249 132.467 9.29944C132.643 9.19067 132.815 9.07903 132.999 8.98743C133.391 8.78706 133.78 8.58096 134.181 8.40635C134.564 8.24032 134.958 8.10006 135.353 7.96839C135.994 7.75656 136.654 7.60771 137.327 7.53043C137.684 7.48749 138.04 7.46173 138.397 7.43883C138.792 7.41307 139.172 7.31574 139.555 7.22128C139.856 7.14686 140.163 7.07816 140.47 7.03236C140.772 6.98656 141.076 7.01804 141.348 7.16689C141.497 7.24704 141.628 7.35868 141.699 7.52184C141.757 7.65351 141.751 7.78805 141.687 7.91686C141.62 8.05712 141.511 8.17449 141.374 8.24032C141.269 8.29185 141.251 8.37772 141.242 8.4636C141.222 8.72694 141.316 8.93877 141.564 9.0733C141.713 9.15345 141.798 9.13914 141.9 9.01033C142.123 8.72981 142.418 8.55519 142.772 8.50653C142.976 8.47791 143.193 8.50653 143.333 8.67542C143.415 8.77561 143.465 8.90728 143.503 9.03323C143.579 9.30803 143.564 9.59141 143.558 9.87193C143.547 10.4187 143.529 10.9625 143.441 11.5035C143.386 11.8585 143.336 12.2163 143.263 12.5684C143.202 12.8661 143.12 13.1581 143.035 13.45C142.947 13.7563 142.859 14.0626 142.748 14.3632C142.626 14.6923 142.482 15.0158 142.339 15.3364C142.228 15.5826 142.102 15.8259 141.976 16.0663C141.623 16.7505 141.19 17.3888 140.716 17.9985C140.567 18.1903 140.415 18.3792 140.251 18.5596C140.02 18.8172 139.78 19.0719 139.535 19.3152C139.351 19.4984 139.152 19.6645 138.956 19.8391C138.795 19.9822 138.634 20.1282 138.467 20.2627C138.295 20.403 138.114 20.5318 137.935 20.6635C137.807 20.7551 137.675 20.8438 137.546 20.9325C137.356 21.0614 137.166 21.193 136.97 21.3133C136.701 21.4736 136.432 21.6281 136.154 21.7713C135.573 22.0747 134.964 22.318 134.321 22.484C133.686 22.6472 133.046 22.6872 132.4 22.6157C131.862 22.5584 131.327 22.4897 130.792 22.4067C130.33 22.3352 129.868 22.2779 129.403 22.2779C129.049 22.2779 128.695 22.2894 128.341 22.2665C128.113 22.2521 127.873 22.2178 127.663 22.1348C127.423 22.0403 127.186 21.9058 127.075 21.6453C127.028 21.5365 127.034 21.4306 127.081 21.3218C127.142 21.1844 127.142 21.0413 127.116 20.8982C127.095 20.7837 127.043 20.7637 126.941 20.8209C126.598 21.0041 126.151 20.8066 126.054 20.4917C125.987 20.2685 125.996 20.0452 126.104 19.8334C126.218 19.6101 126.35 19.3954 126.464 19.175C126.569 18.9689 126.593 18.7399 126.59 18.5109C126.584 18.1302 126.578 17.7466 126.636 17.3688C126.674 17.1255 126.736 16.8879 126.797 16.6503C126.862 16.4041 126.935 16.1608 127.011 15.9203C127.055 15.7829 127.116 15.6513 127.174 15.5167C127.25 15.3364 127.329 15.1589 127.408 14.9815C127.449 14.8927 127.49 14.804 127.54 14.721C127.727 14.3975 127.914 14.0712 128.113 13.7535C128.289 13.4672 128.479 13.1867 128.663 12.9033C128.669 12.909 128.677 12.9119 128.683 12.9176H128.672ZM126.949 20.257C127.142 20.2227 127.312 20.2713 127.473 20.383C127.598 20.4717 127.742 20.4001 127.794 20.2456C127.865 20.0366 127.973 19.8477 128.116 19.6788C128.21 19.5671 128.405 19.5099 128.543 19.5557C128.654 19.59 128.762 19.6301 128.87 19.6673C128.993 19.7074 129.128 19.6673 129.204 19.57C129.283 19.467 129.277 19.4097 129.183 19.2723C129.172 19.2551 129.169 19.2208 129.177 19.2065C129.251 19.0891 129.344 18.9918 129.484 18.9517C129.514 18.9431 129.537 18.926 129.563 18.9145C129.332 18.8458 129.125 18.9174 128.914 18.9803C128.926 18.9546 128.938 18.9374 128.955 18.9231C128.984 18.9002 129.014 18.8801 129.046 18.8601C129.116 18.8143 129.183 18.7513 129.259 18.7313C129.441 18.6826 129.604 18.7485 129.774 18.8172C129.891 18.8658 130.02 18.8945 130.148 18.9116C130.227 18.9202 130.306 18.8859 130.344 18.8086C130.233 18.7886 130.119 18.78 130.017 18.7428C129.844 18.6798 129.689 18.5882 129.631 18.3993C129.625 18.3792 129.634 18.3563 129.639 18.322C129.718 18.3964 129.771 18.468 129.841 18.5138C130.081 18.6655 130.338 18.6626 130.59 18.551C130.698 18.5023 130.797 18.4966 130.911 18.5052C131.046 18.5166 131.178 18.5281 131.295 18.4136C131.388 18.3191 131.517 18.3105 131.648 18.3706C131.827 18.4508 132.008 18.3391 132.043 18.1445C132.061 18.0472 132.081 17.947 132.125 17.8554C132.201 17.6951 132.584 17.5634 132.76 17.7151C132.783 17.7352 132.841 17.7552 132.856 17.7409C132.912 17.6979 132.964 17.6493 132.999 17.592C133.116 17.4002 133.219 17.1999 133.344 17.011C133.432 16.8764 133.637 16.8335 133.786 16.8936C133.973 16.968 134.222 16.9079 134.295 16.7591C134.353 16.6417 134.4 16.5157 134.441 16.3927C134.479 16.2667 134.561 16.1923 134.678 16.1408C134.821 16.0749 134.967 16.1121 135.113 16.1322C135.21 16.1465 135.309 16.1665 135.406 16.1608C135.564 16.1522 135.675 16.0034 135.719 15.7887C135.748 15.6341 135.812 15.4938 135.926 15.3793C135.997 15.3106 136.078 15.262 136.19 15.2706C136.301 15.282 136.412 15.2849 136.523 15.2849C136.578 15.2849 136.631 15.2734 136.652 15.2076C136.681 15.1045 136.695 14.9958 136.745 14.9042C136.798 14.8068 136.871 14.7152 136.953 14.6437C137.061 14.5492 137.187 14.6122 137.307 14.6437C137.462 14.6866 137.593 14.6551 137.643 14.5349C137.719 14.3603 137.783 14.18 137.845 13.9996C137.926 13.7535 138.175 13.5674 138.444 13.5617C138.599 13.5588 138.728 13.5044 138.786 13.3527C138.818 13.2726 138.821 13.181 138.842 13.0979C138.888 12.9004 138.95 12.7602 139.213 12.7001C139.277 12.6857 139.348 12.6543 139.394 12.6085C139.476 12.5255 139.546 12.4281 139.608 12.3279C139.693 12.1934 139.789 12.0732 139.941 12.0131C140.049 11.9701 140.067 11.8986 140.064 11.7984C140.058 11.6324 140.146 11.5064 140.28 11.4205C140.38 11.3576 140.465 11.2974 140.479 11.1715C140.485 11.1343 140.506 11.0942 140.529 11.0599C140.605 10.9425 140.655 10.808 140.64 10.6734C140.617 10.4788 140.564 10.287 140.523 10.0952C140.506 10.0093 140.488 9.92346 140.47 9.84045L140.444 9.83186C140.412 9.90628 140.383 9.98643 140.342 10.0551C140.222 10.2612 140.105 10.4702 139.97 10.6648C139.856 10.828 139.713 10.9711 139.584 11.1257C139.549 11.1686 139.511 11.2144 139.488 11.266C139.386 11.4921 139.301 11.7268 139.184 11.9472C139.117 12.076 138.997 12.1791 138.9 12.2907C138.804 12.4024 138.663 12.4453 138.529 12.451C138.421 12.4568 138.403 12.5111 138.371 12.5856C138.301 12.7487 138.216 12.9033 138.058 13.0035C138.02 13.0292 137.956 13.0579 137.953 13.0894C137.938 13.2468 137.85 13.3642 137.754 13.4787C137.646 13.6046 137.476 13.639 137.327 13.5588C137.207 13.4958 137.081 13.5674 137.07 13.6991C137.061 13.7907 137.058 13.888 137.032 13.9767C136.964 14.2029 136.681 14.4404 136.435 14.2601C136.306 14.1685 136.19 14.2057 136.119 14.346C136.081 14.4233 136.084 14.5206 136.07 14.6065C136.029 14.8412 135.897 15.0244 135.608 14.8899C135.464 14.824 135.397 14.8441 135.347 14.9586C135.324 15.0158 135.309 15.0788 135.289 15.1389C135.257 15.2448 135.23 15.3421 135.125 15.4251C134.926 15.5826 134.73 15.6112 134.508 15.4938C134.426 15.4509 134.388 15.4681 134.371 15.554C134.339 15.6914 134.283 15.8173 134.184 15.9232C134.09 16.0205 133.964 16.0606 133.836 16.0463C133.768 16.0406 133.742 16.0492 133.719 16.1035C133.707 16.1322 133.689 16.1608 133.672 16.1866C133.575 16.3411 133.455 16.3984 133.277 16.364C133.216 16.3526 133.186 16.364 133.146 16.4098C133.02 16.5501 132.853 16.6217 132.669 16.5988C132.549 16.5844 132.491 16.6217 132.426 16.7104C132.336 16.8363 132.201 16.8965 132.043 16.9022C131.885 16.9079 131.73 16.9308 131.631 17.0711C131.526 17.2142 131.368 17.28 131.189 17.2285C131.128 17.2113 131.102 17.2285 131.078 17.28C130.993 17.4604 130.862 17.5205 130.669 17.4747C130.628 17.4661 130.587 17.4546 130.546 17.4489C130.426 17.4289 130.359 17.4775 130.33 17.5978C130.306 17.6865 130.294 17.7867 130.239 17.8525C130.113 17.9985 129.944 18.0758 129.742 18.0643C129.584 18.0558 129.525 18.0901 129.467 18.239C129.394 18.4307 129.262 18.5367 129.046 18.5309C129.022 18.5309 128.99 18.5424 128.979 18.5567C128.926 18.6311 128.882 18.7113 128.832 18.7886C128.812 18.82 128.789 18.8573 128.756 18.8801C128.604 18.9946 128.423 19.0147 128.239 19.029C128.098 19.0404 127.952 19.0548 127.821 19.0977C127.631 19.1607 127.438 19.238 127.365 19.4526C127.365 19.4612 127.347 19.467 127.335 19.4727C127.326 19.4727 127.318 19.467 127.309 19.4641C127.315 19.4297 127.309 19.3897 127.326 19.3582C127.391 19.2294 127.496 19.1406 127.625 19.0719C127.832 18.9603 128.058 18.9403 128.289 18.9317C128.601 18.9231 128.759 18.8143 128.879 18.5109C128.637 18.4737 128.432 18.3706 128.277 18.1817C128.306 18.1817 128.332 18.1874 128.356 18.2017C128.514 18.3077 128.683 18.3849 128.876 18.405C129.014 18.4193 129.157 18.4365 129.262 18.3277C129.35 18.2361 129.414 18.1245 129.49 18.0214C129.33 17.8754 129.11 17.8325 129.008 17.6464C129.043 17.655 129.072 17.675 129.101 17.6922C129.289 17.7924 129.485 17.864 129.698 17.884C130.049 17.9184 130.172 17.8325 130.259 17.4947C130.292 17.3688 130.388 17.3001 130.523 17.3087C130.59 17.3144 130.66 17.3344 130.727 17.3344C130.803 17.3344 130.882 17.3201 130.955 17.3001C130.979 17.2943 131.002 17.2457 131.005 17.2171C131.005 17.2027 130.961 17.1798 130.932 17.1713C130.736 17.0968 130.534 17.031 130.338 16.9508C130.274 16.9251 130.221 16.8736 130.166 16.8335C130.216 16.8192 130.254 16.8278 130.289 16.8335C130.303 16.8363 130.318 16.8449 130.332 16.8507C130.566 16.9394 130.795 17.0539 131.037 17.1111C131.376 17.1884 131.499 17.1226 131.666 16.8421C131.566 16.7934 131.467 16.7476 131.371 16.6989C131.376 16.6904 131.379 16.6789 131.385 16.6703C131.473 16.7047 131.561 16.7476 131.651 16.7705C131.742 16.7934 131.838 16.8049 131.935 16.8106C132.122 16.822 132.318 16.7333 132.385 16.5301C132.096 16.4499 131.859 16.2839 131.637 16.0921C131.657 16.0921 131.675 16.0978 131.689 16.1064C131.888 16.2066 132.084 16.3211 132.292 16.4041C132.561 16.5129 132.821 16.4728 133.084 16.2982C132.982 16.2266 132.891 16.1637 132.8 16.1007C132.806 16.0921 132.812 16.0864 132.815 16.0778C132.85 16.0921 132.882 16.1093 132.917 16.1236C133.058 16.1866 133.192 16.2524 133.356 16.218C133.453 16.198 133.593 16.1007 133.616 16.0091C133.619 15.9919 133.616 15.9633 133.605 15.9518C133.531 15.8831 133.458 15.8173 133.382 15.7543C133.303 15.6885 133.219 15.6255 133.137 15.5625C133.143 15.554 133.146 15.5482 133.151 15.5396C133.175 15.5454 133.198 15.5511 133.222 15.5625C133.403 15.657 133.581 15.7543 133.765 15.8488C133.877 15.906 134.067 15.8574 134.134 15.7515C134.198 15.6456 134.245 15.5253 134.306 15.4166C134.344 15.3536 134.397 15.3021 134.444 15.2448C134.45 15.2419 134.456 15.2391 134.464 15.2362C134.564 15.3021 134.651 15.3793 134.792 15.3736C135.046 15.365 135.201 15.2133 135.198 14.97C135.198 14.7925 135.265 14.6551 135.494 14.6694C135.552 14.6723 135.611 14.7009 135.669 14.7181C135.76 14.7439 135.844 14.7324 135.894 14.6437C135.935 14.5721 135.97 14.5006 135.999 14.4261C136.037 14.3317 136.073 14.2343 136.102 14.137C136.137 14.0254 136.324 13.9596 136.4 14.034C136.347 14.0569 136.295 14.0798 136.219 14.1141C136.318 14.137 136.388 14.1657 136.464 14.1714C136.529 14.1742 136.602 14.1599 136.663 14.137C136.821 14.0712 136.845 13.9166 136.894 13.7821C136.923 13.6962 136.95 13.6046 136.956 13.5159C136.961 13.4014 136.935 13.2811 136.947 13.1666C136.956 13.0693 136.947 12.9605 137.032 12.8747C137.04 13.0493 137.052 13.2124 137.061 13.4014C137.178 13.304 137.266 13.3527 137.356 13.3756C137.497 13.4128 137.605 13.3899 137.695 13.2726C137.812 13.118 137.812 12.9462 137.807 12.7716C137.807 12.6714 137.783 12.5741 137.769 12.4739C137.78 12.4739 137.789 12.4682 137.801 12.4653C137.842 12.5884 137.886 12.7115 137.929 12.8403C137.959 12.8317 137.991 12.8317 138.011 12.8146C138.146 12.7001 138.254 12.5627 138.295 12.3881C138.356 12.1333 138.324 11.8785 138.295 11.6238C138.295 11.6066 138.301 11.5894 138.304 11.5722C138.318 11.5722 138.33 11.5722 138.345 11.5694C138.388 11.7955 138.432 12.0188 138.479 12.2535C138.541 12.2678 138.599 12.2621 138.631 12.1762C138.652 12.119 138.69 12.0703 138.713 12.0159C138.772 11.8814 138.845 11.7469 138.883 11.6066C138.947 11.369 138.988 11.1257 139.041 10.8824C139.055 10.8223 139.079 10.765 139.099 10.7078L139.14 10.7164C139.081 11.0971 139.023 11.4749 138.967 11.8556C139.008 11.8327 139.038 11.807 139.061 11.7726C139.266 11.4835 139.351 11.1457 139.447 10.8137C139.511 10.5961 139.584 10.3815 139.669 10.1725C139.707 10.078 139.789 9.99788 139.853 9.91201C139.862 9.91487 139.868 9.9206 139.877 9.92346C139.792 10.204 139.704 10.4874 139.62 10.7679L139.666 10.7879C139.704 10.7364 139.739 10.682 139.78 10.6305C140.044 10.3099 140.257 9.95781 140.409 9.5771C140.511 9.31948 140.587 9.04754 140.652 8.77847C140.716 8.51798 140.83 8.28612 141.006 8.08575C141.026 8.06285 141.061 8.05712 141.111 8.03136C141.058 8.2117 140.894 8.30616 140.906 8.47218C141.096 8.32906 141.286 8.19166 141.468 8.04281C141.526 7.99415 141.585 7.92259 141.605 7.85103C141.69 7.53043 141.485 7.2957 141.21 7.20411C141.064 7.15544 140.892 7.15831 140.731 7.16117C140.336 7.16976 139.956 7.26708 139.582 7.37872C139.052 7.53615 138.508 7.5934 137.964 7.6621C137.573 7.71076 137.175 7.74225 136.792 7.83385C136.283 7.95407 135.786 8.11437 135.289 8.27753C134.996 8.372 134.716 8.50081 134.438 8.62676C134.213 8.72694 133.994 8.84144 133.774 8.95308C133.616 9.03323 133.464 9.12197 133.312 9.2107C133.09 9.33951 132.871 9.47119 132.654 9.60859C132.496 9.70877 132.341 9.81468 132.189 9.92346C132.046 10.0265 131.906 10.1381 131.765 10.2469C131.602 10.3729 131.438 10.4988 131.28 10.6305C131.157 10.7307 131.046 10.8423 130.926 10.9482C130.783 11.0742 130.634 11.1944 130.499 11.3289C130.251 11.5808 130.008 11.8385 129.774 12.1018C129.599 12.2965 129.429 12.4968 129.277 12.7087C128.967 13.1409 128.666 13.5817 128.367 14.0197C128.291 14.1284 128.227 14.2458 128.163 14.3632C128.002 14.658 127.841 14.9528 127.689 15.2534C127.581 15.4709 127.476 15.6914 127.391 15.9175C127.294 16.178 127.215 16.4442 127.133 16.7104C127.043 17.011 126.967 17.3172 126.946 17.6321C126.926 17.947 126.923 18.2647 126.926 18.5825C126.926 18.8887 126.856 19.1807 126.71 19.4469C126.578 19.6845 126.417 19.9049 126.356 20.174C126.332 20.277 126.329 20.3772 126.4 20.4574C126.487 20.5518 126.598 20.6062 126.724 20.5661C126.742 20.5232 126.75 20.4803 126.774 20.4516C126.829 20.3829 126.894 20.32 126.955 20.2541L126.949 20.257ZM139.061 13.6905C138.959 13.7764 138.842 13.8393 138.698 13.7907C138.532 13.7306 138.368 13.7592 138.216 13.8336C138.023 13.9281 137.973 14.1141 137.912 14.2973C137.859 14.4605 137.836 14.6351 137.687 14.761C137.555 14.8698 137.426 14.9042 137.266 14.8441C137.19 14.8154 137.111 14.8068 137.023 14.8612C136.9 14.9357 136.874 15.0444 136.839 15.1647C136.774 15.3879 136.669 15.5311 136.38 15.4881C136.304 15.4767 136.222 15.4681 136.152 15.4881C136.078 15.5082 135.988 15.554 135.956 15.6141C135.891 15.74 135.856 15.8831 135.812 16.0205C135.725 16.2982 135.575 16.407 135.304 16.3726C135.198 16.3612 135.096 16.3411 134.994 16.324C134.713 16.281 134.634 16.4241 134.572 16.5816C134.502 16.7562 134.45 16.9423 134.268 17.0453C134.166 17.1054 134.064 17.1741 133.932 17.1512C133.885 17.1426 133.839 17.1312 133.792 17.1197C133.561 17.0653 133.394 17.1598 133.318 17.3802C133.26 17.552 133.192 17.7208 133.061 17.8525C133.008 17.904 132.926 17.9498 132.856 17.9498C132.768 17.9498 132.681 17.9069 132.593 17.8811C132.441 17.8382 132.298 17.9212 132.259 18.0558C132.224 18.1846 132.201 18.3191 132.154 18.4422C132.107 18.5624 132.002 18.6483 131.885 18.7055C131.868 18.7141 131.835 18.6941 131.812 18.6798C131.783 18.6626 131.762 18.6311 131.733 18.6225C131.678 18.6025 131.616 18.5968 131.558 18.5767C131.473 18.5452 131.362 18.5796 131.324 18.6626C131.286 18.7456 131.251 18.8286 131.224 18.9145C131.207 18.9746 131.216 19.0433 131.198 19.1034C131.145 19.2752 131.058 19.4297 130.926 19.5557C130.888 19.5929 130.838 19.6187 130.792 19.6473C130.783 19.6387 130.777 19.633 130.768 19.6244C130.83 19.5414 130.891 19.4584 130.949 19.3725C130.947 19.3639 130.944 19.3582 130.938 19.3496C130.818 19.3983 130.733 19.3324 130.642 19.278C130.599 19.2523 130.52 19.2408 130.476 19.2637C130.365 19.3152 130.28 19.404 130.256 19.5328C130.242 19.6129 130.236 19.6931 130.207 19.7675C130.148 19.9307 130.084 20.091 130.017 20.2513C129.996 20.2999 129.952 20.3429 129.92 20.3858C129.903 20.3457 129.903 20.3143 129.909 20.2799C129.932 20.1625 129.955 20.048 129.979 19.9307C129.999 19.8305 129.979 19.8133 129.87 19.8105C129.689 19.8047 129.616 19.9364 129.558 20.0652C129.473 20.2484 129.414 20.4402 129.332 20.6234C129.3 20.695 129.242 20.7522 129.195 20.8152L129.169 20.8009C129.169 20.7837 129.166 20.7665 129.169 20.7493C129.215 20.5747 129.265 20.403 129.312 20.2255C129.318 20.2055 129.292 20.154 129.28 20.154C129.213 20.154 129.137 20.154 129.078 20.1826C128.946 20.2484 128.894 20.3715 128.865 20.5089C128.835 20.6492 128.789 20.7866 128.675 20.8839C128.622 20.9297 128.563 20.9955 128.484 20.9354C128.435 20.9011 128.473 20.8295 128.558 20.7579C128.604 20.7207 128.639 20.6692 128.68 20.6263C128.675 20.6205 128.669 20.6148 128.66 20.6091C128.619 20.6348 128.572 20.6577 128.537 20.6892C128.294 20.8896 128.022 21.0184 127.701 21.0442C127.596 21.0528 127.502 21.09 127.438 21.1787C127.388 21.2446 127.347 21.3304 127.283 21.3705C127.177 21.4363 127.192 21.5165 127.224 21.5995C127.288 21.777 127.443 21.8714 127.601 21.9459C127.824 22.0518 128.069 22.0804 128.318 22.0861C128.578 22.0919 128.835 22.0918 129.096 22.089C129.724 22.0804 130.344 22.1634 130.961 22.2665C131.373 22.338 131.786 22.401 132.201 22.4554C132.607 22.5069 133.014 22.5098 133.423 22.464C133.809 22.421 134.189 22.338 134.561 22.235C134.704 22.1949 134.85 22.1577 134.985 22.1004C135.333 21.9516 135.678 21.7942 136.02 21.6367C136.19 21.5594 136.356 21.4764 136.517 21.3848C136.78 21.2331 137.04 21.0785 137.292 20.9068C137.4 20.8324 137.567 20.8009 137.581 20.6263C137.581 20.6062 137.619 20.5862 137.64 20.5661C137.672 20.5375 137.707 20.5118 137.739 20.4803C137.766 20.4574 137.789 20.4287 137.815 20.403C137.821 20.4087 137.83 20.4116 137.836 20.4173C137.809 20.4631 137.783 20.5089 137.751 20.569C137.915 20.4402 138.064 20.32 138.216 20.2055C138.266 20.1683 138.336 20.1625 138.383 20.1225C138.549 19.9851 138.71 19.8448 138.871 19.7017C139.073 19.5213 139.28 19.3467 139.47 19.1549C139.713 18.9116 139.95 18.6597 140.181 18.405C140.333 18.2361 140.473 18.0586 140.614 17.8811C140.979 17.4203 141.304 16.9308 141.59 16.4184C141.737 16.1551 141.889 15.8946 142.035 15.6312C142.085 15.5425 142.131 15.4538 142.172 15.3593C142.245 15.1961 142.313 15.0273 142.383 14.8641C142.465 14.6666 142.558 14.4719 142.628 14.2716C142.719 14.0139 142.798 13.7535 142.874 13.493C142.95 13.2325 143.032 12.972 143.09 12.7058C143.172 12.3279 143.254 11.9444 143.304 11.5608C143.359 11.1457 143.38 10.725 143.409 10.307C143.424 10.0752 143.424 9.84045 143.421 9.60859C143.421 9.37673 143.418 9.142 143.342 8.91873C143.275 8.72408 143.146 8.58382 142.935 8.55806C142.649 8.52084 142.403 8.63248 142.193 8.81854C141.962 9.02178 141.813 9.28226 141.669 9.54561C141.625 9.62576 141.585 9.70877 141.549 9.79178C141.444 10.0351 141.351 10.2841 141.193 10.5017C141.172 10.5274 141.158 10.5589 141.14 10.5847C141.146 10.5904 141.152 10.599 141.158 10.6047C141.207 10.579 141.257 10.5561 141.307 10.5303C141.313 10.5389 141.321 10.5446 141.327 10.5532C141.263 10.6276 141.207 10.7164 141.131 10.7793C140.994 10.8938 140.845 10.994 140.699 11.0999C140.666 11.1228 140.634 11.1486 140.602 11.1744C140.608 11.1829 140.611 11.1915 140.617 11.2001C140.675 11.1829 140.734 11.1686 140.795 11.1515C140.906 11.1228 140.915 11.1228 140.95 11.1744C140.739 11.3032 140.532 11.432 140.321 11.5637C140.216 11.6295 140.181 11.7497 140.213 11.8356C140.336 11.827 140.453 11.8156 140.57 11.8127C140.593 11.8127 140.617 11.8299 140.64 11.8413C140.625 11.8585 140.614 11.8814 140.593 11.89C140.453 11.9558 140.31 12.0159 140.169 12.0818C139.973 12.1705 139.792 12.2764 139.71 12.4825C139.789 12.5999 139.897 12.514 139.997 12.5226C139.97 12.5684 139.95 12.6027 139.927 12.6371C139.932 12.6428 139.938 12.6485 139.944 12.6543C140.041 12.6199 140.137 12.5827 140.237 12.5455C140.237 12.5827 140.237 12.6199 140.237 12.6543C140.237 12.6743 140.239 12.6915 140.242 12.7115C140.14 12.7115 140.035 12.7029 139.935 12.7201C139.777 12.7487 139.608 12.7172 139.462 12.8203C139.383 12.8747 139.272 12.889 139.175 12.9205C139.081 12.952 139.017 13.0006 139.003 13.1094C138.976 13.3012 138.944 13.493 138.804 13.6475C138.804 13.6475 138.807 13.659 138.818 13.6848C138.927 13.6332 139.035 13.5846 139.146 13.533C139.128 13.5703 139.111 13.6075 139.09 13.6504C139.242 13.6933 139.236 13.5273 139.35 13.4901C139.312 13.5502 139.286 13.596 139.257 13.639C139.184 13.7477 139.181 13.7477 139.064 13.6819L139.061 13.6905ZM127.025 20.4173C127.025 20.4173 127.025 20.4345 127.025 20.4431C127.031 20.4488 127.037 20.4602 127.046 20.4631C127.233 20.5404 127.417 20.6291 127.61 20.695C127.78 20.7522 127.955 20.7923 128.139 20.7179C128.408 20.6062 128.657 20.4745 128.832 20.237C128.926 20.1139 129.052 20.048 129.204 20.0337C129.262 20.028 129.324 20.048 129.373 20.0566C129.508 19.8248 129.628 19.5986 129.952 19.6215C129.985 19.6215 130.043 19.5757 130.052 19.5442C130.09 19.3868 130.189 19.2694 130.292 19.1492C130.385 19.0404 130.569 18.9689 130.716 19.0862C130.818 19.1664 130.996 19.0862 131.026 18.9574C131.04 18.8859 131.061 18.8143 131.084 18.7428C131.102 18.6884 131.078 18.6769 131.026 18.6655C130.824 18.6254 130.654 18.7084 130.479 18.7771C130.458 18.7857 130.438 18.8086 130.432 18.8286C130.388 18.9431 130.192 19.0548 130.087 19.0376C129.888 19.0032 129.695 19.0319 129.511 19.1006C129.344 19.1635 129.324 19.2151 129.382 19.3839C129.4 19.4326 129.406 19.4956 129.385 19.5385C129.315 19.6845 129.221 19.8248 129.034 19.819C128.891 19.8133 128.745 19.7818 128.604 19.7503C128.484 19.7217 128.367 19.7274 128.265 19.7904C128.075 19.9021 127.987 20.0938 127.926 20.2914C127.844 20.5633 127.645 20.6463 127.397 20.5089C127.335 20.4746 127.268 20.4459 127.201 20.4288C127.145 20.4144 127.087 20.4202 127.028 20.4173H127.025ZM140.801 10.7822C140.818 10.7822 140.827 10.7822 140.83 10.7793C140.851 10.7564 140.874 10.7307 140.892 10.7078C141.102 10.4387 141.283 10.1525 141.418 9.83758C141.503 9.63721 141.453 9.42253 141.269 9.31375C141.158 9.25078 141.12 9.15345 141.09 9.03323C141.213 9.13342 141.327 9.22501 141.441 9.31948C141.453 9.30803 141.462 9.29944 141.473 9.28799C141.377 9.15059 141.275 9.01605 141.187 8.87579C141.09 8.72122 141.169 8.54661 141.158 8.372C141.105 8.40635 141.064 8.42066 141.038 8.44928C140.947 8.55519 140.813 8.62962 140.775 8.77847C140.734 8.93877 140.69 9.09907 140.646 9.2565C140.567 9.53989 140.535 9.81755 140.666 10.0952C140.739 10.2498 140.81 10.4044 140.81 10.579C140.81 10.6448 140.804 10.7135 140.801 10.7822V10.7822Z" fill="#0030B9"/>
<path d="M126.916 20.2368C126.855 20.3027 126.79 20.3656 126.735 20.4343C126.711 20.463 126.702 20.503 126.685 20.5488C126.556 20.5889 126.445 20.5345 126.36 20.4401C126.287 20.3599 126.293 20.2597 126.317 20.1567C126.378 19.8876 126.542 19.6672 126.67 19.4296C126.817 19.1634 126.887 18.8714 126.887 18.5651C126.887 18.2474 126.887 17.9297 126.907 17.6148C126.925 17.2999 127.001 16.9936 127.094 16.6931C127.176 16.4269 127.252 16.1607 127.352 15.9002C127.436 15.674 127.542 15.4536 127.65 15.2361C127.802 14.9355 127.963 14.6407 128.124 14.3458C128.188 14.2285 128.252 14.114 128.328 14.0023C128.629 13.5644 128.928 13.1236 129.238 12.6913C129.39 12.4795 129.562 12.2791 129.735 12.0845C129.972 11.8211 130.214 11.5635 130.46 11.3116C130.594 11.1771 130.744 11.0569 130.887 10.9309C131.004 10.825 131.118 10.7134 131.241 10.6132C131.399 10.4815 131.562 10.3556 131.726 10.2296C131.866 10.1208 132.004 10.0092 132.15 9.90614C132.302 9.79737 132.457 9.69146 132.615 9.59127C132.831 9.45387 133.054 9.32506 133.273 9.19338C133.425 9.10465 133.58 9.01877 133.735 8.93576C133.954 8.82413 134.174 8.70963 134.399 8.60944C134.68 8.48635 134.96 8.35754 135.25 8.26022C135.747 8.09706 136.244 7.93676 136.753 7.81653C137.136 7.72493 137.533 7.69345 137.925 7.64478C138.469 7.57609 139.013 7.51884 139.542 7.3614C139.917 7.24976 140.297 7.15244 140.692 7.14385C140.852 7.14099 141.025 7.13526 141.171 7.18679C141.449 7.28125 141.654 7.51597 141.566 7.83371C141.545 7.90527 141.49 7.97683 141.428 8.02549C141.247 8.17434 141.057 8.31174 140.867 8.45487C140.852 8.28884 141.019 8.19438 141.072 8.01404C141.019 8.03981 140.984 8.04839 140.966 8.06843C140.788 8.2688 140.674 8.4978 140.613 8.76115C140.548 9.03022 140.472 9.30216 140.37 9.55978C140.218 9.94049 140.004 10.2926 139.741 10.6132C139.7 10.6647 139.665 10.7191 139.627 10.7706L139.58 10.7506C139.665 10.47 139.753 10.1867 139.838 9.90614C139.829 9.90328 139.823 9.89755 139.814 9.89469C139.753 9.98057 139.671 10.0607 139.63 10.1552C139.545 10.3641 139.472 10.5788 139.408 10.7964C139.311 11.1284 139.227 11.4633 139.022 11.7553C138.998 11.7868 138.969 11.8154 138.928 11.8383C138.987 11.4576 139.045 11.0798 139.101 10.699L139.06 10.6905C139.039 10.7477 139.016 10.805 139.001 10.8651C138.949 11.1055 138.908 11.3488 138.843 11.5893C138.805 11.7295 138.735 11.8641 138.674 11.9986C138.65 12.053 138.612 12.1045 138.592 12.1589C138.56 12.2448 138.498 12.2505 138.44 12.2362C138.393 12.0015 138.349 11.7753 138.305 11.5521C138.291 11.5521 138.279 11.5521 138.264 11.5549C138.262 11.5721 138.253 11.5893 138.256 11.6065C138.285 11.8612 138.314 12.116 138.256 12.3707C138.215 12.5453 138.11 12.6827 137.972 12.7972C137.952 12.8144 137.919 12.8144 137.89 12.823C137.846 12.6942 137.802 12.5711 137.762 12.448C137.75 12.448 137.741 12.4537 137.729 12.4566C137.744 12.5568 137.764 12.6541 137.767 12.7543C137.77 12.9289 137.773 13.1007 137.656 13.2552C137.566 13.3755 137.46 13.3955 137.317 13.3583C137.226 13.3354 137.139 13.2839 137.022 13.3841C137.01 13.1951 137.001 13.032 136.992 12.8574C136.911 12.9461 136.919 13.0549 136.908 13.1493C136.896 13.2638 136.925 13.3841 136.916 13.4985C136.911 13.5901 136.884 13.6789 136.855 13.7648C136.808 13.8993 136.782 14.0567 136.624 14.1197C136.563 14.1455 136.492 14.1569 136.425 14.1541C136.352 14.1512 136.279 14.1226 136.18 14.0968C136.256 14.0625 136.308 14.0396 136.361 14.0167C136.285 13.9422 136.098 14.0081 136.063 14.1197C136.03 14.217 135.998 14.3144 135.96 14.4088C135.931 14.4832 135.896 14.5577 135.855 14.6264C135.805 14.7151 135.723 14.7237 135.63 14.7008C135.571 14.6836 135.513 14.6579 135.454 14.6521C135.226 14.6378 135.156 14.7752 135.159 14.9527C135.159 15.1989 135.004 15.3506 134.753 15.3563C134.612 15.362 134.305 15.3391 134.267 15.4021C134.203 15.5109 134.159 15.6282 134.095 15.737C134.03 15.8429 133.84 15.8916 133.726 15.8343C133.545 15.7427 133.364 15.6425 133.182 15.5481C133.162 15.5366 133.136 15.5338 133.112 15.5252C133.106 15.5338 133.103 15.5395 133.098 15.5481C133.179 15.6111 133.264 15.674 133.343 15.7399C133.419 15.8028 133.492 15.8687 133.565 15.9374C133.577 15.9488 133.583 15.9775 133.577 15.9946C133.554 16.0862 133.413 16.1836 133.317 16.2036C133.153 16.2379 133.016 16.1721 132.878 16.1091C132.843 16.0948 132.811 16.0776 132.776 16.0633C132.77 16.0719 132.764 16.0776 132.761 16.0862C132.852 16.1492 132.943 16.2122 133.045 16.2837C132.785 16.4584 132.521 16.4956 132.252 16.3897C132.045 16.3066 131.852 16.1921 131.65 16.092C131.633 16.0834 131.618 16.0776 131.597 16.0776C131.82 16.2694 132.057 16.4355 132.346 16.5156C132.279 16.7188 132.08 16.8076 131.896 16.7961C131.802 16.7904 131.706 16.7789 131.612 16.756C131.521 16.7331 131.434 16.6902 131.346 16.6559C131.34 16.6644 131.337 16.6759 131.331 16.6845C131.431 16.7331 131.53 16.7789 131.627 16.8276C131.46 17.1081 131.334 17.1768 130.998 17.0967C130.755 17.0394 130.527 16.9249 130.293 16.8362C130.279 16.8305 130.264 16.8219 130.249 16.819C130.211 16.8104 130.176 16.8047 130.127 16.819C130.185 16.8591 130.238 16.9106 130.299 16.9364C130.495 17.0137 130.694 17.0824 130.893 17.1568C130.922 17.1682 130.969 17.1911 130.966 17.2026C130.963 17.2341 130.94 17.2799 130.916 17.2856C130.843 17.3056 130.764 17.32 130.688 17.32C130.621 17.32 130.551 17.2999 130.483 17.2942C130.349 17.2856 130.252 17.3543 130.22 17.4803C130.135 17.8152 130.01 17.9039 129.659 17.8696C129.445 17.8467 129.249 17.778 129.062 17.6778C129.033 17.6606 129.004 17.6434 128.969 17.632C129.071 17.818 129.287 17.861 129.451 18.007C129.375 18.11 129.311 18.2216 129.223 18.3132C129.121 18.422 128.975 18.4048 128.837 18.3905C128.644 18.3705 128.475 18.2903 128.317 18.1873C128.296 18.173 128.27 18.1672 128.238 18.1672C128.393 18.3562 128.597 18.4592 128.84 18.4964C128.72 18.7999 128.562 18.9086 128.249 18.9172C128.021 18.9229 127.796 18.943 127.586 19.0575C127.457 19.1262 127.352 19.2149 127.287 19.3437C127.273 19.3752 127.276 19.4124 127.27 19.4496C127.279 19.4496 127.287 19.4554 127.296 19.4582C127.305 19.4525 127.322 19.4468 127.325 19.4382C127.398 19.2206 127.588 19.1434 127.781 19.0832C127.913 19.0403 128.059 19.026 128.2 19.0145C128.384 19.0002 128.565 18.9773 128.717 18.8657C128.749 18.8428 128.77 18.8084 128.793 18.7741C128.843 18.6968 128.89 18.6167 128.939 18.5422C128.951 18.5251 128.983 18.5165 129.007 18.5165C129.223 18.5222 129.352 18.4163 129.428 18.2245C129.486 18.0756 129.542 18.0413 129.703 18.0499C129.881 18.0613 129.586 18.3676 129.592 18.3848C129.65 18.5737 129.805 18.6653 129.978 18.7283C130.08 18.7655 130.194 18.7712 130.305 18.7941C130.27 18.8714 130.188 18.9058 130.109 18.8972C129.983 18.88 129.852 18.8514 129.735 18.8027C129.568 18.734 129.401 18.6682 129.22 18.7168C129.141 18.7369 129.077 18.7999 129.007 18.8457C128.975 18.8657 128.945 18.8857 128.916 18.9086C128.899 18.9229 128.884 18.9401 128.875 18.9659C129.086 18.9029 129.293 18.8313 129.524 18.9C129.498 18.9115 129.472 18.9287 129.445 18.9373C129.305 18.9802 129.211 19.0747 129.138 19.192C129.13 19.2063 129.132 19.2407 129.144 19.2579C129.238 19.3953 129.244 19.4525 129.165 19.5556C129.089 19.6529 128.954 19.693 128.831 19.6529C128.72 19.6157 128.612 19.5784 128.504 19.5412C128.369 19.4983 128.173 19.5555 128.077 19.6643C127.934 19.8332 127.822 20.0221 127.755 20.2311C127.703 20.3857 127.562 20.4544 127.434 20.3685C127.273 20.2569 127.103 20.2082 126.91 20.2425C127.03 20.0737 127.188 20.1195 127.352 20.1681" fill="#4A00B9"/>
<path d="M139.088 13.6705C139.205 13.7364 139.208 13.7364 139.281 13.6276C139.31 13.5846 139.336 13.5388 139.374 13.4787C139.263 13.5131 139.266 13.682 139.114 13.639C139.135 13.5961 139.152 13.5589 139.17 13.5217C139.059 13.5732 138.953 13.6247 138.842 13.6734C138.833 13.6476 138.828 13.639 138.828 13.6362C138.968 13.4845 139 13.2898 139.026 13.098C139.041 12.9892 139.105 12.9406 139.199 12.9091C139.296 12.8776 139.404 12.8633 139.486 12.8089C139.635 12.7059 139.801 12.7402 139.959 12.7087C140.059 12.6887 140.164 12.7001 140.266 12.7001C140.266 12.6801 140.263 12.6629 140.26 12.6429C140.26 12.6057 140.26 12.5713 140.26 12.5341C140.161 12.5713 140.065 12.6057 139.968 12.6429C139.962 12.6372 139.956 12.6314 139.951 12.6257C139.971 12.5914 139.991 12.557 140.021 12.5112C139.921 12.5026 139.81 12.5885 139.734 12.4711C139.819 12.265 140 12.1591 140.193 12.0704C140.334 12.0074 140.477 11.9444 140.617 11.8786C140.635 11.87 140.646 11.8471 140.664 11.8299C140.641 11.8214 140.617 11.8013 140.594 11.8013C140.477 11.807 140.36 11.8156 140.237 11.8242C140.205 11.7383 140.243 11.6181 140.345 11.5523C140.553 11.4206 140.763 11.2918 140.974 11.163C140.939 11.1115 140.927 11.1115 140.819 11.1401C140.76 11.1544 140.702 11.1716 140.641 11.1887C140.635 11.1802 140.632 11.1716 140.626 11.163C140.658 11.1372 140.69 11.1115 140.722 11.0886C140.866 10.9826 141.018 10.8825 141.155 10.768C141.231 10.705 141.287 10.6191 141.351 10.5418C141.345 10.5332 141.337 10.5275 141.331 10.5189C141.281 10.5447 141.231 10.5676 141.182 10.5934C141.176 10.5876 141.17 10.579 141.164 10.5733C141.182 10.5447 141.199 10.5161 141.217 10.4903C141.375 10.2728 141.468 10.0237 141.573 9.78041C141.608 9.6974 141.649 9.61438 141.693 9.53424C141.837 9.27089 141.986 9.0104 142.217 8.80717C142.427 8.62111 142.673 8.50947 142.959 8.54668C143.17 8.57244 143.302 8.7127 143.366 8.90735C143.442 9.13063 143.445 9.36535 143.445 9.59721C143.445 9.82907 143.448 10.0638 143.433 10.2957C143.407 10.7136 143.383 11.1344 143.328 11.5494C143.278 11.933 143.196 12.3137 143.114 12.6944C143.056 12.9606 142.974 13.2211 142.898 13.4816C142.822 13.7421 142.743 14.0026 142.652 14.2602C142.582 14.4606 142.489 14.6552 142.407 14.8527C142.337 15.0187 142.269 15.1848 142.196 15.3479C142.155 15.4395 142.109 15.5311 142.059 15.6199C141.913 15.8832 141.763 16.1437 141.614 16.407C141.328 16.9194 141.003 17.406 140.638 17.8698C140.497 18.0472 140.357 18.2276 140.205 18.3936C139.974 18.6484 139.74 18.9003 139.494 19.1436C139.304 19.3325 139.097 19.51 138.895 19.6903C138.734 19.8334 138.573 19.9766 138.407 20.1111C138.36 20.1483 138.29 20.1569 138.24 20.1941C138.085 20.3086 137.775 20.5576 137.775 20.5576C137.775 20.5576 137.424 20.821 137.316 20.8954C137.064 21.0672 136.804 21.2217 136.541 21.3734C136.38 21.465 136.213 21.5481 136.044 21.6253C135.702 21.7828 135.357 21.9402 135.009 22.0891C134.874 22.1463 134.728 22.1864 134.585 22.2236C134.21 22.3266 133.833 22.4097 133.447 22.4526C133.038 22.4984 132.631 22.4927 132.225 22.444C131.81 22.3925 131.397 22.3266 130.985 22.2551C130.368 22.1492 129.748 22.069 129.12 22.0776C128.859 22.0805 128.602 22.0776 128.342 22.0747C128.096 22.069 127.85 22.0404 127.625 21.9345C127.467 21.8601 127.312 21.7656 127.248 21.5881C127.219 21.5051 127.204 21.425 127.307 21.3591C127.374 21.3162 127.412 21.2332 127.462 21.1673C127.526 21.0786 127.619 21.0414 127.725 21.0328C128.046 21.007 128.318 20.8782 128.561 20.6779C128.599 20.6464 128.643 20.6235 128.684 20.5977C128.69 20.6034 128.696 20.6092 128.704 20.6149C128.663 20.6578 128.628 20.7093 128.582 20.7466C128.494 20.8181 128.459 20.8897 128.508 20.924C128.587 20.9813 128.646 20.9154 128.698 20.8725C128.815 20.7752 128.859 20.6378 128.889 20.4975C128.918 20.3601 128.97 20.2342 129.102 20.1712C129.16 20.1426 129.237 20.1454 129.304 20.1426C129.315 20.1426 129.342 20.1912 129.336 20.2141C129.292 20.3887 129.242 20.5634 129.193 20.738C129.19 20.7551 129.193 20.7723 129.193 20.7895L129.219 20.8038C129.266 20.7408 129.324 20.6807 129.356 20.612C129.438 20.4288 129.497 20.2342 129.582 20.0538C129.64 19.925 129.713 19.7934 129.894 19.7991C130 19.7991 130.02 19.8191 130.003 19.9193C129.979 20.0367 129.953 20.1512 129.932 20.2685C129.927 20.3 129.927 20.3344 129.944 20.3744C129.976 20.3286 130.02 20.2886 130.041 20.2399C130.108 20.0796 130.175 19.9193 130.231 19.7561C130.257 19.6817 130.266 19.5987 130.28 19.5214C130.304 19.3926 130.386 19.3039 130.5 19.2523C130.544 19.2323 130.623 19.2409 130.666 19.2667C130.757 19.3239 130.839 19.3869 130.962 19.3382C130.965 19.3468 130.968 19.3525 130.973 19.3611C130.912 19.4441 130.851 19.5271 130.792 19.613C130.801 19.6216 130.807 19.6273 130.816 19.6359C130.859 19.6044 130.912 19.5815 130.95 19.5443C131.079 19.4155 131.169 19.2638 131.222 19.092C131.24 19.0319 131.231 18.9632 131.248 18.9031C131.275 18.8172 131.31 18.7342 131.348 18.6512C131.383 18.5711 131.494 18.5339 131.582 18.5653C131.637 18.5854 131.699 18.5911 131.757 18.6111C131.786 18.6226 131.807 18.6541 131.836 18.6684C131.859 18.6827 131.895 18.7027 131.909 18.6942C132.029 18.6369 132.131 18.551 132.178 18.4308C132.228 18.3077 132.248 18.1732 132.283 18.0444C132.321 17.9098 132.465 17.8297 132.617 17.8698C132.705 17.8927 132.792 17.9413 132.88 17.9385C132.95 17.9385 133.032 17.8927 133.085 17.8411C133.216 17.7123 133.286 17.5406 133.342 17.3688C133.418 17.1484 133.585 17.054 133.816 17.1083C133.862 17.1198 133.909 17.1312 133.956 17.1398C134.088 17.1627 134.19 17.094 134.292 17.0339C134.474 16.9309 134.526 16.7448 134.596 16.5702C134.658 16.4128 134.737 16.2696 135.018 16.3126C135.12 16.3269 135.225 16.3469 135.327 16.3612C135.599 16.3927 135.749 16.2868 135.836 16.0092C135.88 15.8718 135.912 15.7286 135.98 15.6027C136.012 15.5426 136.102 15.4996 136.175 15.4767C136.246 15.4567 136.328 15.4681 136.404 15.4767C136.69 15.5168 136.798 15.3737 136.863 15.1533C136.898 15.0331 136.924 14.9243 137.047 14.8499C137.135 14.7955 137.214 14.8041 137.29 14.8327C137.45 14.8928 137.579 14.8584 137.711 14.7497C137.863 14.6237 137.883 14.4491 137.936 14.2859C137.997 14.1027 138.047 13.9167 138.24 13.8222C138.392 13.7478 138.553 13.7192 138.722 13.7793C138.866 13.8308 138.983 13.7678 139.085 13.6791L139.088 13.6705ZM127.374 21.5452C127.406 21.5051 127.435 21.4622 127.47 21.4278C127.546 21.3534 127.619 21.2675 127.71 21.2189C127.804 21.1702 127.921 21.1616 128.026 21.133C128.055 21.1244 128.081 21.1044 128.108 21.0929C127.979 21.0929 127.865 21.1158 127.751 21.1215C127.561 21.133 127.383 21.3706 127.374 21.5452V21.5452ZM127.535 21.6368C127.584 21.4593 127.757 21.4078 127.877 21.299C127.81 21.3105 127.751 21.3305 127.695 21.3505C127.672 21.3591 127.649 21.3734 127.628 21.3849C127.541 21.4307 127.491 21.5423 127.538 21.6368H127.535Z" fill="#4A00B9"/>
</g>
<defs>
<clipPath id="clip0_450_1252">
<rect width="171" height="46" fill="white"/>
</clipPath>
</defs>
</svg>
