<svg width="17" height="20" viewBox="0 0 17 20" fill="none" xmlns="http://www.w3.org/2000/svg">
<path d="M1.8198 18.3164V1.81812H9.09366C9.26111 1.81812 9.48626 1.82377 9.76912 1.83622C10.052 1.84866 10.3054 1.87469 10.5283 1.91429C11.5568 2.07381 12.4008 2.41324 13.0581 2.93143C13.7166 3.44961 14.2009 4.10244 14.512 4.88764C14.8231 5.67284 14.9781 6.54856 14.9781 7.51365C14.9781 8.95734 14.6195 10.1917 13.901 11.2168C13.1837 12.2418 12.0591 12.8732 10.5272 13.113L9.0914 13.2092H5.07148V18.3175C5.07148 18.7203 4.74451 19.0473 4.34172 19.0473H2.54617C2.14338 19.0473 1.81641 18.7203 1.81641 18.3175L1.8198 18.3164ZM11.335 18.6343L8.13648 12.0348L11.4866 11.3887L14.7077 17.9962C14.9442 18.4804 14.5912 19.045 14.0526 19.045H11.9912C11.7118 19.045 11.4572 18.8855 11.335 18.6343Z" fill="#4A00B9" stroke="#4A00B9" stroke-width="0.489135" stroke-miterlimit="10"/>
<path d="M5.62682 6.59436C5.68566 6.51177 5.7411 6.42578 5.80446 6.34658C5.88931 6.24023 5.97869 6.13727 6.06921 6.03657C6.14388 5.95398 6.22308 5.87365 6.30341 5.79558C6.37243 5.72883 6.4471 5.66547 6.51951 5.60098C6.58061 5.54667 6.64057 5.49123 6.70506 5.44032C6.76955 5.3894 6.83744 5.34188 6.90532 5.29323C6.96755 5.24911 7.03091 5.20498 7.0954 5.16425C7.16329 5.12126 7.23004 5.07713 7.30132 5.04093C7.45292 4.96173 7.6034 4.88027 7.75841 4.81125C7.90662 4.74563 8.05936 4.69019 8.21211 4.63815C8.45988 4.55442 8.71558 4.49559 8.97581 4.46504C9.11384 4.44807 9.25187 4.43789 9.38991 4.42883C9.54265 4.41865 9.68973 4.38018 9.83795 4.34285C9.95448 4.31343 10.0733 4.28628 10.1921 4.26817C10.3086 4.25007 10.4263 4.26252 10.5315 4.32135C10.5892 4.35303 10.6401 4.39715 10.6673 4.46164C10.6899 4.51369 10.6876 4.56687 10.6627 4.61778C10.6367 4.67322 10.5949 4.71961 10.5417 4.74563C10.501 4.766 10.4942 4.79994 10.4908 4.83388C10.4829 4.93797 10.5191 5.02169 10.6152 5.07487C10.6729 5.10655 10.7057 5.10089 10.7453 5.04998C10.8313 4.9391 10.9456 4.87009 11.0825 4.85085C11.1617 4.83954 11.2454 4.85085 11.2997 4.9176C11.3314 4.9572 11.3506 5.00925 11.3654 5.05903C11.3948 5.16765 11.3891 5.27966 11.3869 5.39054C11.3823 5.60664 11.3755 5.8216 11.3416 6.03544C11.3201 6.17574 11.3009 6.31716 11.2726 6.45633C11.2488 6.57399 11.2171 6.6894 11.1843 6.8048C11.1504 6.92586 11.1164 7.04693 11.0735 7.16572C11.0259 7.29584 10.9705 7.42369 10.9151 7.55041C10.8721 7.64771 10.8234 7.74388 10.7748 7.83892C10.6379 8.10932 10.4704 8.36163 10.2871 8.60262C10.2294 8.67842 10.1706 8.7531 10.1072 8.82438C10.0178 8.9262 9.92506 9.0269 9.83003 9.12307C9.75875 9.19548 9.68181 9.2611 9.60601 9.33012C9.54378 9.38669 9.48155 9.44439 9.41706 9.49757C9.35031 9.55301 9.28016 9.60392 9.21114 9.65597C9.16136 9.69217 9.11045 9.72725 9.06067 9.76232C8.98712 9.81323 8.91358 9.86528 8.83778 9.9128C8.73369 9.97616 8.6296 10.0373 8.52211 10.0938C8.29696 10.2138 8.06163 10.3099 7.81272 10.3755C7.5672 10.44 7.31942 10.4559 7.06938 10.4276C6.8612 10.405 6.65415 10.3778 6.4471 10.345C6.26834 10.3167 6.08957 10.2941 5.90968 10.2941C5.77278 10.2941 5.63588 10.2986 5.49897 10.2896C5.41072 10.2839 5.31795 10.2703 5.23649 10.2375C5.14371 10.2002 5.05207 10.147 5.00907 10.044C4.99097 10.001 4.99323 9.95919 5.01134 9.91619C5.03509 9.86188 5.03509 9.80531 5.02491 9.74874C5.01699 9.70349 4.99663 9.69557 4.95703 9.71819C4.82465 9.7906 4.65154 9.71254 4.61421 9.58808C4.58819 9.49983 4.59158 9.41158 4.63344 9.32786C4.67757 9.23961 4.72848 9.15475 4.77261 9.06763C4.81334 8.98617 4.82239 8.89566 4.82126 8.80514C4.819 8.65466 4.81673 8.50306 4.83936 8.35371C4.85407 8.25754 4.87783 8.16363 4.90159 8.06972C4.92648 7.97242 4.95477 7.87625 4.98418 7.78121C5.00115 7.72691 5.02491 7.67486 5.04754 7.62168C5.07696 7.55041 5.1075 7.48026 5.13805 7.41011C5.15389 7.37504 5.16973 7.33996 5.18897 7.30715C5.26138 7.1793 5.33379 7.05032 5.41072 6.92473C5.47861 6.81159 5.55215 6.70071 5.62343 6.5887C5.62569 6.59097 5.62909 6.5921 5.63135 6.59436H5.62682ZM4.96042 9.49531C5.0351 9.48173 5.10072 9.50096 5.16294 9.54509C5.2116 9.58016 5.26704 9.55188 5.2874 9.49078C5.31455 9.40819 5.35642 9.33351 5.41186 9.26676C5.44806 9.22263 5.52387 9.20001 5.57704 9.21811C5.62004 9.23169 5.6619 9.24753 5.70376 9.26223C5.75128 9.27807 5.80333 9.26223 5.83274 9.22377C5.86329 9.18304 5.86103 9.16041 5.82482 9.1061C5.8203 9.09931 5.81917 9.08573 5.82256 9.08008C5.85085 9.03369 5.88705 8.99522 5.94136 8.97938C5.95267 8.97599 5.96172 8.9692 5.9719 8.96467C5.88252 8.93752 5.80219 8.9658 5.72073 8.99069C5.72526 8.98051 5.72978 8.97372 5.73657 8.96807C5.74789 8.95902 5.7592 8.9511 5.77165 8.94318C5.7988 8.92507 5.82482 8.90018 5.85424 8.89226C5.92439 8.87303 5.98774 8.89905 6.05337 8.9262C6.09862 8.94544 6.1484 8.95675 6.19819 8.96354C6.22874 8.96694 6.25928 8.95336 6.27399 8.92281C6.231 8.91489 6.18687 8.9115 6.14728 8.89679C6.08052 8.8719 6.02056 8.83569 5.99793 8.76102C5.99567 8.7531 5.99906 8.74405 6.00132 8.73047C6.03187 8.75989 6.05224 8.78817 6.07939 8.80627C6.17217 8.86624 6.27173 8.86511 6.36903 8.82098C6.41089 8.80175 6.44936 8.79949 6.49349 8.80288C6.54553 8.80741 6.59645 8.81193 6.6417 8.76667C6.67791 8.72934 6.72769 8.72594 6.7786 8.7497C6.84762 8.78138 6.91777 8.73726 6.93134 8.66032C6.93813 8.62185 6.94605 8.58225 6.96302 8.54605C6.99244 8.48269 7.14066 8.43064 7.20854 8.49061C7.21759 8.49853 7.24022 8.50645 7.24588 8.50079C7.26737 8.48382 7.28774 8.46459 7.30132 8.44196C7.34657 8.36615 7.38617 8.28696 7.43482 8.21228C7.46877 8.15911 7.54796 8.14213 7.60567 8.16589C7.67808 8.19531 7.77425 8.17155 7.80253 8.11272C7.82516 8.06633 7.84327 8.01655 7.8591 7.9679C7.87381 7.91811 7.90549 7.8887 7.95075 7.86833C8.00619 7.84231 8.06276 7.85702 8.11933 7.86494C8.15667 7.8706 8.19513 7.87852 8.23247 7.87625C8.29357 7.87286 8.33656 7.81402 8.35353 7.72917C8.36485 7.66807 8.38974 7.61263 8.43386 7.56738C8.46102 7.54022 8.49269 7.52099 8.53569 7.52438C8.57868 7.52891 8.62168 7.53004 8.66467 7.53004C8.68617 7.53004 8.70653 7.52551 8.71445 7.49949C8.72577 7.45876 8.73143 7.41577 8.75066 7.37956C8.77103 7.34109 8.79931 7.30489 8.83099 7.2766C8.87285 7.23927 8.9215 7.26416 8.96789 7.2766C9.02785 7.29357 9.07877 7.28113 9.098 7.23361C9.12742 7.16459 9.15231 7.09331 9.17607 7.02203C9.20775 6.92473 9.30392 6.85119 9.40801 6.84893C9.46798 6.8478 9.51776 6.8263 9.54038 6.76634C9.55283 6.73466 9.55396 6.69845 9.56188 6.66564C9.57998 6.58757 9.60374 6.53213 9.70557 6.50837C9.73046 6.50272 9.75762 6.49027 9.77572 6.47217C9.8074 6.43936 9.83455 6.40089 9.85831 6.36129C9.89112 6.30811 9.92846 6.26059 9.98729 6.23683C10.0292 6.21986 10.0359 6.19158 10.0348 6.15198C10.0325 6.08636 10.0665 6.03657 10.1185 6.00263C10.157 5.97774 10.1898 5.95398 10.1955 5.9042C10.1977 5.88949 10.2057 5.87365 10.2147 5.86007C10.2441 5.81368 10.2634 5.76051 10.2577 5.70733C10.2486 5.6304 10.2283 5.55459 10.2124 5.47879C10.2057 5.44484 10.1989 5.4109 10.1921 5.37809L10.1819 5.3747C10.1695 5.40411 10.1581 5.43579 10.1423 5.46295C10.0959 5.54441 10.0507 5.627 9.99861 5.70394C9.95448 5.76843 9.89904 5.825 9.84926 5.88609C9.83568 5.90307 9.82097 5.92117 9.81192 5.94153C9.77232 6.03092 9.73951 6.12369 9.69426 6.21081C9.66824 6.26172 9.62185 6.30246 9.58451 6.34658C9.54717 6.39071 9.49286 6.40768 9.44082 6.40994C9.39896 6.4122 9.39217 6.4337 9.37973 6.46312C9.35257 6.52761 9.31976 6.5887 9.25866 6.6283C9.24395 6.63849 9.21906 6.6498 9.21793 6.66225C9.21227 6.72447 9.17833 6.77086 9.141 6.81612C9.09913 6.8659 9.03351 6.87948 8.97581 6.8478C8.92942 6.82291 8.88077 6.85119 8.87625 6.90324C8.87285 6.93944 8.87172 6.97791 8.86154 7.01298C8.83551 7.10237 8.72577 7.19627 8.63073 7.12499C8.58094 7.08879 8.53569 7.1035 8.50854 7.15894C8.49383 7.18948 8.49496 7.22795 8.4893 7.26189C8.47346 7.35467 8.42255 7.42708 8.31054 7.3739C8.2551 7.34788 8.22907 7.3558 8.20984 7.40106C8.20079 7.42369 8.19513 7.44858 8.18721 7.47234C8.17477 7.5142 8.16459 7.55267 8.12386 7.58548C8.04692 7.64771 7.97111 7.65902 7.88513 7.61263C7.85345 7.59566 7.83874 7.60245 7.83195 7.63639C7.8195 7.6907 7.79801 7.74048 7.75954 7.78235C7.72333 7.82081 7.67468 7.83665 7.6249 7.831C7.59888 7.82873 7.5887 7.83213 7.57965 7.85362C7.57512 7.86494 7.56833 7.87625 7.56154 7.88643C7.52421 7.94753 7.47782 7.97016 7.4088 7.95658C7.38504 7.95206 7.37373 7.95658 7.35789 7.97469C7.30924 8.03012 7.24475 8.05841 7.17347 8.04936C7.12708 8.0437 7.10445 8.05841 7.07956 8.09348C7.04449 8.14327 6.99244 8.16703 6.93134 8.16929C6.87025 8.17155 6.81028 8.1806 6.77181 8.23604C6.73108 8.29261 6.66999 8.31863 6.60097 8.29827C6.57721 8.29148 6.56703 8.29827 6.55798 8.31863C6.52517 8.38991 6.47425 8.41367 6.39958 8.39557C6.38374 8.39218 6.3679 8.38765 6.35206 8.38539C6.30567 8.37747 6.27965 8.3967 6.26834 8.44422C6.25929 8.4793 6.25476 8.5189 6.23326 8.54492C6.18461 8.60262 6.11899 8.63317 6.04092 8.62864C5.97983 8.62525 5.9572 8.63883 5.93457 8.69766C5.90628 8.77346 5.85537 8.81533 5.77165 8.81306C5.76259 8.81306 5.75015 8.81759 5.74562 8.82325C5.72526 8.85266 5.70828 8.88434 5.68905 8.91489C5.68113 8.92734 5.67208 8.94204 5.65964 8.9511C5.6008 8.99635 5.53065 9.00427 5.45937 9.00993C5.40507 9.01445 5.3485 9.02011 5.29758 9.03708C5.22404 9.06197 5.14937 9.09252 5.12108 9.17738C5.12108 9.18077 5.11429 9.18304 5.10977 9.1853C5.10637 9.1853 5.10298 9.18304 5.09959 9.1819C5.10185 9.16833 5.09959 9.15249 5.10637 9.14004C5.13126 9.08913 5.172 9.05405 5.22178 9.0269C5.30211 8.98277 5.38923 8.97485 5.47861 8.97146C5.59967 8.96807 5.66077 8.92507 5.70715 8.80514C5.61325 8.79043 5.53405 8.7497 5.47408 8.67503C5.4854 8.67503 5.49558 8.67729 5.50463 8.68295C5.56573 8.72481 5.63135 8.75536 5.70602 8.76328C5.7592 8.76894 5.81464 8.77573 5.85537 8.73273C5.88931 8.69653 5.9142 8.6524 5.94362 8.61167C5.88139 8.55397 5.79654 8.537 5.75694 8.46346C5.77051 8.46685 5.78183 8.47477 5.79314 8.48156C5.86555 8.52116 5.94136 8.54944 6.02395 8.55736C6.15972 8.57094 6.20724 8.537 6.24118 8.40349C6.25363 8.35371 6.29096 8.32656 6.34301 8.32995C6.36903 8.33221 6.39619 8.34013 6.42221 8.34013C6.45162 8.34013 6.48217 8.33447 6.51046 8.32655C6.51951 8.32429 6.52856 8.30506 6.52969 8.29374C6.52969 8.28809 6.51272 8.27904 6.50141 8.27564C6.4256 8.24622 6.34754 8.2202 6.27173 8.18852C6.24684 8.17834 6.22648 8.15797 6.20498 8.14213C6.22421 8.13648 6.23892 8.13987 6.2525 8.14213C6.25815 8.14327 6.26381 8.14666 6.26947 8.14892C6.35998 8.184 6.44823 8.22925 6.54214 8.25188C6.67338 8.28243 6.7209 8.25641 6.78539 8.14553C6.74692 8.12629 6.70846 8.10819 6.67112 8.08896C6.67338 8.08556 6.67451 8.08104 6.67678 8.07764C6.71072 8.09122 6.74466 8.10819 6.77974 8.11724C6.81481 8.12629 6.85215 8.13082 6.88948 8.13308C6.96189 8.13761 7.0377 8.10254 7.06372 8.0222C6.95171 7.99053 6.86007 7.9249 6.77408 7.8491C6.782 7.8491 6.78879 7.85136 6.79444 7.85476C6.87138 7.89436 6.94718 7.93961 7.02752 7.97242C7.13161 8.01542 7.2323 7.99958 7.33413 7.93056C7.29453 7.90227 7.25945 7.87738 7.22438 7.85249C7.22664 7.8491 7.22891 7.84684 7.23004 7.84344C7.24362 7.8491 7.25606 7.85589 7.26964 7.86154C7.32394 7.88644 7.37599 7.91246 7.43935 7.89888C7.47668 7.89096 7.53099 7.85249 7.54005 7.81629C7.54118 7.8095 7.54004 7.79818 7.53552 7.79366C7.50723 7.76651 7.47895 7.74048 7.44953 7.71559C7.41899 7.68957 7.38617 7.66468 7.35449 7.63979C7.35675 7.63639 7.35789 7.63413 7.36015 7.63074C7.3692 7.633 7.37825 7.63526 7.3873 7.63979C7.45745 7.67712 7.52647 7.71559 7.59775 7.75293C7.64074 7.77556 7.71428 7.75632 7.7403 7.71446C7.7652 7.6726 7.7833 7.62508 7.80706 7.58208C7.82177 7.55719 7.84213 7.53683 7.86023 7.5142C7.8625 7.51307 7.86476 7.51194 7.86815 7.51081C7.90662 7.53683 7.94056 7.56738 7.99487 7.56511C8.09331 7.56172 8.15327 7.50175 8.15214 7.40558C8.15214 7.33544 8.17816 7.28113 8.26641 7.28679C8.28904 7.28792 8.31167 7.29923 8.3343 7.30602C8.36937 7.3162 8.40218 7.31168 8.42142 7.2766C8.43726 7.24832 8.45083 7.22003 8.46215 7.19062C8.47686 7.15328 8.49043 7.11481 8.50175 7.07634C8.51532 7.03222 8.58773 7.00619 8.61715 7.03561C8.59678 7.04466 8.57642 7.05371 8.547 7.06729C8.58547 7.07634 8.61262 7.08766 8.64204 7.08992C8.66693 7.09105 8.69522 7.08539 8.71898 7.07634C8.78007 7.05032 8.78913 6.98922 8.80836 6.93605C8.81967 6.90211 8.82986 6.8659 8.83212 6.83083C8.83438 6.78557 8.8242 6.73805 8.82872 6.69279C8.83212 6.65433 8.82872 6.61133 8.86154 6.57739C8.86493 6.64641 8.86946 6.7109 8.87285 6.78557C8.91811 6.7471 8.95205 6.76634 8.98712 6.77539C9.04143 6.79009 9.0833 6.78104 9.11837 6.73466C9.16363 6.67356 9.16362 6.60567 9.16136 6.53666C9.16136 6.49706 9.15231 6.45859 9.14665 6.41899C9.15118 6.41899 9.15457 6.41673 9.1591 6.4156C9.17494 6.46425 9.19191 6.5129 9.20888 6.56381C9.22019 6.56042 9.23264 6.56042 9.24056 6.55363C9.29261 6.50837 9.33447 6.45406 9.35031 6.38505C9.37407 6.28435 9.36162 6.18366 9.35031 6.08296C9.35031 6.07617 9.35257 6.06938 9.3537 6.0626C9.35936 6.0626 9.36388 6.0626 9.36954 6.06146C9.38651 6.15085 9.40348 6.2391 9.42159 6.33187C9.44535 6.33753 9.46797 6.33527 9.48042 6.30132C9.48834 6.2787 9.50305 6.25946 9.5121 6.23796C9.53473 6.18479 9.56301 6.13161 9.57772 6.07617C9.60261 5.98227 9.61845 5.8861 9.63882 5.78992C9.64447 5.76617 9.65353 5.74354 9.66145 5.72091L9.67728 5.7243C9.65466 5.87478 9.63203 6.02413 9.61053 6.17461C9.62637 6.16555 9.63769 6.15537 9.64674 6.14179C9.72594 6.02752 9.75875 5.89401 9.79608 5.76277C9.82098 5.67678 9.84926 5.59193 9.88207 5.50933C9.89678 5.472 9.92846 5.44032 9.95335 5.40638C9.95674 5.40751 9.95901 5.40977 9.9624 5.4109C9.92959 5.52178 9.89565 5.63379 9.86284 5.74467L9.88094 5.75259C9.89565 5.73222 9.90922 5.71073 9.92506 5.69036C10.0269 5.56364 10.1095 5.42448 10.1683 5.274C10.2079 5.17217 10.2373 5.06469 10.2622 4.95834C10.2871 4.85538 10.3312 4.76373 10.3991 4.68453C10.407 4.67548 10.4206 4.67322 10.4399 4.66304C10.4195 4.73432 10.3561 4.77165 10.3607 4.83727C10.4342 4.7807 10.5077 4.7264 10.5779 4.66756C10.6005 4.64833 10.6231 4.62004 10.6311 4.59176C10.6639 4.46504 10.5847 4.37226 10.4783 4.33606C10.4218 4.31682 10.355 4.31796 10.2928 4.31909C10.14 4.32248 9.99295 4.36095 9.84813 4.40507C9.64334 4.4673 9.4329 4.48993 9.22246 4.51708C9.07085 4.53632 8.91697 4.54876 8.76876 4.58497C8.57189 4.63249 8.37955 4.69585 8.18721 4.76034C8.07407 4.79767 7.96546 4.84859 7.85797 4.89837C7.77085 4.93797 7.686 4.98323 7.60114 5.02735C7.54005 5.05903 7.48121 5.09411 7.42238 5.12918C7.33639 5.18009 7.25153 5.23214 7.16781 5.28645C7.10671 5.32605 7.04675 5.36791 6.98792 5.4109C6.93248 5.45163 6.87817 5.49576 6.82386 5.53875C6.7605 5.58853 6.69714 5.63832 6.63605 5.69036C6.58853 5.72996 6.54553 5.77408 6.49914 5.81595C6.4437 5.86573 6.386 5.91325 6.33396 5.96643C6.23779 6.06599 6.14388 6.16782 6.05337 6.27191C5.98548 6.34884 5.91986 6.42804 5.86103 6.51177C5.7411 6.68261 5.62456 6.85685 5.50916 7.02995C5.47974 7.07295 5.45485 7.11934 5.42996 7.16572C5.36773 7.28226 5.3055 7.3988 5.24667 7.51759C5.20481 7.60358 5.16408 7.6907 5.13126 7.78008C5.09393 7.88304 5.06338 7.98826 5.0317 8.09348C4.99663 8.21228 4.96721 8.33334 4.95929 8.4578C4.95137 8.58225 4.95024 8.70784 4.95137 8.83343C4.95137 8.95449 4.92422 9.06989 4.86765 9.17512C4.81673 9.26902 4.7545 9.35614 4.73074 9.46249C4.72169 9.50323 4.72056 9.54283 4.74772 9.5745C4.78166 9.61184 4.82465 9.63334 4.8733 9.6175C4.88009 9.60053 4.88349 9.58356 4.89254 9.57224C4.91404 9.54509 4.93893 9.5202 4.96269 9.49417L4.96042 9.49531ZM9.64674 6.89984C9.60714 6.93378 9.56188 6.95868 9.50644 6.93944C9.44195 6.91568 9.37859 6.927 9.31976 6.95641C9.24509 6.99375 9.22585 7.06729 9.20209 7.1397C9.18173 7.20419 9.17267 7.27321 9.11497 7.32299C9.06406 7.36598 9.01428 7.37956 8.95205 7.3558C8.92263 7.34449 8.89208 7.34109 8.85814 7.36259C8.81062 7.39201 8.80044 7.435 8.78686 7.48252C8.76197 7.57077 8.72124 7.62734 8.60923 7.61037C8.57982 7.60584 8.54813 7.60245 8.52098 7.61037C8.49269 7.61829 8.45762 7.63639 8.44518 7.66015C8.42029 7.70993 8.40671 7.76651 8.38974 7.82081C8.3558 7.93056 8.29809 7.97355 8.19287 7.95998C8.15214 7.95545 8.11254 7.94753 8.07294 7.94074C7.96432 7.92377 7.93378 7.98034 7.91002 8.04257C7.88286 8.11159 7.8625 8.18513 7.79235 8.22586C7.75275 8.24962 7.71315 8.27677 7.66224 8.26772C7.64413 8.26433 7.62603 8.2598 7.60793 8.25528C7.51855 8.23378 7.45406 8.27112 7.42464 8.35823C7.40201 8.42612 7.37599 8.49287 7.32508 8.54492C7.30471 8.56528 7.27303 8.58339 7.24588 8.58339C7.21193 8.58339 7.17799 8.56641 7.14405 8.55623C7.08522 8.53926 7.02978 8.57207 7.01507 8.62525C7.00149 8.67616 6.99244 8.72934 6.97434 8.77799C6.95624 8.82551 6.9155 8.85945 6.87025 8.88208C6.86346 8.88547 6.85101 8.87755 6.84196 8.8719C6.83065 8.86511 6.82273 8.85266 6.81141 8.84927C6.78992 8.84135 6.76616 8.83909 6.74353 8.83117C6.71072 8.81872 6.66773 8.8323 6.65302 8.86511C6.63831 8.89792 6.62473 8.93073 6.61455 8.96467C6.60776 8.98843 6.61116 9.01559 6.60437 9.03935C6.584 9.10723 6.55006 9.16833 6.49914 9.21811C6.48444 9.23282 6.4652 9.243 6.4471 9.25431C6.44371 9.25092 6.44144 9.24866 6.43805 9.24526C6.46181 9.21245 6.48557 9.17964 6.5082 9.1457C6.50707 9.1423 6.50593 9.14004 6.50367 9.13665C6.45728 9.15588 6.42447 9.12986 6.3894 9.10836C6.37242 9.09818 6.34188 9.09365 6.32491 9.10271C6.28191 9.12307 6.2491 9.15814 6.24005 9.20906C6.2344 9.24074 6.23213 9.27242 6.22082 9.30183C6.19819 9.36632 6.1733 9.42968 6.14728 9.49304C6.13936 9.51228 6.12238 9.52925 6.10994 9.54622C6.10315 9.53038 6.10315 9.51793 6.10541 9.50436C6.11446 9.45797 6.12352 9.41271 6.13257 9.36632C6.14049 9.32672 6.13257 9.31994 6.0907 9.3188C6.02056 9.31654 5.99227 9.36859 5.96964 9.4195C5.93683 9.49191 5.9142 9.56772 5.88253 9.64013C5.87008 9.66841 5.84745 9.69104 5.82935 9.71593L5.81917 9.71027C5.81917 9.70349 5.81803 9.6967 5.81917 9.68991C5.83727 9.62089 5.8565 9.55301 5.8746 9.48286C5.87687 9.47494 5.86668 9.45458 5.86216 9.45458C5.83613 9.45458 5.80672 9.45458 5.78409 9.46589C5.73318 9.49191 5.71281 9.54056 5.7015 9.59487C5.69018 9.65031 5.67208 9.70462 5.62796 9.74309C5.60759 9.76119 5.58496 9.78721 5.55442 9.76345C5.53518 9.74987 5.54989 9.72159 5.5827 9.6933C5.6008 9.67859 5.61438 9.65823 5.63022 9.64126C5.62796 9.63899 5.62569 9.63673 5.6223 9.63447C5.60646 9.64465 5.58836 9.6537 5.57478 9.66615C5.48087 9.74535 5.37565 9.79626 5.25119 9.80644C5.21046 9.80984 5.17426 9.82455 5.14937 9.85962C5.13013 9.88564 5.11429 9.91959 5.0894 9.93543C5.04867 9.96145 5.05433 9.99313 5.06677 10.0259C5.09166 10.0961 5.15163 10.1334 5.21273 10.1628C5.29871 10.2047 5.39375 10.216 5.48992 10.2183C5.59062 10.2205 5.69019 10.2205 5.79088 10.2194C6.03413 10.216 6.27399 10.2488 6.51272 10.2896C6.67225 10.3178 6.83178 10.3427 6.99244 10.3642C7.14971 10.3846 7.30697 10.3857 7.46537 10.3676C7.61472 10.3507 7.7618 10.3178 7.90549 10.2771C7.96093 10.2613 8.0175 10.2466 8.06955 10.2239C8.20418 10.1651 8.33769 10.1029 8.47007 10.0406C8.53569 10.0101 8.60018 9.97729 8.66241 9.94108C8.76423 9.88112 8.86493 9.82002 8.96223 9.75214C9.0041 9.72272 9.06859 9.71027 9.07424 9.64126C9.07424 9.63334 9.08895 9.62542 9.09687 9.6175C9.10932 9.60618 9.12289 9.596 9.13534 9.58356C9.14552 9.5745 9.15457 9.56319 9.16475 9.55301C9.16702 9.55527 9.17041 9.5564 9.17267 9.55866C9.16249 9.57677 9.15231 9.59487 9.13986 9.61863C9.20322 9.56772 9.26093 9.5202 9.31976 9.47494C9.33899 9.46023 9.36615 9.45797 9.38425 9.44213C9.44874 9.38782 9.51097 9.33238 9.5732 9.27581C9.65126 9.20453 9.73159 9.13552 9.80513 9.05971C9.89904 8.96354 9.99069 8.86398 10.0801 8.76328C10.1389 8.69653 10.1932 8.62638 10.2475 8.55623C10.3889 8.37407 10.5145 8.1806 10.6254 7.97808C10.682 7.87399 10.7408 7.77103 10.7974 7.66694C10.8166 7.63187 10.8347 7.59679 10.8506 7.55946C10.8788 7.49497 10.9049 7.42821 10.932 7.36372C10.9637 7.28565 10.9999 7.20872 11.0271 7.12952C11.0621 7.02769 11.0927 6.92473 11.1221 6.82177C11.1515 6.71882 11.1832 6.61586 11.2058 6.51064C11.2375 6.36129 11.2692 6.20968 11.2884 6.05807C11.3099 5.89401 11.3178 5.7277 11.3291 5.56251C11.3348 5.47087 11.3348 5.37809 11.3337 5.28645C11.3337 5.1948 11.3325 5.10203 11.3031 5.01377C11.2771 4.93684 11.2273 4.8814 11.1459 4.87122C11.035 4.85651 10.9399 4.90063 10.8585 4.97418C10.7691 5.05451 10.7114 5.15746 10.656 5.26155C10.639 5.29323 10.6231 5.32604 10.6096 5.35886C10.5688 5.45503 10.5326 5.55346 10.4715 5.63945C10.4636 5.64963 10.458 5.66207 10.4512 5.67226C10.4534 5.67452 10.4557 5.67791 10.458 5.68018C10.4772 5.66999 10.4964 5.66094 10.5157 5.65076C10.5179 5.65416 10.5213 5.65642 10.5236 5.65981C10.4987 5.68923 10.4772 5.7243 10.4478 5.74919C10.3946 5.79445 10.3369 5.83405 10.2803 5.87591C10.2679 5.88496 10.2554 5.89515 10.243 5.90533C10.2453 5.90872 10.2464 5.91212 10.2487 5.91551C10.2713 5.90872 10.2939 5.90307 10.3177 5.89628C10.3607 5.88496 10.3641 5.88496 10.3776 5.90533C10.2962 5.95624 10.2158 6.00716 10.1344 6.0592C10.0936 6.08522 10.0801 6.13274 10.0925 6.16669C10.14 6.16329 10.1853 6.15877 10.2305 6.15763C10.2396 6.15763 10.2486 6.16442 10.2577 6.16895C10.252 6.17574 10.2475 6.18479 10.2396 6.18818C10.1853 6.21421 10.1299 6.23796 10.0755 6.26399C9.99974 6.29906 9.92959 6.34092 9.89791 6.42239C9.92846 6.46877 9.97032 6.43483 10.0088 6.43823C9.99861 6.45633 9.99069 6.4699 9.98163 6.48348C9.9839 6.48574 9.98616 6.48801 9.98842 6.49027C10.0258 6.47669 10.0631 6.46199 10.1016 6.44728C10.1016 6.46199 10.1016 6.47669 10.1016 6.49027C10.1016 6.49819 10.1027 6.50498 10.1038 6.5129C10.0642 6.5129 10.0235 6.5095 9.98503 6.51629C9.92393 6.52761 9.85831 6.51516 9.80174 6.55589C9.77119 6.57739 9.7282 6.58305 9.69086 6.59549C9.65466 6.60794 9.62976 6.62717 9.62411 6.67016C9.61392 6.74597 9.60148 6.82177 9.54717 6.88287C9.54717 6.88287 9.54831 6.8874 9.55283 6.89758C9.59469 6.87721 9.63656 6.85798 9.67955 6.83761C9.67276 6.85232 9.66597 6.86703 9.65805 6.884C9.71689 6.90097 9.71462 6.83535 9.75875 6.82064C9.74404 6.8444 9.73386 6.86251 9.72254 6.87948C9.69426 6.92247 9.69313 6.92247 9.64787 6.89645L9.64674 6.89984ZM4.98984 9.55866C4.98984 9.55866 4.98984 9.56545 4.98984 9.56885C4.9921 9.57111 4.99436 9.57564 4.99776 9.57677C5.07017 9.60732 5.14145 9.64239 5.21612 9.66841C5.28174 9.69104 5.34963 9.70688 5.42091 9.67746C5.525 9.63334 5.62117 9.58129 5.68905 9.48739C5.72526 9.43873 5.77391 9.41271 5.83274 9.40705C5.85537 9.40479 5.87913 9.41271 5.89836 9.41611C5.95041 9.32446 5.9968 9.23508 6.12238 9.24413C6.13483 9.24413 6.15746 9.22603 6.16085 9.21358C6.17556 9.15136 6.21403 9.10497 6.25363 9.05745C6.28983 9.01445 6.36111 8.98617 6.41768 9.03256C6.45728 9.06424 6.5263 9.03256 6.53761 8.98164C6.54327 8.95336 6.55119 8.92507 6.56024 8.89679C6.56703 8.87529 6.55798 8.87076 6.53761 8.86624C6.45954 8.8504 6.39392 8.88321 6.32604 8.91036C6.31812 8.91376 6.3102 8.92281 6.30793 8.93073C6.29096 8.97599 6.21516 9.02011 6.17443 9.01332C6.09749 8.99975 6.02282 9.01106 5.95154 9.03821C5.88705 9.06311 5.87913 9.08347 5.90176 9.15022C5.90855 9.16946 5.91081 9.19435 5.90289 9.21132C5.87574 9.26902 5.83953 9.32446 5.76712 9.3222C5.71168 9.31994 5.65511 9.30749 5.6008 9.29505C5.55441 9.28373 5.50916 9.28599 5.46956 9.31088C5.39602 9.35501 5.36208 9.43081 5.33832 9.50888C5.30664 9.61637 5.2297 9.64918 5.13353 9.59487C5.10977 9.58129 5.08375 9.56998 5.05772 9.56319C5.03623 9.55753 5.0136 9.5598 4.99097 9.55866H4.98984ZM10.3199 5.75033C10.3267 5.75033 10.3301 5.75033 10.3312 5.74919C10.3392 5.74014 10.3482 5.72996 10.355 5.72091C10.4365 5.61456 10.5066 5.50141 10.5587 5.37696C10.5915 5.29776 10.5722 5.2129 10.501 5.16991C10.458 5.14502 10.4433 5.10655 10.4319 5.05903C10.4795 5.09863 10.5236 5.13484 10.5677 5.17217C10.5722 5.16765 10.5756 5.16425 10.5802 5.15973C10.5428 5.10542 10.5032 5.05224 10.4693 4.9968C10.4319 4.93571 10.4625 4.86669 10.458 4.79767C10.4376 4.81125 10.4218 4.81691 10.4116 4.82822C10.3765 4.87009 10.3245 4.8995 10.3097 4.95834C10.2939 5.02169 10.2769 5.08505 10.26 5.14728C10.2294 5.25929 10.217 5.36904 10.2679 5.47879C10.2962 5.53988 10.3233 5.60098 10.3233 5.66999C10.3233 5.69602 10.3211 5.72317 10.3199 5.75033Z" fill="#0030B9"/>
<path d="M4.94896 9.48755C4.9252 9.51357 4.90031 9.53847 4.87881 9.56562C4.86976 9.57693 4.86637 9.59277 4.85958 9.61088C4.8098 9.62672 4.7668 9.60522 4.73399 9.56788C4.70571 9.5362 4.70797 9.4966 4.71702 9.45587C4.74078 9.34952 4.80414 9.2624 4.85392 9.16849C4.91049 9.06327 4.93765 8.94787 4.93765 8.82681C4.93765 8.70122 4.93765 8.57563 4.94557 8.45118C4.95235 8.32672 4.98177 8.20566 5.01798 8.08686C5.04966 7.98164 5.07907 7.87642 5.11754 7.77346C5.15035 7.68408 5.19108 7.59696 5.23295 7.51097C5.29178 7.39217 5.35401 7.27564 5.41623 7.1591C5.44113 7.11271 5.46601 7.06746 5.49543 7.02333C5.61197 6.85023 5.72737 6.67599 5.8473 6.50514C5.90614 6.42142 5.97289 6.34222 6.03964 6.26528C6.13129 6.16119 6.22519 6.05937 6.32023 5.9598C6.37228 5.90663 6.42998 5.85911 6.48542 5.80932C6.53068 5.76746 6.5748 5.72334 6.62232 5.68374C6.68342 5.63169 6.74678 5.58191 6.81014 5.53213C6.86444 5.48913 6.91762 5.44501 6.97419 5.40428C7.03302 5.36128 7.09299 5.31942 7.15408 5.27982C7.23781 5.22551 7.3238 5.1746 7.40865 5.12256C7.46749 5.08748 7.52745 5.05354 7.58742 5.02073C7.67227 4.9766 7.75713 4.93135 7.84425 4.89175C7.95286 4.8431 8.06148 4.79218 8.17349 4.75372C8.36583 4.68922 8.55817 4.62587 8.75504 4.57835C8.90325 4.54214 9.05712 4.5297 9.20873 4.51046C9.41918 4.48331 9.62962 4.46068 9.8344 4.39845C9.97922 4.35433 10.1263 4.31586 10.2791 4.31246C10.3413 4.31133 10.408 4.30907 10.4646 4.32944C10.5721 4.36677 10.6513 4.45955 10.6173 4.58513C10.6094 4.61342 10.5879 4.64171 10.5642 4.66094C10.494 4.71977 10.4205 4.77408 10.3469 4.83065C10.3413 4.76503 10.4058 4.72769 10.4261 4.65641C10.4058 4.6666 10.3922 4.66999 10.3854 4.67791C10.3164 4.75711 10.2723 4.84762 10.2485 4.95171C10.2236 5.05807 10.1942 5.16555 10.1546 5.26738C10.0958 5.41786 10.0132 5.55702 9.91134 5.68374C9.8955 5.7041 9.88192 5.7256 9.86722 5.74597L9.84911 5.73805C9.88192 5.62717 9.91587 5.51516 9.94868 5.40428C9.94528 5.40315 9.94302 5.40088 9.93963 5.39975C9.91587 5.4337 9.88419 5.46537 9.86835 5.50271C9.83554 5.5853 9.80725 5.67016 9.78236 5.75615C9.74502 5.88739 9.71221 6.01977 9.63301 6.13517C9.62396 6.14762 9.61265 6.15893 9.59681 6.16798C9.61943 6.0175 9.64207 5.86816 9.66356 5.71768L9.64772 5.71429C9.6398 5.73691 9.63075 5.75954 9.62509 5.7833C9.60473 5.87834 9.58889 5.97451 9.564 6.06955C9.54929 6.12499 9.52213 6.17817 9.49837 6.23134C9.48932 6.25284 9.47461 6.2732 9.46669 6.2947C9.45425 6.32864 9.43049 6.33091 9.40786 6.32525C9.38976 6.23247 9.37279 6.14309 9.35582 6.05484C9.35016 6.05484 9.34563 6.05484 9.33998 6.05597C9.33885 6.06276 9.33545 6.06955 9.33658 6.07634C9.3479 6.17703 9.35921 6.27773 9.33658 6.37843C9.32074 6.44744 9.28001 6.50175 9.22684 6.54701C9.21892 6.55379 9.20647 6.55379 9.19516 6.55719C9.17818 6.50628 9.16121 6.45762 9.14537 6.40897C9.14085 6.40897 9.13745 6.41124 9.13293 6.41237C9.13859 6.45197 9.14651 6.49044 9.14764 6.53004C9.14877 6.59905 9.1499 6.66694 9.10464 6.72803C9.06957 6.77555 9.02884 6.78347 8.9734 6.76876C8.93833 6.75971 8.90438 6.73935 8.85913 6.77895C8.8546 6.70427 8.85121 6.63978 8.84781 6.57077C8.81613 6.60584 8.81953 6.64883 8.815 6.68617C8.81048 6.73143 8.82179 6.77895 8.8184 6.8242C8.81613 6.86041 8.80595 6.89548 8.79463 6.92942C8.77653 6.9826 8.76635 7.04483 8.70526 7.06972C8.6815 7.0799 8.65434 7.08443 8.62832 7.0833C8.60003 7.08217 8.57175 7.07085 8.53328 7.06067C8.56269 7.04709 8.58306 7.03804 8.60343 7.02899C8.57401 6.99957 8.5016 7.02559 8.48802 7.06972C8.47558 7.10819 8.46313 7.14666 8.44842 7.18399C8.43711 7.21341 8.42353 7.24283 8.40769 7.26998C8.38846 7.30505 8.35678 7.30845 8.32057 7.2994C8.29794 7.29261 8.27532 7.28243 8.25269 7.28016C8.16444 7.27451 8.13728 7.32881 8.13842 7.39896C8.13842 7.49626 8.07845 7.55623 7.98115 7.55849C7.92684 7.56075 7.80804 7.5517 7.79334 7.57659C7.76844 7.61959 7.75147 7.66597 7.72658 7.70897C7.70169 7.75083 7.62815 7.77006 7.58402 7.74744C7.51388 7.71123 7.44373 7.67163 7.37358 7.6343C7.36566 7.62977 7.35548 7.62864 7.34643 7.62524C7.34416 7.62864 7.34303 7.6309 7.34077 7.6343C7.37245 7.65919 7.40526 7.68408 7.43581 7.7101C7.46523 7.73499 7.49351 7.76101 7.52179 7.78817C7.52632 7.79269 7.52858 7.80401 7.52632 7.8108C7.51727 7.847 7.46296 7.88547 7.42563 7.89339C7.36227 7.90697 7.30909 7.88094 7.25591 7.85605C7.24234 7.8504 7.22989 7.84361 7.21631 7.83795C7.21405 7.84134 7.21179 7.84361 7.21066 7.847C7.24573 7.87189 7.2808 7.89678 7.3204 7.92507C7.21971 7.99408 7.11788 8.00879 7.01379 7.96693C6.93346 7.93412 6.85879 7.88886 6.78072 7.84926C6.77393 7.84587 6.76827 7.84361 6.76035 7.84361C6.84634 7.91941 6.93799 7.98503 7.05 8.01671C7.02397 8.09704 6.94704 8.13212 6.87576 8.12759C6.83955 8.12533 6.80222 8.1208 6.76601 8.11175C6.73094 8.1027 6.69699 8.08573 6.66305 8.07215C6.66079 8.07555 6.65966 8.08007 6.6574 8.08347C6.69586 8.1027 6.73433 8.1208 6.77167 8.14004C6.70718 8.25092 6.65853 8.27807 6.52841 8.24639C6.43451 8.22376 6.34625 8.17851 6.25574 8.14343C6.25008 8.14117 6.24443 8.13777 6.23877 8.13664C6.22406 8.13325 6.21049 8.13099 6.19125 8.13664C6.21388 8.15248 6.23425 8.17285 6.25801 8.18303C6.33381 8.21358 6.41075 8.24073 6.48768 8.27015C6.499 8.27468 6.5171 8.28373 6.51597 8.28825C6.51484 8.3007 6.50578 8.3188 6.49673 8.32106C6.46845 8.32898 6.4379 8.33464 6.40848 8.33464C6.38246 8.33464 6.35531 8.32672 6.32929 8.32446C6.27724 8.32106 6.2399 8.34822 6.22746 8.398C6.19465 8.53038 6.146 8.56545 6.01023 8.55187C5.92763 8.54282 5.85183 8.51567 5.77942 8.47607C5.7681 8.46928 5.75679 8.46249 5.74321 8.45796C5.78281 8.53151 5.86654 8.54848 5.9299 8.60618C5.90048 8.64691 5.87559 8.69104 5.84165 8.72724C5.80205 8.77023 5.74548 8.76345 5.6923 8.75779C5.61763 8.74987 5.552 8.71819 5.49091 8.67746C5.48299 8.6718 5.4728 8.66954 5.46036 8.66954C5.52032 8.74421 5.59952 8.78494 5.69343 8.79965C5.64704 8.91958 5.58595 8.96257 5.46488 8.96597C5.37663 8.96823 5.28952 8.97615 5.20805 9.02141C5.15827 9.04856 5.11754 9.08364 5.09265 9.13455C5.08699 9.147 5.08812 9.1617 5.08586 9.17641C5.08925 9.17641 5.09265 9.17868 5.09604 9.17981C5.09944 9.17754 5.10623 9.17528 5.10736 9.17189C5.13564 9.0859 5.20918 9.05535 5.28386 9.03159C5.33477 9.01462 5.39134 9.00896 5.44565 9.00444C5.51693 8.99878 5.58708 8.98973 5.64591 8.9456C5.65836 8.93655 5.66628 8.92298 5.67533 8.9094C5.69456 8.87885 5.71267 8.84717 5.7319 8.81775C5.73643 8.81097 5.74887 8.80757 5.75792 8.80757C5.84164 8.80983 5.89143 8.76797 5.92084 8.69217C5.94347 8.63333 5.96497 8.61976 6.0272 8.62315C6.09621 8.62768 5.98194 8.74874 5.9842 8.75553C6.00683 8.8302 6.0668 8.86641 6.13355 8.8913C6.17315 8.906 6.21727 8.90827 6.26027 8.91732C6.24669 8.94787 6.21501 8.96144 6.18447 8.95805C6.13581 8.95126 6.0849 8.93995 6.03964 8.92071C5.97515 8.89356 5.91066 8.86754 5.84051 8.88677C5.80997 8.89469 5.78507 8.91958 5.75792 8.93768C5.74547 8.9456 5.73416 8.95352 5.72285 8.96257C5.71606 8.96823 5.7104 8.97502 5.70701 8.9852C5.78847 8.96031 5.8688 8.93203 5.95818 8.95918C5.948 8.96371 5.93782 8.9705 5.92763 8.97389C5.87332 8.99086 5.83712 9.0282 5.80884 9.07459C5.80544 9.08024 5.80657 9.09382 5.8111 9.10061C5.8473 9.15492 5.84957 9.17754 5.81902 9.21827C5.7896 9.25674 5.73755 9.27258 5.69003 9.25674C5.64704 9.24203 5.60518 9.22733 5.56332 9.21262C5.51127 9.19565 5.43547 9.21827 5.39813 9.26127C5.34269 9.32802 5.2997 9.4027 5.27368 9.48529C5.25331 9.54638 5.199 9.57354 5.14922 9.5396C5.08699 9.49547 5.02137 9.47624 4.9467 9.48981C4.99309 9.42306 5.05418 9.44116 5.11754 9.4604" fill="white"/>
<path d="M9.65974 6.89231C9.705 6.91833 9.70613 6.91833 9.73441 6.87534C9.74573 6.85836 9.75591 6.84026 9.77062 6.8165C9.72763 6.83008 9.72876 6.89683 9.66992 6.87986C9.67784 6.86289 9.68463 6.84818 9.69142 6.83347C9.64843 6.85384 9.6077 6.8742 9.5647 6.89344C9.56131 6.88326 9.55904 6.87986 9.55904 6.87873C9.61335 6.81876 9.6258 6.74183 9.63598 6.66602C9.64164 6.62303 9.66653 6.6038 9.70273 6.59135C9.74007 6.5789 9.78193 6.57325 9.81361 6.55175C9.87131 6.51102 9.93581 6.5246 9.9969 6.51215C10.0354 6.50423 10.0761 6.50876 10.1157 6.50876C10.1157 6.50084 10.1146 6.49405 10.1134 6.48613C10.1134 6.47142 10.1134 6.45784 10.1134 6.44314C10.075 6.45784 10.0376 6.47142 10.0003 6.48613C9.99803 6.48387 9.99577 6.4816 9.99351 6.47934C10.0014 6.46576 10.0093 6.45219 10.0207 6.43408C9.98219 6.43069 9.9392 6.46463 9.90978 6.41824C9.94259 6.33678 10.0127 6.29492 10.0874 6.25985C10.1417 6.23496 10.1972 6.21006 10.2515 6.18404C10.2583 6.18065 10.2628 6.1716 10.2696 6.16481C10.2605 6.16141 10.2515 6.15349 10.2424 6.15349C10.1972 6.15576 10.1519 6.15915 10.1044 6.16254C10.0919 6.1286 10.1066 6.08108 10.1462 6.05506C10.2266 6.00302 10.308 5.9521 10.3895 5.90119C10.3759 5.88082 10.3714 5.88082 10.3295 5.89214C10.3069 5.89779 10.2843 5.90458 10.2605 5.91137C10.2583 5.90798 10.2571 5.90458 10.2549 5.90119C10.2673 5.89101 10.2798 5.88082 10.2922 5.87177C10.3476 5.82991 10.4065 5.79031 10.4597 5.74505C10.4891 5.72016 10.5106 5.68622 10.5355 5.65567C10.5332 5.65228 10.5298 5.65001 10.5275 5.64662C10.5083 5.6568 10.4891 5.66585 10.4698 5.67604C10.4676 5.67377 10.4653 5.67038 10.463 5.66812C10.4698 5.6568 10.4766 5.64549 10.4834 5.63531C10.5445 5.54932 10.5807 5.45089 10.6214 5.35472C10.635 5.3219 10.6509 5.28909 10.6678 5.25741C10.7233 5.15332 10.781 5.05037 10.8704 4.97003C10.9518 4.89649 11.0469 4.85237 11.1577 4.86708C11.2392 4.87726 11.2901 4.9327 11.315 5.00963C11.3444 5.09788 11.3455 5.19066 11.3455 5.2823C11.3455 5.37395 11.3467 5.46673 11.341 5.55837C11.3308 5.72356 11.3218 5.88987 11.3003 6.05393C11.2811 6.20554 11.2494 6.35602 11.2177 6.50649C11.1951 6.61172 11.1634 6.71467 11.134 6.81763C11.1046 6.92059 11.074 7.02355 11.0389 7.12538C11.0118 7.20458 10.9756 7.28151 10.9439 7.35958C10.9167 7.4252 10.8907 7.49082 10.8624 7.55532C10.8466 7.59152 10.8285 7.62773 10.8093 7.6628C10.7527 7.76689 10.695 7.86985 10.6373 7.97394C10.5264 8.17646 10.4008 8.3688 10.2594 8.55209C10.2051 8.62224 10.1508 8.69352 10.0919 8.75914C10.0026 8.85984 9.91204 8.9594 9.81701 9.05557C9.74346 9.13024 9.66313 9.20039 9.58507 9.27167C9.52284 9.32824 9.46061 9.38481 9.39612 9.43799C9.37802 9.4527 9.35086 9.45609 9.33163 9.4708C9.27167 9.51606 9.15174 9.61449 9.15174 9.61449C9.15174 9.61449 9.01597 9.71858 8.9741 9.748C8.8768 9.81588 8.77611 9.87698 8.67428 9.93694C8.61205 9.97315 8.54756 10.006 8.48194 10.0365C8.34956 10.0987 8.21606 10.161 8.08142 10.2198C8.02937 10.2424 7.9728 10.2583 7.91736 10.273C7.77254 10.3137 7.62659 10.3465 7.47724 10.3635C7.31884 10.3816 7.16158 10.3793 7.00431 10.3601C6.84365 10.3397 6.68412 10.3137 6.52459 10.2854C6.28587 10.2436 6.04601 10.2119 5.80275 10.2153C5.70206 10.2164 5.60249 10.2153 5.5018 10.2141C5.40676 10.2119 5.31172 10.2006 5.2246 10.1587C5.1635 10.1293 5.10354 10.0919 5.07865 10.0218C5.06733 9.98899 5.06167 9.95731 5.10127 9.93128C5.1273 9.91431 5.142 9.8815 5.16124 9.85548C5.18613 9.82041 5.22233 9.8057 5.26307 9.8023C5.38752 9.79212 5.49274 9.74121 5.58665 9.66201C5.60136 9.64956 5.61833 9.64051 5.63417 9.63033C5.63643 9.63259 5.6387 9.63485 5.64209 9.63712C5.62625 9.65409 5.61267 9.67445 5.59457 9.68916C5.56063 9.71745 5.54705 9.74573 5.56629 9.75931C5.59683 9.78194 5.61946 9.75592 5.63983 9.73894C5.68508 9.70048 5.70205 9.64617 5.71337 9.59073C5.72468 9.53642 5.74505 9.48664 5.79596 9.46175C5.81859 9.45043 5.84801 9.45157 5.87403 9.45043C5.87856 9.45043 5.88874 9.46967 5.88648 9.47872C5.8695 9.54774 5.85027 9.61675 5.83104 9.68577C5.82991 9.69256 5.83104 9.69934 5.83104 9.70613L5.84122 9.71179C5.85932 9.6869 5.88195 9.66314 5.8944 9.63599C5.92608 9.56358 5.9487 9.48664 5.98151 9.41536C6.00414 9.36445 6.03243 9.3124 6.10258 9.31466C6.14331 9.31466 6.15123 9.32258 6.14444 9.36218C6.13539 9.40857 6.1252 9.45383 6.11728 9.50022C6.11502 9.51266 6.11502 9.52624 6.12181 9.54208C6.13426 9.52398 6.15123 9.50814 6.15915 9.4889C6.18517 9.42554 6.21119 9.36218 6.23269 9.29769C6.24287 9.26828 6.24627 9.23546 6.25192 9.20492C6.26097 9.154 6.29265 9.11893 6.33678 9.09856C6.35375 9.09064 6.3843 9.09404 6.40127 9.10422C6.43634 9.12685 6.46802 9.15174 6.51554 9.13251C6.51667 9.1359 6.5178 9.13816 6.52007 9.14156C6.49631 9.17437 6.47255 9.20718 6.44992 9.24112C6.45331 9.24452 6.45558 9.24678 6.45897 9.25017C6.47594 9.23773 6.49631 9.22868 6.51101 9.21397C6.5608 9.16305 6.59587 9.10309 6.61624 9.0352C6.62303 9.01144 6.61963 8.98429 6.62642 8.96053C6.6366 8.92659 6.65018 8.89378 6.66489 8.86097C6.67847 8.82929 6.72146 8.81458 6.7554 8.82702C6.7769 8.83494 6.80066 8.83721 6.82329 8.84513C6.8346 8.84965 6.84252 8.8621 6.85383 8.86776C6.86288 8.87341 6.87646 8.88133 6.88212 8.87794C6.92851 8.85531 6.96811 8.82137 6.98621 8.77385C7.00544 8.7252 7.01337 8.67202 7.02694 8.62111C7.04165 8.56793 7.09709 8.53625 7.15592 8.55209C7.18986 8.56114 7.22381 8.58038 7.25775 8.57924C7.2849 8.57924 7.31658 8.56114 7.33695 8.54078C7.38786 8.48986 7.41502 8.42198 7.43651 8.35409C7.46593 8.26697 7.53042 8.22964 7.6198 8.25113C7.6379 8.25566 7.656 8.26019 7.67411 8.26358C7.72502 8.27263 7.76462 8.24548 7.80422 8.22172C7.87437 8.18099 7.89473 8.10745 7.92189 8.03843C7.94565 7.9762 7.9762 7.91963 8.08481 7.9366C8.12441 7.94226 8.16514 7.95018 8.20474 7.95584C8.30996 7.96828 8.36767 7.92642 8.40161 7.81667C8.41858 7.76236 8.43102 7.70579 8.45705 7.65601C8.46949 7.63225 8.50457 7.61528 8.53285 7.60623C8.56001 7.59831 8.59169 7.60283 8.6211 7.60623C8.73198 7.62207 8.77384 7.5655 8.79873 7.47838C8.81231 7.43086 8.82249 7.38787 8.87001 7.35845C8.90395 7.33695 8.9345 7.34035 8.96392 7.35166C9.02615 7.37542 9.07593 7.36184 9.12685 7.31885C9.18568 7.26907 9.1936 7.20005 9.21396 7.13556C9.23772 7.06315 9.25696 6.98961 9.33163 6.95227C9.39046 6.92285 9.45269 6.91154 9.51831 6.9353C9.57375 6.95567 9.61901 6.93077 9.65861 6.8957L9.65974 6.89231ZM5.1273 10.0048C5.13974 9.98899 5.15106 9.97202 5.16463 9.95844C5.19405 9.92902 5.22234 9.89508 5.25741 9.87584C5.29361 9.85661 5.33887 9.85322 5.3796 9.8419C5.39091 9.83851 5.4011 9.83059 5.41128 9.82606C5.3615 9.82606 5.31738 9.83511 5.27325 9.83738C5.19971 9.8419 5.13069 9.93581 5.1273 10.0048ZM5.18952 10.041C5.20876 9.97088 5.27551 9.95052 5.3219 9.90753C5.29588 9.91205 5.27325 9.91997 5.25175 9.92789C5.2427 9.93128 5.23365 9.93694 5.22573 9.94147C5.19179 9.95957 5.17255 10.0037 5.19066 10.041H5.18952Z" fill="white"/>
</svg>
